<svg width="450" height="450" viewBox="0 0 450 450" fill="none" xmlns="http://www.w3.org/2000/svg">
<rect width="450" height="450" fill="#1D2732"/>
<path d="M164.7 269H155.203V233.307H176.297V241.046H164.7V247.857H175.394V255.597H164.7V269ZM195.296 240.851C197.981 240.851 200.301 241.323 202.254 242.267C204.207 243.194 205.713 244.594 206.771 246.466C207.828 248.338 208.357 250.681 208.357 253.497V257.745H191.292C191.373 259.194 191.91 260.382 192.903 261.31C193.912 262.237 195.394 262.701 197.347 262.701C199.072 262.701 200.651 262.53 202.083 262.188C203.532 261.847 205.021 261.318 206.551 260.602V267.462C205.216 268.162 203.759 268.674 202.181 269C200.602 269.326 198.608 269.488 196.199 269.488C193.416 269.488 190.926 268.992 188.729 267.999C186.531 267.006 184.798 265.468 183.528 263.385C182.275 261.301 181.648 258.624 181.648 255.353C181.648 252.032 182.218 249.306 183.357 247.174C184.497 245.025 186.092 243.438 188.143 242.413C190.193 241.371 192.578 240.851 195.296 240.851ZM195.638 247.345C194.515 247.345 193.571 247.703 192.806 248.419C192.057 249.119 191.618 250.226 191.487 251.739H199.69C199.674 250.925 199.511 250.185 199.202 249.518C198.893 248.85 198.437 248.321 197.835 247.931C197.249 247.54 196.517 247.345 195.638 247.345ZM228.553 261.944C229.415 261.944 230.205 261.855 230.921 261.676C231.637 261.497 232.386 261.269 233.167 260.992V267.95C232.125 268.406 231.019 268.772 229.847 269.049C228.691 269.342 227.21 269.488 225.403 269.488C223.613 269.488 222.034 269.212 220.667 268.658C219.3 268.089 218.234 267.112 217.469 265.729C216.72 264.329 216.346 262.384 216.346 259.894V248.492H213.001V244.61L217.249 241.607L219.715 235.797H225.965V241.339H232.752V248.492H225.965V259.259C225.965 260.154 226.193 260.829 226.648 261.285C227.104 261.725 227.739 261.944 228.553 261.944ZM251.849 269.488C249.049 269.488 246.616 268.992 244.549 267.999C242.482 266.99 240.879 265.444 239.739 263.36C238.616 261.261 238.055 258.575 238.055 255.304C238.055 251.951 238.681 249.208 239.935 247.076C241.204 244.944 242.938 243.373 245.135 242.364C247.332 241.355 249.822 240.851 252.605 240.851C254.298 240.851 255.901 241.038 257.415 241.412C258.945 241.786 260.361 242.299 261.663 242.95L258.855 250.006C257.716 249.501 256.65 249.103 255.657 248.81C254.681 248.5 253.663 248.346 252.605 248.346C251.645 248.346 250.799 248.598 250.066 249.103C249.334 249.607 248.764 250.372 248.357 251.397C247.951 252.407 247.747 253.692 247.747 255.255C247.747 256.85 247.951 258.136 248.357 259.112C248.781 260.089 249.358 260.797 250.091 261.236C250.84 261.676 251.694 261.896 252.654 261.896C254.038 261.896 255.413 261.684 256.78 261.261C258.164 260.821 259.474 260.219 260.711 259.454V267.047C259.572 267.796 258.286 268.39 256.854 268.829C255.421 269.269 253.753 269.488 251.849 269.488ZM277 231.012V236.407C277 238.458 276.951 240.183 276.854 241.583C276.772 242.966 276.691 244.024 276.609 244.757H277.049C277.651 243.797 278.335 243.032 279.1 242.462C279.865 241.892 280.711 241.485 281.639 241.241C282.566 240.981 283.576 240.851 284.666 240.851C286.489 240.851 288.133 241.201 289.598 241.9C291.079 242.6 292.259 243.699 293.138 245.196C294.017 246.677 294.456 248.614 294.456 251.007V269H284.861V253.912C284.861 252.073 284.593 250.689 284.056 249.762C283.519 248.818 282.688 248.346 281.565 248.346C280.41 248.346 279.498 248.679 278.831 249.347C278.164 249.998 277.692 250.958 277.415 252.228C277.138 253.481 277 255.019 277 256.842V269H267.454V231.012H277Z" fill="#F3F3F3"/>
<path d="M206.199 326L195.652 298.339H205.613L210.301 314.696C210.35 314.843 210.431 315.217 210.545 315.819C210.675 316.422 210.74 316.983 210.74 317.504H210.911C210.911 316.951 210.968 316.422 211.082 315.917C211.196 315.412 211.285 315.022 211.351 314.745L216.258 298.339H226.194L215.647 326H206.199ZM251.321 317.504C251.321 319.262 250.931 320.816 250.149 322.167C249.368 323.518 248.115 324.576 246.39 325.341C244.681 326.106 242.426 326.488 239.627 326.488C237.658 326.488 235.892 326.382 234.329 326.171C232.783 325.959 231.212 325.552 229.617 324.95V317.309C231.359 318.106 233.133 318.684 234.939 319.042C236.746 319.384 238.17 319.555 239.212 319.555C240.286 319.555 241.067 319.441 241.556 319.213C242.06 318.969 242.312 318.611 242.312 318.139C242.312 317.732 242.142 317.39 241.8 317.113C241.474 316.82 240.88 316.487 240.018 316.112C239.171 315.738 237.975 315.233 236.429 314.599C234.899 313.964 233.621 313.272 232.596 312.523C231.587 311.775 230.83 310.88 230.325 309.838C229.821 308.796 229.568 307.519 229.568 306.005C229.568 303.303 230.61 301.269 232.693 299.901C234.777 298.534 237.535 297.851 240.97 297.851C242.793 297.851 244.51 298.054 246.121 298.461C247.732 298.852 249.401 299.429 251.126 300.194L248.514 306.347C247.146 305.728 245.763 305.232 244.363 304.857C242.964 304.483 241.849 304.296 241.019 304.296C240.27 304.296 239.692 304.394 239.285 304.589C238.878 304.784 238.675 305.069 238.675 305.443C238.675 305.785 238.813 306.086 239.09 306.347C239.383 306.607 239.928 306.908 240.726 307.25C241.523 307.592 242.687 308.072 244.217 308.69C245.828 309.341 247.155 310.041 248.196 310.79C249.254 311.522 250.035 312.418 250.54 313.476C251.061 314.534 251.321 315.876 251.321 317.504Z" fill="#F3F3F3"/>
<path d="M190.13 353.307C194.655 353.307 198.04 354.291 200.286 356.261C202.549 358.23 203.68 361.03 203.68 364.659C203.68 366.287 203.444 367.849 202.972 369.347C202.516 370.844 201.759 372.179 200.701 373.351C199.66 374.522 198.268 375.45 196.526 376.134C194.801 376.817 192.669 377.159 190.13 377.159H187.42V389H177.776V353.307H190.13ZM189.91 361.095H187.42V369.298H189.324C190.154 369.298 190.927 369.16 191.644 368.883C192.36 368.59 192.929 368.126 193.353 367.491C193.792 366.84 194.012 365.978 194.012 364.903C194.012 363.78 193.678 362.869 193.011 362.169C192.343 361.453 191.31 361.095 189.91 361.095ZM236.961 361.339V389H229.759L228.562 385.558H228.001C227.431 386.485 226.707 387.242 225.828 387.828C224.965 388.398 224.005 388.813 222.947 389.073C221.889 389.35 220.791 389.488 219.651 389.488C217.845 389.488 216.209 389.138 214.744 388.438C213.296 387.739 212.14 386.64 211.277 385.143C210.431 383.645 210.008 381.716 210.008 379.356V361.339H219.554V376.451C219.554 378.242 219.806 379.609 220.311 380.553C220.831 381.48 221.678 381.944 222.85 381.944C224.054 381.944 224.982 381.619 225.633 380.968C226.3 380.317 226.764 379.356 227.024 378.087C227.285 376.817 227.415 375.271 227.415 373.448V361.339H236.961ZM254.349 389H244.803V351.012H254.349V389ZM271.761 389H262.215V351.012H271.761V389Z" fill="#F3F3F3"/>
<g clip-path="url(#clip0_623_2)">
<path d="M253.495 93.448C247.115 93.448 242.36 96.584 242.36 104.125C242.36 109.807 245.489 113.755 253.151 113.755C259.645 113.755 264.057 109.932 264.057 103.891C264.057 97.0466 260.109 93.448 253.495 93.448ZM240.735 146.715C239.224 148.568 237.719 150.541 237.719 152.864C237.719 157.504 243.631 158.896 251.755 158.896C258.489 158.896 267.656 158.427 267.656 152.172C267.656 148.448 263.245 148.219 257.672 147.869L240.735 146.715ZM275.083 93.7973C277.167 96.4693 279.376 100.183 279.376 105.521C279.376 118.396 269.281 125.943 254.661 125.943C250.943 125.943 247.579 125.479 245.489 124.896L241.663 131.047L253.031 131.74C273.109 133.02 284.943 133.604 284.943 149.031C284.943 162.375 273.224 169.917 253.031 169.917C232.031 169.917 224.021 164.579 224.021 155.411C224.021 150.188 226.344 147.411 230.407 143.573C226.573 141.959 225.303 139.057 225.303 135.921C225.303 133.369 226.573 131.047 228.667 128.839C230.755 126.636 233.073 124.432 235.86 121.88C230.177 119.093 225.88 113.057 225.88 104.469C225.88 91.1253 234.697 81.9626 252.453 81.9626C257.443 81.9626 260.459 82.4213 263.131 83.1253H285.76V92.984L275.084 93.7973" fill="#F03C2E"/>
<mask id="mask0_623_2" style="mask-type:luminance" maskUnits="userSpaceOnUse" x="291" y="52" width="34" height="91">
<path d="M291 52.0532H324.333V143H291V52.0532Z" fill="white"/>
</mask>
<g mask="url(#mask0_623_2)">
<path d="M306.172 72.708C299.557 72.708 295.729 68.8813 295.729 62.26C295.729 55.6507 299.557 52.052 306.172 52.052C312.905 52.052 316.735 55.652 316.735 62.26C316.735 68.88 312.907 72.708 306.172 72.708ZM291.203 142.448V133.28L297.12 132.472C298.745 132.239 298.979 131.889 298.979 130.144V96.0307C298.979 94.76 298.631 93.9427 297.469 93.5987L291.203 91.3907L292.479 81.9947H316.5V130.147C316.5 132.012 316.615 132.24 318.36 132.475L324.276 133.283V142.449L291.203 142.448Z" fill="#F03C2E"/>
</g>
<mask id="mask1_623_2" style="mask-type:luminance" maskUnits="userSpaceOnUse" x="323" y="63" width="48" height="80">
<path d="M323 63H370.161V143H323V63Z" fill="white"/>
</mask>
<g mask="url(#mask1_623_2)">
<path d="M370.161 137.947C365.172 140.38 357.864 142.588 351.245 142.588C337.437 142.588 332.218 137.021 332.218 123.901V93.5053C332.218 92.8066 332.218 92.344 331.285 92.344H323.161V82.016C333.38 80.8546 337.437 75.7453 338.713 63.0986H349.74V79.5786C349.74 80.3906 349.74 80.7386 350.666 80.7386H367.026V92.344H349.74V120.073C349.74 126.921 351.364 129.588 357.63 129.588C360.88 129.588 364.244 128.776 367.026 127.735L370.161 137.947Z" fill="#F03C2E"/>
</g>
<mask id="mask2_623_2" style="mask-type:luminance" maskUnits="userSpaceOnUse" x="79" y="52" width="123" height="122">
<path d="M79 52.0532H201.667V173.667H79V52.0532Z" fill="white"/>
</mask>
<g mask="url(#mask2_623_2)">
<path d="M198.23 107.495L145.172 54.4427C144.446 53.7159 143.583 53.1393 142.634 52.746C141.684 52.3526 140.667 52.1501 139.639 52.1501C138.611 52.1501 137.594 52.3526 136.644 52.746C135.695 53.1393 134.832 53.7159 134.106 54.4427L123.088 65.4587L137.062 79.4373C138.704 78.8773 140.471 78.7888 142.162 79.1819C143.852 79.575 145.398 80.434 146.626 81.6613C147.859 82.8965 148.719 84.4535 149.11 86.1545C149.5 87.8556 149.405 89.6321 148.834 91.2813L162.303 104.755C163.952 104.181 165.729 104.085 167.43 104.475C169.131 104.866 170.688 105.729 171.922 106.964C172.787 107.828 173.474 108.854 173.942 109.984C174.411 111.113 174.652 112.324 174.652 113.547C174.652 114.77 174.411 115.981 173.942 117.111C173.474 118.241 172.787 119.267 171.922 120.131C171.057 120.996 170.031 121.683 168.9 122.152C167.77 122.621 166.559 122.862 165.336 122.862C164.112 122.862 162.901 122.621 161.771 122.152C160.641 121.683 159.614 120.996 158.75 120.131C157.451 118.831 156.566 117.176 156.206 115.374C155.845 113.573 156.026 111.705 156.724 110.005L144.162 97.4427V130.5C145.073 130.948 145.906 131.543 146.626 132.26C148.372 134.007 149.353 136.376 149.353 138.847C149.353 141.317 148.372 143.686 146.626 145.433C142.986 149.068 137.088 149.068 133.459 145.433C132.593 144.569 131.906 143.542 131.437 142.412C130.968 141.282 130.727 140.07 130.727 138.847C130.727 137.623 130.968 136.412 131.437 135.281C131.906 134.151 132.593 133.124 133.459 132.26C134.328 131.386 135.364 130.695 136.506 130.229V96.864C135.364 96.3983 134.328 95.7077 133.459 94.8333C132.152 93.5269 131.262 91.8611 130.904 90.0479C130.546 88.2347 130.736 86.356 131.448 84.6507L117.672 70.8693L81.2922 107.249C80.5652 107.976 79.9885 108.839 79.595 109.788C79.2015 110.738 78.999 111.755 78.999 112.783C78.999 113.811 79.2015 114.829 79.595 115.779C79.9885 116.728 80.5652 117.591 81.2922 118.317L134.35 171.375C135.076 172.101 135.939 172.678 136.888 173.071C137.838 173.465 138.855 173.667 139.883 173.667C140.911 173.667 141.928 173.465 142.878 173.071C143.827 172.678 144.69 172.101 145.416 171.375L198.23 118.568C199.698 117.1 200.523 115.108 200.523 113.031C200.523 110.955 199.698 108.963 198.23 107.495Z" fill="#F03C2E"/>
</g>
</g>
<defs>
<clipPath id="clip0_623_2">
<rect width="292" height="122.667" fill="white" transform="translate(79 51)"/>
</clipPath>
</defs>
</svg>
