<svg width="750" height="422" viewBox="0 0 750 422" fill="none" xmlns="http://www.w3.org/2000/svg">
<g id="JUnit">
<rect width="750" height="421.875" fill="#26374B"/>
<path id="UNIT TESTING WITH" d="M140.035 88.9609V103.477C140.035 105.889 139.278 107.796 137.765 109.199C136.261 110.601 134.202 111.303 131.589 111.303C129.015 111.303 126.972 110.622 125.458 109.259C123.945 107.897 123.173 106.025 123.142 103.644V88.9609H127.683V103.507C127.683 104.95 128.027 106.005 128.713 106.671C129.409 107.327 130.368 107.655 131.589 107.655C134.142 107.655 135.439 106.313 135.479 103.628V88.9609H140.035ZM175.476 111H170.935L162.095 96.499V111H157.554V88.9609H162.095L170.95 103.492V88.9609H175.476V111ZM198.065 111H193.524V88.9609H198.065V111ZM232.219 92.6392H225.468V111H220.927V92.6392H214.267V88.9609H232.219V92.6392ZM284.906 92.6392H278.155V111H273.614V92.6392H266.953V88.9609H284.906V92.6392ZM314.564 101.449H305.845V107.352H316.077V111H301.304V88.9609H316.047V92.6392H305.845V97.8916H314.564V101.449ZM343.965 105.218C343.965 104.36 343.662 103.704 343.057 103.25C342.451 102.786 341.361 102.301 339.787 101.797C338.213 101.282 336.967 100.778 336.048 100.283C333.546 98.931 332.294 97.1095 332.294 94.8188C332.294 93.6281 332.627 92.5685 333.293 91.6401C333.969 90.7017 334.933 89.9701 336.184 89.4453C337.446 88.9206 338.859 88.6582 340.423 88.6582C341.997 88.6582 343.4 88.9458 344.631 89.521C345.862 90.0861 346.816 90.8883 347.492 91.9277C348.178 92.9671 348.521 94.1478 348.521 95.4697H343.98C343.98 94.4606 343.662 93.6785 343.026 93.1235C342.391 92.5584 341.497 92.2759 340.347 92.2759C339.237 92.2759 338.374 92.513 337.759 92.9873C337.143 93.4515 336.835 94.0671 336.835 94.834C336.835 95.5505 337.194 96.1509 337.91 96.6353C338.637 97.1196 339.701 97.5737 341.104 97.9976C343.687 98.7746 345.569 99.7383 346.75 100.889C347.931 102.039 348.521 103.472 348.521 105.188C348.521 107.095 347.799 108.593 346.356 109.683C344.913 110.763 342.971 111.303 340.529 111.303C338.833 111.303 337.289 110.995 335.897 110.379C334.504 109.754 333.44 108.901 332.703 107.821C331.976 106.742 331.613 105.49 331.613 104.067H336.169C336.169 106.499 337.622 107.715 340.529 107.715C341.608 107.715 342.451 107.498 343.057 107.064C343.662 106.62 343.965 106.005 343.965 105.218ZM381.994 92.6392H375.243V111H370.702V92.6392H364.042V88.9609H381.994V92.6392ZM403.221 111H398.68V88.9609H403.221V111ZM439.161 111H434.62L425.78 96.499V111H421.239V88.9609H425.78L434.635 103.492V88.9609H439.161V111ZM474.359 108.215C473.542 109.194 472.386 109.956 470.893 110.5C469.399 111.035 467.744 111.303 465.928 111.303C464.021 111.303 462.346 110.889 460.903 110.062C459.47 109.224 458.36 108.013 457.573 106.429C456.795 104.844 456.397 102.983 456.377 100.843V99.3447C456.377 97.1449 456.745 95.2427 457.482 93.6382C458.228 92.0236 459.298 90.7925 460.691 89.9448C462.093 89.0871 463.733 88.6582 465.61 88.6582C468.224 88.6582 470.267 89.2839 471.74 90.5352C473.214 91.7764 474.087 93.5877 474.359 95.9692H469.939C469.737 94.7078 469.288 93.7845 468.592 93.1992C467.906 92.6139 466.957 92.3213 465.746 92.3213C464.202 92.3213 463.027 92.9015 462.219 94.062C461.412 95.2225 461.003 96.9481 460.993 99.2388V100.646C460.993 102.957 461.432 104.703 462.31 105.884C463.188 107.064 464.475 107.655 466.17 107.655C467.876 107.655 469.092 107.292 469.818 106.565V102.766H465.686V99.4204H474.359V108.215ZM530.527 104.643L533.494 88.9609H538.02L533.131 111H528.559L524.972 96.2568L521.385 111H516.813L511.924 88.9609H516.45L519.432 104.612L523.065 88.9609H526.91L530.527 104.643ZM559.111 111H554.57V88.9609H559.111V111ZM593.265 92.6392H586.514V111H581.973V92.6392H575.313V88.9609H593.265V92.6392ZM627.6 111H623.059V101.555H614.204V111H609.663V88.9609H614.204V97.8916H623.059V88.9609H627.6V111Z" fill="white"/>
<g id="JUnit_2">
<path d="M182.921 162.836H213.244V264.719C213.244 274.085 211.155 282.373 206.977 289.583C202.867 296.726 197.038 302.251 189.491 306.159C181.944 310.067 173.42 312.021 163.919 312.021C148.354 312.021 136.225 308.08 127.533 300.196C118.84 292.245 114.494 281.025 114.494 266.538H145.018C145.018 273.748 146.535 279.071 149.567 282.508C152.599 285.944 157.383 287.663 163.919 287.663C169.714 287.663 174.33 285.675 177.766 281.699C181.203 277.724 182.921 272.063 182.921 264.719V162.836Z" fill="#00D918"/>
<path d="M359.918 162.836V259.766C359.918 275.871 354.865 288.606 344.757 297.972C334.717 307.338 320.971 312.021 303.519 312.021C286.336 312.021 272.691 307.473 262.584 298.376C252.477 289.28 247.322 276.78 247.12 260.878V162.836H277.442V259.968C277.442 269.604 279.733 276.646 284.315 281.093C288.964 285.473 295.366 287.663 303.519 287.663C320.567 287.663 329.226 278.701 329.495 260.777V162.836H359.918ZM419.063 200.638L419.973 213.272C427.789 203.501 438.267 198.616 451.407 198.616C462.997 198.616 471.622 202.019 477.282 208.825C482.942 215.63 485.839 225.805 485.974 239.349V310H456.764V240.057C456.764 233.857 455.416 229.376 452.721 226.614C450.025 223.784 445.544 222.369 439.278 222.369C431.057 222.369 424.892 225.873 420.781 232.88V310H391.571V200.638H419.063ZM548.353 310H519.042V200.638H548.353V310ZM517.323 172.337C517.323 167.957 518.772 164.352 521.669 161.522C524.634 158.692 528.644 157.277 533.697 157.277C538.684 157.277 542.659 158.692 545.624 161.522C548.589 164.352 550.071 167.957 550.071 172.337C550.071 176.784 548.555 180.423 545.523 183.253C542.558 186.083 538.616 187.498 533.697 187.498C528.778 187.498 524.803 186.083 521.771 183.253C518.806 180.423 517.323 176.784 517.323 172.337ZM616.797 173.752V200.638H635.495V222.065H616.797V276.646C616.797 280.688 617.571 283.586 619.121 285.338C620.671 287.09 623.636 287.966 628.016 287.966C631.25 287.966 634.114 287.73 636.607 287.258V309.394C630.88 311.146 624.984 312.021 618.919 312.021C598.435 312.021 587.99 301.678 587.586 280.992V222.065H571.616V200.638H587.586V173.752H616.797Z" fill="#FB000F"/>
</g>
</g>
</svg>
