<svg width="750" height="422" viewBox="0 0 750 422" fill="none" xmlns="http://www.w3.org/2000/svg">
<g id="soapui">
<rect width="750" height="421.875" fill="#6CCA00"/>
<path id="MOCK REST APIS WITH" d="M75.9566 88.9609L81.6177 104.945L87.2486 88.9609H93.2124V111H88.6563V104.976L89.1104 94.5767L83.1617 111H80.0435L74.1099 94.5918L74.564 104.976V111H70.023V88.9609H75.9566ZM130.937 100.48C130.937 102.65 130.553 104.552 129.786 106.187C129.019 107.821 127.92 109.083 126.487 109.971C125.064 110.859 123.429 111.303 121.582 111.303C119.756 111.303 118.126 110.864 116.693 109.986C115.26 109.108 114.15 107.857 113.363 106.232C112.576 104.597 112.177 102.72 112.167 100.601V99.5112C112.167 97.3416 112.556 95.4344 113.333 93.7896C114.12 92.1346 115.225 90.8682 116.648 89.9902C118.081 89.1022 119.715 88.6582 121.552 88.6582C123.389 88.6582 125.018 89.1022 126.441 89.9902C127.874 90.8682 128.979 92.1346 129.756 93.7896C130.543 95.4344 130.937 97.3366 130.937 99.4961V100.48ZM126.335 99.481C126.335 97.1701 125.921 95.4142 125.094 94.2134C124.267 93.0125 123.086 92.4121 121.552 92.4121C120.028 92.4121 118.853 93.0075 118.025 94.1982C117.198 95.3789 116.779 97.1146 116.769 99.4053V100.48C116.769 102.73 117.183 104.476 118.01 105.717C118.837 106.958 120.028 107.579 121.582 107.579C123.106 107.579 124.277 106.984 125.094 105.793C125.911 104.592 126.325 102.846 126.335 100.556V99.481ZM167.193 103.659C167.021 106.03 166.143 107.897 164.559 109.259C162.985 110.622 160.906 111.303 158.323 111.303C155.497 111.303 153.272 110.354 151.647 108.457C150.033 106.55 149.226 103.936 149.226 100.616V99.269C149.226 97.1499 149.599 95.283 150.346 93.6685C151.092 92.0539 152.157 90.8177 153.54 89.96C154.932 89.0921 156.547 88.6582 158.383 88.6582C160.926 88.6582 162.975 89.3394 164.529 90.7017C166.083 92.064 166.981 93.9762 167.223 96.4385H162.682C162.571 95.0156 162.172 93.9863 161.486 93.3506C160.81 92.7048 159.776 92.3818 158.383 92.3818C156.87 92.3818 155.734 92.9268 154.978 94.0166C154.231 95.0964 153.847 96.7765 153.827 99.0571V100.722C153.827 103.104 154.185 104.844 154.902 105.944C155.628 107.044 156.769 107.594 158.323 107.594C159.725 107.594 160.77 107.276 161.456 106.641C162.152 105.995 162.551 105.001 162.652 103.659H167.193ZM192.732 102.16L190.371 104.703V111H185.83V88.9609H190.371V98.9512L192.369 96.2114L197.985 88.9609H203.57L195.744 98.7544L203.797 111H198.393L192.732 102.16ZM252.696 102.932H249.078V111H244.537V88.9609H252.726C255.33 88.9609 257.338 89.5412 258.751 90.7017C260.163 91.8621 260.87 93.502 260.87 95.6211C260.87 97.1247 260.542 98.381 259.886 99.3901C259.24 100.389 258.256 101.186 256.934 101.782L261.702 110.788V111H256.828L252.696 102.932ZM249.078 99.2539H252.741C253.882 99.2539 254.765 98.9663 255.39 98.3911C256.016 97.8058 256.329 97.0036 256.329 95.9844C256.329 94.945 256.031 94.1276 255.436 93.5322C254.85 92.9368 253.947 92.6392 252.726 92.6392H249.078V99.2539ZM293.251 101.449H284.532V107.352H294.764V111H279.991V88.9609H294.734V92.6392H284.532V97.8916H293.251V101.449ZM324.512 105.218C324.512 104.36 324.209 103.704 323.604 103.25C322.998 102.786 321.908 102.301 320.334 101.797C318.76 101.282 317.514 100.778 316.595 100.283C314.093 98.931 312.841 97.1095 312.841 94.8188C312.841 93.6281 313.174 92.5685 313.84 91.6401C314.516 90.7017 315.48 89.9701 316.732 89.4453C317.993 88.9206 319.406 88.6582 320.97 88.6582C322.544 88.6582 323.947 88.9458 325.178 89.521C326.409 90.0861 327.363 90.8883 328.039 91.9277C328.725 92.9671 329.068 94.1478 329.068 95.4697H324.527C324.527 94.4606 324.209 93.6785 323.573 93.1235C322.938 92.5584 322.044 92.2759 320.894 92.2759C319.784 92.2759 318.921 92.513 318.306 92.9873C317.69 93.4515 317.382 94.0671 317.382 94.834C317.382 95.5505 317.741 96.1509 318.457 96.6353C319.184 97.1196 320.248 97.5737 321.651 97.9976C324.234 98.7746 326.116 99.7383 327.297 100.889C328.478 102.039 329.068 103.472 329.068 105.188C329.068 107.095 328.346 108.593 326.903 109.683C325.46 110.763 323.518 111.303 321.076 111.303C319.38 111.303 317.836 110.995 316.444 110.379C315.051 109.754 313.987 108.901 313.25 107.821C312.523 106.742 312.16 105.49 312.16 104.067H316.716C316.716 106.499 318.169 107.715 321.076 107.715C322.155 107.715 322.998 107.498 323.604 107.064C324.209 106.62 324.512 106.005 324.512 105.218ZM364.401 92.6392H357.65V111H353.109V92.6392H346.449V88.9609H364.401V92.6392ZM417.568 106.459H409.606L408.092 111H403.264L411.468 88.9609H415.676L423.926 111H419.097L417.568 106.459ZM410.832 102.781H416.342L413.572 94.5312L410.832 102.781ZM446.18 103.235V111H441.639V88.9609H450.237C451.892 88.9609 453.345 89.2637 454.596 89.8691C455.858 90.4746 456.826 91.3374 457.502 92.4575C458.178 93.5675 458.517 94.834 458.517 96.2568C458.517 98.4163 457.775 100.122 456.291 101.373C454.818 102.614 452.775 103.235 450.161 103.235H446.18ZM446.18 99.5566H450.237C451.438 99.5566 452.351 99.2741 452.977 98.709C453.612 98.1439 453.93 97.3366 453.93 96.2871C453.93 95.2074 453.612 94.3345 452.977 93.6685C452.341 93.0024 451.463 92.6593 450.343 92.6392H446.18V99.5566ZM482.133 111H477.592V88.9609H482.133V111ZM513.44 105.218C513.44 104.36 513.137 103.704 512.532 103.25C511.926 102.786 510.836 102.301 509.262 101.797C507.688 101.282 506.442 100.778 505.523 100.283C503.021 98.931 501.769 97.1095 501.769 94.8188C501.769 93.6281 502.102 92.5685 502.768 91.6401C503.445 90.7017 504.408 89.9701 505.66 89.4453C506.921 88.9206 508.334 88.6582 509.898 88.6582C511.472 88.6582 512.875 88.9458 514.106 89.521C515.337 90.0861 516.291 90.8883 516.967 91.9277C517.653 92.9671 517.996 94.1478 517.996 95.4697H513.455C513.455 94.4606 513.137 93.6785 512.501 93.1235C511.866 92.5584 510.973 92.2759 509.822 92.2759C508.712 92.2759 507.849 92.513 507.234 92.9873C506.618 93.4515 506.31 94.0671 506.31 94.834C506.31 95.5505 506.669 96.1509 507.385 96.6353C508.112 97.1196 509.176 97.5737 510.579 97.9976C513.162 98.7746 515.044 99.7383 516.225 100.889C517.406 102.039 517.996 103.472 517.996 105.188C517.996 107.095 517.274 108.593 515.831 109.683C514.388 110.763 512.446 111.303 510.004 111.303C508.308 111.303 506.765 110.995 505.372 110.379C503.979 109.754 502.915 108.901 502.178 107.821C501.452 106.742 501.088 105.49 501.088 104.067H505.644C505.644 106.499 507.098 107.715 510.004 107.715C511.084 107.715 511.926 107.498 512.532 107.064C513.137 106.62 513.44 106.005 513.44 105.218ZM577.279 104.643L580.245 88.9609H584.771L579.882 111H575.311L571.723 96.2568L568.136 111H563.565L558.676 88.9609H563.201L566.183 104.612L569.816 88.9609H573.661L577.279 104.643ZM607.722 111H603.181V88.9609H607.722V111ZM643.736 92.6392H636.985V111H632.444V92.6392H625.784V88.9609H643.736V92.6392ZM679.932 111H675.391V101.555H666.536V111H661.995V88.9609H666.536V97.8916H675.391V88.9609H679.932V111Z" fill="#364F6B"/>
<path id="SoapUI" d="M139.7 280.053C139.7 275.017 137.922 271.166 134.368 268.5C130.813 265.775 124.415 262.931 115.172 259.969C105.93 256.947 98.6135 253.985 93.2223 251.082C78.5296 243.143 71.1832 232.45 71.1832 219.001C71.1832 212.01 73.1383 205.789 77.0484 200.339C81.0178 194.829 86.6757 190.534 94.0221 187.453C101.428 184.372 109.722 182.832 118.905 182.832C128.147 182.832 136.382 184.521 143.61 187.897C150.838 191.215 156.436 195.925 160.406 202.027C164.434 208.13 166.449 215.061 166.449 222.822H139.789C139.789 216.898 137.922 212.306 134.19 209.048C130.458 205.73 125.214 204.071 118.461 204.071C111.944 204.071 106.878 205.464 103.264 208.248C99.6503 210.973 97.8434 214.587 97.8434 219.09C97.8434 223.296 99.9465 226.821 104.153 229.665C108.419 232.509 114.669 235.175 122.904 237.663C138.071 242.225 149.12 247.883 156.051 254.637C162.983 261.391 166.449 269.803 166.449 279.875C166.449 291.072 162.213 299.87 153.741 306.269C145.269 312.608 133.864 315.777 119.527 315.777C109.574 315.777 100.509 313.97 92.3336 310.356C84.1578 306.683 77.9075 301.677 73.5826 295.338C69.317 288.999 67.1842 281.652 67.1842 273.299H93.9332C93.9332 287.577 102.464 294.716 119.527 294.716C125.866 294.716 130.813 293.442 134.368 290.895C137.922 288.288 139.7 284.674 139.7 280.053ZM187.08 265.034C187.08 255.496 188.917 246.994 192.59 239.529C196.263 232.064 201.536 226.288 208.408 222.2C215.34 218.112 223.368 216.068 232.491 216.068C245.466 216.068 256.041 220.038 264.217 227.977C272.452 235.915 277.043 246.698 277.991 260.324L278.169 266.9C278.169 281.652 274.052 293.501 265.817 302.447C257.582 311.334 246.532 315.777 232.669 315.777C218.806 315.777 207.727 311.334 199.433 302.447C191.198 293.561 187.08 281.475 187.08 266.189V265.034ZM212.763 266.9C212.763 276.024 214.481 283.015 217.917 287.873C221.353 292.672 226.271 295.071 232.669 295.071C238.89 295.071 243.748 292.701 247.243 287.962C250.739 283.163 252.486 275.521 252.486 265.034C252.486 256.088 250.739 249.157 247.243 244.239C243.748 239.322 238.831 236.863 232.491 236.863C226.211 236.863 221.353 239.322 217.917 244.239C214.481 249.097 212.763 256.651 212.763 266.9ZM357.897 314C356.712 311.689 355.853 308.816 355.32 305.38C349.099 312.312 341.012 315.777 331.059 315.777C321.639 315.777 313.819 313.052 307.598 307.602C301.437 302.151 298.356 295.279 298.356 286.984C298.356 276.794 302.118 268.974 309.642 263.523C317.226 258.073 328.156 255.318 342.434 255.259H354.254V249.749C354.254 245.306 353.098 241.751 350.788 239.085C348.537 236.419 344.952 235.086 340.035 235.086C335.71 235.086 332.303 236.123 329.815 238.196C327.386 240.27 326.172 243.114 326.172 246.728H300.489C300.489 241.159 302.207 236.004 305.643 231.265C309.079 226.525 313.938 222.822 320.217 220.156C326.497 217.431 333.548 216.068 341.368 216.068C353.217 216.068 362.607 219.06 369.539 225.044C376.53 230.968 380.025 239.322 380.025 250.104V291.783C380.084 300.907 381.358 307.809 383.846 312.489V314H357.897ZM336.658 296.138C340.45 296.138 343.945 295.308 347.144 293.649C350.343 291.931 352.713 289.65 354.254 286.807V270.277H344.656C331.8 270.277 324.957 274.721 324.128 283.607L324.039 285.118C324.039 288.317 325.164 290.954 327.416 293.027C329.667 295.101 332.748 296.138 336.658 296.138ZM494.5 266.812C494.5 281.623 491.123 293.501 484.369 302.447C477.675 311.334 468.61 315.777 457.176 315.777C447.46 315.777 439.61 312.4 433.626 305.646V350.969H407.944V217.846H431.76L432.649 227.266C438.869 219.801 446.986 216.068 456.998 216.068C468.847 216.068 478.06 220.452 484.636 229.221C491.212 237.989 494.5 250.075 494.5 265.479V266.812ZM468.818 264.945C468.818 255.999 467.218 249.097 464.019 244.239C460.879 239.381 456.287 236.952 450.244 236.952C442.187 236.952 436.648 240.033 433.626 246.194V285.562C436.766 291.902 442.365 295.071 450.422 295.071C462.686 295.071 468.818 285.029 468.818 264.945ZM618.306 184.609V269.833C618.306 283.993 613.863 295.19 604.976 303.425C596.149 311.66 584.063 315.777 568.719 315.777C553.611 315.777 541.614 311.778 532.727 303.78C523.841 295.782 519.308 284.792 519.131 270.811V184.609H545.791V270.011C545.791 278.483 547.805 284.674 551.834 288.584C555.922 292.435 561.55 294.36 568.719 294.36C583.708 294.36 591.32 286.481 591.557 270.722V184.609H618.306ZM676.706 314H650.046V184.609H676.706V314Z" fill="white"/>
</g>
</svg>
