<svg width="750" height="422" viewBox="0 0 750 422" fill="none" xmlns="http://www.w3.org/2000/svg">
<g id="soapui">
<rect width="750" height="421.875" fill="#6DB33F"/>
<path id="MOCK REST APIS WITH" d="M67.9566 102.961L73.6177 118.945L79.2486 102.961H85.2124V125H80.6563V118.976L81.1104 108.577L75.1617 125H72.0435L66.1099 108.592L66.564 118.976V125H62.023V102.961H67.9566ZM122.937 114.48C122.937 116.65 122.553 118.552 121.786 120.187C121.019 121.821 119.92 123.083 118.487 123.971C117.064 124.859 115.429 125.303 113.582 125.303C111.756 125.303 110.126 124.864 108.693 123.986C107.26 123.108 106.15 121.857 105.363 120.232C104.576 118.597 104.177 116.72 104.167 114.601V113.511C104.167 111.342 104.556 109.434 105.333 107.79C106.12 106.135 107.225 104.868 108.648 103.99C110.081 103.102 111.715 102.658 113.552 102.658C115.389 102.658 117.018 103.102 118.441 103.99C119.874 104.868 120.979 106.135 121.756 107.79C122.543 109.434 122.937 111.337 122.937 113.496V114.48ZM118.335 113.481C118.335 111.17 117.921 109.414 117.094 108.213C116.267 107.013 115.086 106.412 113.552 106.412C112.028 106.412 110.853 107.007 110.025 108.198C109.198 109.379 108.779 111.115 108.769 113.405V114.48C108.769 116.73 109.183 118.476 110.01 119.717C110.837 120.958 112.028 121.579 113.582 121.579C115.106 121.579 116.277 120.984 117.094 119.793C117.911 118.592 118.325 116.846 118.335 114.556V113.481ZM159.193 117.659C159.021 120.03 158.143 121.897 156.559 123.259C154.985 124.622 152.906 125.303 150.323 125.303C147.497 125.303 145.272 124.354 143.647 122.457C142.033 120.55 141.226 117.936 141.226 114.616V113.269C141.226 111.15 141.599 109.283 142.346 107.668C143.092 106.054 144.157 104.818 145.54 103.96C146.932 103.092 148.547 102.658 150.383 102.658C152.926 102.658 154.975 103.339 156.529 104.702C158.083 106.064 158.981 107.976 159.223 110.438H154.682C154.571 109.016 154.172 107.986 153.486 107.351C152.81 106.705 151.776 106.382 150.383 106.382C148.87 106.382 147.734 106.927 146.978 108.017C146.231 109.096 145.847 110.777 145.827 113.057V114.722C145.827 117.104 146.185 118.844 146.902 119.944C147.628 121.044 148.769 121.594 150.323 121.594C151.725 121.594 152.77 121.276 153.456 120.641C154.152 119.995 154.551 119.001 154.652 117.659H159.193ZM184.732 116.16L182.371 118.703V125H177.83V102.961H182.371V112.951L184.369 110.211L189.985 102.961H195.57L187.744 112.754L195.797 125H190.393L184.732 116.16ZM244.696 116.932H241.078V125H236.537V102.961H244.726C247.33 102.961 249.338 103.541 250.751 104.702C252.163 105.862 252.87 107.502 252.87 109.621C252.87 111.125 252.542 112.381 251.886 113.39C251.24 114.389 250.256 115.186 248.934 115.782L253.702 124.788V125H248.828L244.696 116.932ZM241.078 113.254H244.741C245.882 113.254 246.765 112.966 247.39 112.391C248.016 111.806 248.329 111.004 248.329 109.984C248.329 108.945 248.031 108.128 247.436 107.532C246.85 106.937 245.947 106.639 244.726 106.639H241.078V113.254ZM285.251 115.449H276.532V121.352H286.764V125H271.991V102.961H286.734V106.639H276.532V111.892H285.251V115.449ZM316.512 119.218C316.512 118.36 316.209 117.704 315.604 117.25C314.998 116.786 313.908 116.301 312.334 115.797C310.76 115.282 309.514 114.778 308.595 114.283C306.093 112.931 304.841 111.11 304.841 108.819C304.841 107.628 305.174 106.569 305.84 105.64C306.516 104.702 307.48 103.97 308.732 103.445C309.993 102.921 311.406 102.658 312.97 102.658C314.544 102.658 315.947 102.946 317.178 103.521C318.409 104.086 319.363 104.888 320.039 105.928C320.725 106.967 321.068 108.148 321.068 109.47H316.527C316.527 108.461 316.209 107.679 315.573 107.124C314.938 106.558 314.044 106.276 312.894 106.276C311.784 106.276 310.921 106.513 310.306 106.987C309.69 107.451 309.382 108.067 309.382 108.834C309.382 109.55 309.741 110.151 310.457 110.635C311.184 111.12 312.248 111.574 313.651 111.998C316.234 112.775 318.116 113.738 319.297 114.889C320.478 116.039 321.068 117.472 321.068 119.188C321.068 121.095 320.346 122.593 318.903 123.683C317.46 124.763 315.518 125.303 313.076 125.303C311.38 125.303 309.836 124.995 308.444 124.379C307.051 123.754 305.987 122.901 305.25 121.821C304.523 120.742 304.16 119.49 304.16 118.067H308.716C308.716 120.499 310.169 121.715 313.076 121.715C314.155 121.715 314.998 121.498 315.604 121.064C316.209 120.62 316.512 120.005 316.512 119.218ZM356.401 106.639H349.65V125H345.109V106.639H338.449V102.961H356.401V106.639ZM409.568 120.459H401.606L400.092 125H395.264L403.468 102.961H407.676L415.926 125H411.097L409.568 120.459ZM402.832 116.781H408.342L405.572 108.531L402.832 116.781ZM438.18 117.235V125H433.639V102.961H442.237C443.892 102.961 445.345 103.264 446.596 103.869C447.858 104.475 448.826 105.337 449.502 106.458C450.178 107.568 450.517 108.834 450.517 110.257C450.517 112.416 449.775 114.122 448.291 115.373C446.818 116.614 444.775 117.235 442.161 117.235H438.18ZM438.18 113.557H442.237C443.438 113.557 444.351 113.274 444.977 112.709C445.612 112.144 445.93 111.337 445.93 110.287C445.93 109.207 445.612 108.334 444.977 107.668C444.341 107.002 443.463 106.659 442.343 106.639H438.18V113.557ZM474.133 125H469.592V102.961H474.133V125ZM505.44 119.218C505.44 118.36 505.137 117.704 504.532 117.25C503.926 116.786 502.836 116.301 501.262 115.797C499.688 115.282 498.442 114.778 497.523 114.283C495.021 112.931 493.769 111.11 493.769 108.819C493.769 107.628 494.102 106.569 494.768 105.64C495.445 104.702 496.408 103.97 497.66 103.445C498.921 102.921 500.334 102.658 501.898 102.658C503.472 102.658 504.875 102.946 506.106 103.521C507.337 104.086 508.291 104.888 508.967 105.928C509.653 106.967 509.996 108.148 509.996 109.47H505.455C505.455 108.461 505.137 107.679 504.501 107.124C503.866 106.558 502.973 106.276 501.822 106.276C500.712 106.276 499.849 106.513 499.234 106.987C498.618 107.451 498.31 108.067 498.31 108.834C498.31 109.55 498.669 110.151 499.385 110.635C500.112 111.12 501.176 111.574 502.579 111.998C505.162 112.775 507.044 113.738 508.225 114.889C509.406 116.039 509.996 117.472 509.996 119.188C509.996 121.095 509.274 122.593 507.831 123.683C506.388 124.763 504.446 125.303 502.004 125.303C500.308 125.303 498.765 124.995 497.372 124.379C495.979 123.754 494.915 122.901 494.178 121.821C493.452 120.742 493.088 119.49 493.088 118.067H497.644C497.644 120.499 499.098 121.715 502.004 121.715C503.084 121.715 503.926 121.498 504.532 121.064C505.137 120.62 505.44 120.005 505.44 119.218ZM569.279 118.643L572.245 102.961H576.771L571.882 125H567.311L563.723 110.257L560.136 125H555.565L550.676 102.961H555.201L558.183 118.612L561.816 102.961H565.661L569.279 118.643ZM599.722 125H595.181V102.961H599.722V125ZM635.736 106.639H628.985V125H624.444V106.639H617.784V102.961H635.736V106.639ZM671.932 125H667.391V115.555H658.536V125H653.995V102.961H658.536V111.892H667.391V102.961H671.932V125Z" fill="white"/>
<path id="SoapUI" d="M138.7 249.053C138.7 244.017 136.922 240.166 133.368 237.5C129.813 234.775 123.415 231.931 114.172 228.969C104.93 225.947 97.6135 222.985 92.2223 220.082C77.5296 212.143 70.1832 201.45 70.1832 188.001C70.1832 181.01 72.1383 174.789 76.0484 169.339C80.0178 163.829 85.6757 159.534 93.0221 156.453C100.428 153.372 108.722 151.832 117.905 151.832C127.147 151.832 135.382 153.521 142.61 156.897C149.838 160.215 155.436 164.925 159.406 171.027C163.434 177.13 165.449 184.061 165.449 191.822H138.789C138.789 185.898 136.922 181.306 133.19 178.048C129.458 174.73 124.214 173.071 117.461 173.071C110.944 173.071 105.878 174.464 102.264 177.248C98.6503 179.973 96.8434 183.587 96.8434 188.09C96.8434 192.296 98.9465 195.821 103.153 198.665C107.419 201.509 113.669 204.175 121.904 206.663C137.071 211.225 148.12 216.883 155.051 223.637C161.983 230.391 165.449 238.803 165.449 248.875C165.449 260.072 161.213 268.87 152.741 275.269C144.269 281.608 132.864 284.777 118.527 284.777C108.574 284.777 99.5094 282.97 91.3336 279.356C83.1578 275.683 76.9075 270.677 72.5826 264.338C68.317 257.999 66.1842 250.652 66.1842 242.299H92.9332C92.9332 256.577 101.464 263.716 118.527 263.716C124.866 263.716 129.813 262.442 133.368 259.895C136.922 257.288 138.7 253.674 138.7 249.053ZM186.08 234.034C186.08 224.496 187.917 215.994 191.59 208.529C195.263 201.064 200.536 195.288 207.408 191.2C214.34 187.112 222.368 185.068 231.491 185.068C244.466 185.068 255.041 189.038 263.217 196.977C271.452 204.915 276.043 215.698 276.991 229.324L277.169 235.9C277.169 250.652 273.052 262.501 264.817 271.447C256.582 280.334 245.532 284.777 231.669 284.777C217.806 284.777 206.727 280.334 198.433 271.447C190.198 262.561 186.08 250.475 186.08 235.189V234.034ZM211.763 235.9C211.763 245.024 213.481 252.015 216.917 256.873C220.353 261.672 225.271 264.071 231.669 264.071C237.89 264.071 242.748 261.701 246.243 256.962C249.739 252.163 251.486 244.521 251.486 234.034C251.486 225.088 249.739 218.157 246.243 213.239C242.748 208.322 237.831 205.863 231.491 205.863C225.211 205.863 220.353 208.322 216.917 213.239C213.481 218.097 211.763 225.651 211.763 235.9ZM356.897 283C355.712 280.689 354.853 277.816 354.32 274.38C348.099 281.312 340.012 284.777 330.059 284.777C320.639 284.777 312.819 282.052 306.598 276.602C300.437 271.151 297.356 264.279 297.356 255.984C297.356 245.794 301.118 237.974 308.642 232.523C316.226 227.073 327.156 224.318 341.434 224.259H353.254V218.749C353.254 214.306 352.098 210.751 349.788 208.085C347.537 205.419 343.952 204.086 339.035 204.086C334.71 204.086 331.303 205.123 328.815 207.196C326.386 209.27 325.172 212.114 325.172 215.728H299.489C299.489 210.159 301.207 205.004 304.643 200.265C308.079 195.525 312.938 191.822 319.217 189.156C325.497 186.431 332.548 185.068 340.368 185.068C352.217 185.068 361.607 188.06 368.539 194.044C375.53 199.968 379.025 208.322 379.025 219.104V260.783C379.084 269.907 380.358 276.809 382.846 281.489V283H356.897ZM335.658 265.138C339.45 265.138 342.945 264.308 346.144 262.649C349.343 260.931 351.713 258.65 353.254 255.807V239.277H343.656C330.8 239.277 323.957 243.721 323.128 252.607L323.039 254.118C323.039 257.317 324.164 259.954 326.416 262.027C328.667 264.101 331.748 265.138 335.658 265.138ZM493.5 235.812C493.5 250.623 490.123 262.501 483.369 271.447C476.675 280.334 467.61 284.777 456.176 284.777C446.46 284.777 438.61 281.4 432.626 274.646V319.969H406.944V186.846H430.76L431.649 196.266C437.869 188.801 445.986 185.068 455.998 185.068C467.847 185.068 477.06 189.452 483.636 198.221C490.212 206.989 493.5 219.075 493.5 234.479V235.812ZM467.818 233.945C467.818 224.999 466.218 218.097 463.019 213.239C459.879 208.381 455.287 205.952 449.244 205.952C441.187 205.952 435.648 209.033 432.626 215.194V254.562C435.766 260.902 441.365 264.071 449.422 264.071C461.686 264.071 467.818 254.029 467.818 233.945ZM617.306 153.609V238.833C617.306 252.993 612.863 264.19 603.976 272.425C595.149 280.66 583.063 284.777 567.719 284.777C552.611 284.777 540.614 280.778 531.727 272.78C522.841 264.782 518.308 253.792 518.131 239.811V153.609H544.791V239.011C544.791 247.483 546.805 253.674 550.834 257.584C554.922 261.435 560.55 263.36 567.719 263.36C582.708 263.36 590.32 255.481 590.557 239.722V153.609H617.306ZM675.706 283H649.046V153.609H675.706V283Z" fill="white"/>
</g>
</svg>
