<svg width="750" height="422" viewBox="0 0 750 422" fill="none" xmlns="http://www.w3.org/2000/svg">
<g id="spring-boot-service">
<rect width="750" height="421.875" fill="#26374B"/>
<g id="Frame 6">
<path id="Spring Boot" d="M122.248 201.345C122.248 198.577 121.271 196.46 119.317 194.995C117.364 193.497 113.847 191.934 108.767 190.306C103.688 188.645 99.6664 187.017 96.7033 185.422C88.628 181.059 84.5903 175.181 84.5903 167.79C84.5903 163.947 85.6649 160.528 87.8139 157.533C89.9956 154.504 93.1052 152.144 97.1429 150.451C101.213 148.757 105.772 147.911 110.819 147.911C115.898 147.911 120.425 148.839 124.397 150.695C128.37 152.518 131.447 155.107 133.628 158.461C135.842 161.815 136.95 165.624 136.95 169.89H122.297C122.297 166.634 121.271 164.11 119.22 162.319C117.168 160.496 114.287 159.584 110.575 159.584C106.993 159.584 104.209 160.349 102.223 161.88C100.236 163.378 99.2431 165.364 99.2431 167.838C99.2431 170.15 100.399 172.088 102.711 173.651C105.055 175.214 108.491 176.679 113.017 178.047C121.353 180.554 127.425 183.663 131.235 187.376C135.045 191.088 136.95 195.711 136.95 201.247C136.95 207.401 134.621 212.236 129.965 215.753C125.309 219.237 119.041 220.979 111.161 220.979C105.69 220.979 100.708 219.986 96.2149 218C91.7214 215.981 88.2861 213.23 85.9091 209.745C83.5646 206.261 82.3924 202.224 82.3924 197.632H97.094C97.094 205.48 101.783 209.404 111.161 209.404C114.645 209.404 117.364 208.703 119.317 207.303C121.271 205.871 122.248 203.884 122.248 201.345ZM198.059 194.067C198.059 202.207 196.203 208.736 192.491 213.653C188.812 218.537 183.83 220.979 177.546 220.979C172.205 220.979 167.891 219.123 164.602 215.411V240.321H150.487V167.155H163.577L164.065 172.332C167.484 168.229 171.945 166.178 177.448 166.178C183.96 166.178 189.024 168.587 192.638 173.407C196.252 178.226 198.059 184.868 198.059 193.334V194.067ZM183.944 193.041C183.944 188.124 183.065 184.331 181.306 181.661C179.581 178.991 177.057 177.656 173.736 177.656C169.307 177.656 166.263 179.349 164.602 182.735V204.373C166.328 207.857 169.405 209.599 173.834 209.599C180.574 209.599 183.944 204.08 183.944 193.041ZM241.049 180.391C239.128 180.131 237.434 180 235.969 180C230.629 180 227.129 181.807 225.468 185.422V220.002H211.352V167.155H224.687L225.077 173.455C227.91 168.604 231.834 166.178 236.848 166.178C238.411 166.178 239.877 166.389 241.244 166.813L241.049 180.391ZM267.285 220.002H253.121V167.155H267.285V220.002ZM252.29 153.479C252.29 151.362 252.99 149.62 254.391 148.253C255.823 146.885 257.761 146.201 260.203 146.201C262.612 146.201 264.534 146.885 265.966 148.253C267.399 149.62 268.115 151.362 268.115 153.479C268.115 155.628 267.383 157.386 265.917 158.754C264.485 160.121 262.58 160.805 260.203 160.805C257.826 160.805 255.905 160.121 254.439 158.754C253.007 157.386 252.29 155.628 252.29 153.479ZM296.452 167.155L296.892 173.26C300.669 168.539 305.732 166.178 312.082 166.178C317.682 166.178 321.85 167.822 324.585 171.111C327.32 174.4 328.721 179.316 328.786 185.861V220.002H314.67V186.203C314.67 183.208 314.019 181.042 312.717 179.707C311.414 178.34 309.249 177.656 306.22 177.656C302.248 177.656 299.269 179.349 297.282 182.735V220.002H283.167V167.155H296.452ZM341.981 193.188C341.981 185.08 343.902 178.551 347.744 173.602C351.619 168.653 356.829 166.178 363.374 166.178C369.17 166.178 373.68 168.164 376.903 172.137L377.49 167.155H390.286V218.244C390.286 222.868 389.228 226.889 387.112 230.308C385.028 233.727 382.081 236.332 378.271 238.123C374.461 239.914 370 240.809 364.888 240.809C361.013 240.809 357.236 240.028 353.557 238.465C349.877 236.934 347.093 234.948 345.205 232.506L351.457 223.91C354.973 227.85 359.239 229.82 364.253 229.82C367.998 229.82 370.912 228.81 372.996 226.791C375.08 224.805 376.122 221.972 376.122 218.293V215.46C372.866 219.139 368.584 220.979 363.276 220.979C356.927 220.979 351.782 218.505 347.842 213.555C343.935 208.573 341.981 201.979 341.981 193.774V193.188ZM356.097 194.213C356.097 199 357.057 202.761 358.978 205.496C360.899 208.199 363.537 209.55 366.891 209.55C371.189 209.55 374.266 207.938 376.122 204.715V182.491C374.233 179.268 371.189 177.656 366.988 177.656C363.602 177.656 360.932 179.04 358.978 181.807C357.057 184.575 356.097 188.711 356.097 194.213ZM436.019 220.002V148.888H460.928C469.557 148.888 476.102 150.548 480.563 153.87C485.024 157.158 487.255 161.994 487.255 168.376C487.255 171.86 486.359 174.937 484.568 177.607C482.777 180.245 480.286 182.182 477.095 183.419C480.742 184.331 483.608 186.171 485.692 188.938C487.808 191.706 488.866 195.093 488.866 199.098C488.866 205.936 486.685 211.113 482.321 214.63C477.958 218.146 471.739 219.937 463.664 220.002H436.019ZM450.671 189.036V208.231H463.224C466.676 208.231 469.362 207.417 471.283 205.789C473.237 204.129 474.214 201.849 474.214 198.951C474.214 192.439 470.843 189.134 464.103 189.036H450.671ZM450.671 178.682H461.514C468.906 178.551 472.602 175.604 472.602 169.841C472.602 166.617 471.657 164.306 469.769 162.905C467.913 161.473 464.966 160.756 460.928 160.756H450.671V178.682ZM501.28 193.09C501.28 187.848 502.29 183.175 504.308 179.072C506.327 174.97 509.225 171.795 513.002 169.548C516.812 167.301 521.224 166.178 526.239 166.178C533.37 166.178 539.182 168.359 543.676 172.723C548.202 177.086 550.725 183.012 551.246 190.501L551.344 194.116C551.344 202.224 549.081 208.736 544.555 213.653C540.029 218.537 533.956 220.979 526.336 220.979C518.717 220.979 512.628 218.537 508.069 213.653C503.543 208.769 501.28 202.126 501.28 193.725V193.09ZM515.396 194.116C515.396 199.13 516.34 202.973 518.229 205.643C520.117 208.28 522.82 209.599 526.336 209.599C529.755 209.599 532.425 208.296 534.347 205.691C536.268 203.054 537.228 198.854 537.228 193.09C537.228 188.173 536.268 184.364 534.347 181.661C532.425 178.958 529.723 177.607 526.239 177.607C522.787 177.607 520.117 178.958 518.229 181.661C516.34 184.331 515.396 188.483 515.396 194.116ZM562.341 193.09C562.341 187.848 563.351 183.175 565.369 179.072C567.388 174.97 570.286 171.795 574.063 169.548C577.873 167.301 582.285 166.178 587.3 166.178C594.431 166.178 600.243 168.359 604.737 172.723C609.263 177.086 611.786 183.012 612.307 190.501L612.405 194.116C612.405 202.224 610.142 208.736 605.616 213.653C601.09 218.537 595.017 220.979 587.397 220.979C579.778 220.979 573.689 218.537 569.13 213.653C564.604 208.769 562.341 202.126 562.341 193.725V193.09ZM576.457 194.116C576.457 199.13 577.401 202.973 579.29 205.643C581.178 208.28 583.881 209.599 587.397 209.599C590.816 209.599 593.487 208.296 595.408 205.691C597.329 203.054 598.289 198.854 598.289 193.09C598.289 188.173 597.329 184.364 595.408 181.661C593.487 178.958 590.784 177.607 587.3 177.607C583.848 177.607 581.178 178.958 579.29 181.661C577.401 184.331 576.457 188.483 576.457 194.116ZM642.5 154.163V167.155H651.536V177.509H642.5V203.884C642.5 205.838 642.874 207.238 643.623 208.085C644.372 208.931 645.805 209.355 647.921 209.355C649.484 209.355 650.868 209.241 652.073 209.013V219.709C649.305 220.556 646.456 220.979 643.525 220.979C633.627 220.979 628.58 215.981 628.384 205.985V177.509H620.667V167.155H628.384V154.163H642.5Z" fill="#6DB33F"/>
</g>
<path id="REST API WITH" d="M99.1295 102.93H95.5107V111H90.9684V88.9544H99.1597C101.764 88.9544 103.773 89.5348 105.186 90.6956C106.599 91.8565 107.306 93.4968 107.306 95.6165C107.306 97.1206 106.978 98.3773 106.322 99.3867C105.676 100.386 104.691 101.183 103.369 101.779L108.138 110.788V111H103.263L99.1295 102.93ZM95.5107 99.2504H99.1749C100.316 99.2504 101.199 98.9627 101.825 98.3874C102.45 97.8019 102.763 96.9994 102.763 95.9799C102.763 94.9402 102.466 94.1226 101.87 93.527C101.285 92.9315 100.381 92.6337 99.1597 92.6337H95.5107V99.2504ZM135.82 101.446H127.099V107.351H137.334V111H122.557V88.9544H137.304V92.6337H127.099V97.8877H135.82V101.446ZM163.214 105.216C163.214 104.358 162.911 103.702 162.306 103.248C161.7 102.783 160.61 102.299 159.035 101.794C157.461 101.279 156.214 100.775 155.295 100.28C152.792 98.9274 151.54 97.1054 151.54 94.8141C151.54 93.6229 151.874 92.5631 152.54 91.6344C153.216 90.6956 154.18 89.9638 155.432 89.4389C156.694 88.914 158.107 88.6516 159.671 88.6516C161.246 88.6516 162.649 88.9393 163.881 89.5146C165.112 90.0799 166.066 90.8824 166.742 91.9221C167.429 92.9618 167.772 94.1428 167.772 95.4651H163.229C163.229 94.4557 162.911 93.6734 162.276 93.1182C161.64 92.553 160.746 92.2703 159.596 92.2703C158.485 92.2703 157.622 92.5075 157.006 92.982C156.391 93.4463 156.083 94.062 156.083 94.8292C156.083 95.5459 156.441 96.1465 157.158 96.631C157.885 97.1155 158.95 97.5698 160.353 97.9937C162.937 98.771 164.819 99.7349 166 100.886C167.181 102.036 167.772 103.47 167.772 105.186C167.772 107.094 167.05 108.593 165.607 109.683C164.163 110.763 162.22 111.303 159.777 111.303C158.081 111.303 156.537 110.995 155.144 110.379C153.751 109.753 152.686 108.9 151.949 107.82C151.222 106.74 150.859 105.489 150.859 104.065H155.417C155.417 106.498 156.87 107.714 159.777 107.714C160.857 107.714 161.7 107.497 162.306 107.063C162.911 106.619 163.214 106.003 163.214 105.216ZM199.239 92.6337H192.486V111H187.944V92.6337H181.281V88.9544H199.239V92.6337ZM244.67 106.458H236.705L235.191 111H230.361L238.568 88.9544H242.777L251.029 111H246.199L244.67 106.458ZM237.932 102.778H243.443L240.672 94.5264L237.932 102.778ZM269.414 103.233V111H264.872V88.9544H273.472C275.127 88.9544 276.581 89.2572 277.833 89.8629C279.094 90.4685 280.063 91.3316 280.74 92.452C281.416 93.5624 281.754 94.8292 281.754 96.2525C281.754 98.4126 281.012 100.119 279.528 101.37C278.055 102.612 276.011 103.233 273.396 103.233H269.414ZM269.414 99.5532H273.472C274.673 99.5532 275.587 99.2706 276.213 98.7053C276.848 98.1401 277.166 97.3325 277.166 96.2827C277.166 95.2027 276.848 94.3295 276.213 93.6633C275.577 92.9971 274.698 92.6539 273.578 92.6337H269.414V99.5532ZM301.502 111H296.96V88.9544H301.502V111ZM354.185 104.641L357.153 88.9544H361.68L356.79 111H352.217L348.629 96.2525L345.04 111H340.468L335.577 88.9544H340.104L343.087 104.61L346.721 88.9544H350.567L354.185 104.641ZM380.762 111H376.22V88.9544H380.762V111ZM412.91 92.6337H406.157V111H401.615V92.6337H394.953V88.9544H412.91V92.6337ZM445.24 111H440.698V101.552H431.84V111H427.298V88.9544H431.84V97.8877H440.698V88.9544H445.24V111Z" fill="white"/>
<g id="Frame 5">
<path id="IMPLEMENTING THE SERVICE" d="M95.1054 289H91.7234V263.354H95.1054V289ZM112.167 263.354L120.552 284.279L128.936 263.354H133.322V289H129.94V279.013L130.257 268.233L121.838 289H119.248L110.846 268.286L111.181 279.013V289H107.799V263.354H112.167ZM149.169 278.96V289H145.787V263.354H155.245C158.052 263.354 160.248 264.07 161.833 265.503C163.43 266.935 164.229 268.832 164.229 271.192C164.229 273.681 163.448 275.601 161.886 276.952C160.336 278.291 158.111 278.96 155.21 278.96H149.169ZM149.169 276.194H155.245C157.054 276.194 158.44 275.772 159.402 274.926C160.365 274.069 160.847 272.836 160.847 271.227C160.847 269.701 160.365 268.479 159.402 267.563C158.44 266.647 157.118 266.172 155.439 266.137H149.169V276.194ZM178.437 286.235H190.591V289H175.038V263.354H178.437V286.235ZM215.438 277.146H204.324V286.235H217.235V289H200.942V263.354H217.059V266.137H204.324V274.38H215.438V277.146ZM232.307 263.354L240.691 284.279L249.075 263.354H253.461V289H250.079V279.013L250.396 268.233L241.977 289H239.388L230.986 268.286L231.32 279.013V289H227.938V263.354H232.307ZM280.423 277.146H269.308V286.235H282.219V289H265.926V263.354H282.043V266.137H269.308V274.38H280.423V277.146ZM312.633 289H309.233L296.322 269.237V289H292.922V263.354H296.322L309.268 283.205V263.354H312.633V289ZM342.324 266.137H334.081V289H330.716V266.137H322.49V263.354H342.324V266.137ZM356.251 289H352.869V263.354H356.251V289ZM388.655 289H385.255L372.344 269.237V289H368.944V263.354H372.344L385.29 283.205V263.354H388.655V289ZM420.09 285.636C419.221 286.88 418.005 287.814 416.444 288.436C414.894 289.047 413.085 289.352 411.018 289.352C408.928 289.352 407.073 288.865 405.452 287.89C403.832 286.904 402.575 285.506 401.683 283.698C400.802 281.89 400.35 279.794 400.327 277.41V275.173C400.327 271.309 401.225 268.315 403.022 266.189C404.83 264.064 407.366 263.001 410.631 263.001C413.308 263.001 415.463 263.688 417.095 265.062C418.728 266.424 419.726 268.362 420.09 270.875H416.708C416.074 267.481 414.054 265.784 410.649 265.784C408.382 265.784 406.662 266.583 405.488 268.18C404.325 269.765 403.738 272.067 403.726 275.085V277.181C403.726 280.058 404.384 282.348 405.699 284.05C407.014 285.741 408.793 286.587 411.036 286.587C412.304 286.587 413.414 286.446 414.365 286.164C415.316 285.882 416.103 285.407 416.725 284.737V278.977H410.789V276.23H420.09V285.636ZM464.694 266.137H456.451V289H453.086V266.137H444.86V263.354H464.694V266.137ZM494.703 289H491.303V277.146H478.374V289H474.992V263.354H478.374V274.38H491.303V263.354H494.703V289ZM521.699 277.146H510.584V286.235H523.496V289H507.202V263.354H523.319V266.137H510.584V274.38H521.699V277.146ZM99.0333 319.568C96.1329 318.735 94.0191 317.713 92.6922 316.503C91.377 315.282 90.7194 313.779 90.7194 311.994C90.7194 309.974 91.5238 308.307 93.1326 306.992C94.7531 305.665 96.855 305.001 99.4385 305.001C101.2 305.001 102.768 305.342 104.141 306.023C105.527 306.704 106.596 307.643 107.347 308.841C108.111 310.039 108.492 311.348 108.492 312.769H105.093C105.093 311.219 104.599 310.004 103.613 309.123C102.627 308.231 101.235 307.784 99.4385 307.784C97.771 307.784 96.4675 308.154 95.5281 308.894C94.6004 309.622 94.1366 310.638 94.1366 311.941C94.1366 312.986 94.5769 313.873 95.4576 314.601C96.3501 315.317 97.8591 315.975 99.9845 316.574C102.122 317.173 103.789 317.836 104.987 318.564C106.196 319.281 107.089 320.12 107.664 321.083C108.251 322.046 108.545 323.179 108.545 324.483C108.545 326.561 107.735 328.229 106.114 329.485C104.494 330.73 102.327 331.352 99.6146 331.352C97.8532 331.352 96.2092 331.018 94.6826 330.348C93.156 329.667 91.9759 328.739 91.1421 327.565C90.3201 326.391 89.9091 325.058 89.9091 323.567H93.3087C93.3087 325.117 93.8782 326.344 95.0173 327.248C96.1681 328.141 97.7005 328.587 99.6146 328.587C101.4 328.587 102.768 328.223 103.719 327.495C104.67 326.767 105.146 325.774 105.146 324.518C105.146 323.261 104.705 322.293 103.824 321.612C102.944 320.919 101.347 320.238 99.0333 319.568ZM133.886 319.146H122.771V328.235H135.682V331H119.389V305.354H135.506V308.137H122.771V316.38H133.886V319.146ZM155.792 320.625H149.767V331H146.368V305.354H154.858C157.747 305.354 159.966 306.011 161.516 307.326C163.078 308.642 163.859 310.556 163.859 313.069C163.859 314.666 163.424 316.057 162.555 317.243C161.698 318.429 160.5 319.316 158.962 319.903L164.986 330.789V331H161.358L155.792 320.625ZM149.767 317.86H154.964C156.643 317.86 157.976 317.425 158.962 316.556C159.96 315.687 160.459 314.525 160.459 313.069C160.459 311.483 159.984 310.268 159.033 309.422C158.093 308.577 156.731 308.148 154.946 308.137H149.767V317.86ZM183.246 326.508L190.573 305.354H194.272L184.761 331H181.766L172.272 305.354H175.954L183.246 326.508ZM207.847 331H204.465V305.354H207.847V331ZM239.405 322.862C239.088 325.575 238.084 327.671 236.393 329.15C234.714 330.618 232.477 331.352 229.682 331.352C226.652 331.352 224.222 330.266 222.39 328.094C220.57 325.921 219.66 323.015 219.66 319.375V316.909C219.66 314.525 220.082 312.429 220.928 310.62C221.785 308.812 222.995 307.426 224.556 306.463C226.118 305.489 227.927 305.001 229.982 305.001C232.706 305.001 234.89 305.765 236.534 307.291C238.178 308.806 239.135 310.908 239.405 313.597H236.006C235.712 311.554 235.072 310.074 234.086 309.158C233.111 308.242 231.743 307.784 229.982 307.784C227.821 307.784 226.124 308.583 224.891 310.18C223.67 311.777 223.059 314.049 223.059 316.997V319.48C223.059 322.263 223.64 324.477 224.803 326.121C225.965 327.765 227.592 328.587 229.682 328.587C231.561 328.587 232.999 328.164 233.998 327.319C235.007 326.461 235.677 324.976 236.006 322.862H239.405ZM265.028 319.146H253.913V328.235H266.824V331H250.531V305.354H266.648V308.137H253.913V316.38H265.028V319.146Z" fill="white"/>
</g>
</g>
</svg>
