<svg width="750" height="422" viewBox="0 0 750 422" fill="none" xmlns="http://www.w3.org/2000/svg">
<g id="springinitializr-setup">
<rect width="750" height="421.875" fill="#364F6B"/>
<g id="spring-ini 2">
<g id="Group">
<path id="Vector" d="M164.736 165.136L146.873 134.11C145.335 131.441 141.49 129.187 138.414 129.187H102.688C99.6121 129.187 95.7674 131.381 94.2295 134.11L76.3663 165.136C74.8284 167.805 74.8284 172.254 76.3663 174.924L94.2295 205.949C95.7674 208.619 99.6121 210.873 102.688 210.873H138.414C141.49 210.873 145.335 208.678 146.873 205.949L164.736 174.924C166.333 172.195 166.333 167.805 164.736 165.136Z" fill="#6DB33F"/>
<g id="Group_2">
<path id="Vector_2" d="M95.7086 199.958C97.7013 199.958 99.3167 198.338 99.3167 196.339C99.3167 194.341 97.7013 192.72 95.7086 192.72C93.7159 192.72 92.1005 194.341 92.1005 196.339C92.1005 198.338 93.7159 199.958 95.7086 199.958Z" fill="white"/>
</g>
<g id="Group_3">
<path id="Vector_3" d="M156.218 185.78C145.748 199.78 123.39 195.034 109.076 195.746C109.076 195.746 106.532 195.864 103.989 196.28C103.989 196.28 104.935 195.864 106.177 195.449C116.233 191.949 120.965 191.237 127.116 188.093C138.591 182.22 150.007 169.347 152.373 156C147.996 168.813 134.688 179.907 122.621 184.356C114.34 187.441 99.3752 190.407 99.3752 190.407L98.7837 190.11C88.4917 185.186 88.196 163 106.71 155.881C114.813 152.737 122.621 154.458 131.375 152.381C140.721 150.127 151.545 143.127 155.981 133.932C160.891 148.644 166.806 171.602 156.218 185.78Z" fill="white"/>
<path id="Vector_4" d="M155.981 133.932C160.891 148.644 166.865 171.602 156.218 185.78C149.652 194.559 138.414 195.983 127.412 195.983C122.207 195.983 117.061 195.687 112.506 195.687C111.323 195.687 110.2 195.687 109.135 195.746C109.135 195.746 106.591 195.864 104.048 196.28C104.048 196.28 104.994 195.864 106.237 195.449C116.292 191.949 121.024 191.237 127.175 188.093C138.65 182.22 150.066 169.348 152.432 156C148.055 168.814 134.747 179.907 122.68 184.356C114.399 187.441 99.4344 190.407 99.4344 190.407L98.8429 190.11C88.4917 185.187 88.196 163 106.71 155.881C114.813 152.737 122.621 154.458 131.375 152.381C140.721 150.187 151.545 143.127 155.981 133.932ZM156.277 129.246L154.384 133.161C149.948 142.415 139.124 148.703 130.961 150.661C127.294 151.551 123.686 151.729 120.255 151.907C115.7 152.144 110.969 152.381 106.118 154.22C94.7024 158.61 90.3253 168.22 90.0296 175.754C89.7338 182.932 92.8096 189.161 97.8373 191.712C98.1331 191.89 98.7837 192.246 99.3161 192.246H100.085L100.203 192.127C103.634 191.415 115.878 188.805 123.212 186.136C128.299 184.237 134.037 181.034 139.242 176.763C135.397 180.856 130.902 184.297 126.347 186.61C122.621 188.509 119.427 189.517 114.991 190.881C112.388 191.653 109.371 192.602 105.704 193.848C104.403 194.263 103.457 194.737 103.397 194.737L102.096 197.407L104.403 198.119C106.828 197.703 109.253 197.585 109.312 197.585C110.318 197.526 111.383 197.525 112.566 197.525C114.754 197.525 117.061 197.585 119.486 197.703C122.089 197.763 124.75 197.881 127.471 197.881C138.414 197.881 150.54 196.576 157.697 186.966C166.037 175.814 166.096 158.314 157.756 133.458L156.277 129.246Z" fill="#6CCA00"/>
</g>
</g>
<g id="Group_4">
<g id="Group_5">
<path id="Vector_5" d="M188.809 186.254C187.922 185.78 187.33 184.771 187.33 183.466C187.33 181.687 188.75 180.203 190.584 180.203C191.234 180.203 191.826 180.441 192.299 180.678C195.67 182.932 199.219 184.059 202.354 184.059C205.785 184.059 207.796 182.576 207.796 180.263V180.085C207.796 177.297 204.07 176.407 199.988 175.161C194.842 173.678 189.046 171.602 189.046 164.898V164.72C189.046 158.076 194.547 154.042 201.467 154.042C205.193 154.042 209.038 155.11 212.469 156.89C213.593 157.483 214.421 158.551 214.421 159.975C214.421 161.814 212.942 163.237 211.049 163.237C210.399 163.237 209.985 163.059 209.511 162.881C206.672 161.398 203.774 160.509 201.349 160.509C198.214 160.509 196.439 161.992 196.439 163.949V164.127C196.439 166.737 200.225 167.805 204.306 169.11C209.452 170.653 215.19 173.085 215.19 179.314V179.492C215.19 186.848 209.452 190.526 202.236 190.526C197.622 190.407 192.831 188.983 188.809 186.254Z" fill="#6DB33F"/>
<path id="Vector_6" d="M218.088 158.136C218.088 155.881 219.803 154.102 222.051 154.102C224.299 154.102 226.073 155.881 226.073 158.136V160.509C228.676 156.831 232.343 153.924 237.962 153.924C246.125 153.924 254.169 160.39 254.169 172.136V172.314C254.169 183.941 246.184 190.526 237.962 190.526C232.166 190.526 228.498 187.619 226.073 184.356V196.754C226.073 199.009 224.299 200.788 222.051 200.788C219.922 200.788 218.088 199.068 218.088 196.754V158.136V158.136ZM246.125 172.314V172.136C246.125 165.373 241.57 160.924 236.188 160.924C230.746 160.924 226.014 165.492 226.014 172.136V172.314C226.014 179.017 230.746 183.526 236.188 183.526C241.57 183.585 246.125 179.254 246.125 172.314Z" fill="#6DB33F"/>
<path id="Vector_7" d="M257.245 158.136C257.245 155.881 258.96 154.102 261.208 154.102C263.456 154.102 265.23 155.881 265.23 158.136V160.093C265.585 157.127 270.494 154.102 273.984 154.102C276.528 154.102 277.947 155.763 277.947 158.076C277.947 160.153 276.528 161.576 274.753 161.932C269.016 162.881 265.171 167.924 265.171 174.805V186.373C265.171 188.509 263.396 190.348 261.149 190.348C259.019 190.348 257.186 188.627 257.186 186.373V158.136H257.245Z" fill="#6DB33F"/>
<path id="Vector_8" d="M281.141 158.195C281.141 155.941 282.857 154.161 285.104 154.161C287.352 154.161 289.127 155.941 289.127 158.195V186.432C289.127 188.687 287.352 190.407 285.104 190.407C282.975 190.407 281.141 188.687 281.141 186.432V158.195Z" fill="#6DB33F"/>
<path id="Vector_9" d="M293.208 158.195C293.208 155.941 294.923 154.161 297.171 154.161C299.419 154.161 301.193 155.941 301.193 158.195V159.856C303.441 156.593 306.694 154.102 312.136 154.102C320.003 154.102 324.557 159.381 324.557 167.509V186.373C324.557 188.627 322.842 190.348 320.594 190.348C318.347 190.348 316.572 188.627 316.572 186.373V170C316.572 164.542 313.91 161.398 309.06 161.398C304.446 161.398 301.193 164.661 301.193 170.119V186.432C301.193 188.687 299.419 190.407 297.171 190.407C295.042 190.407 293.208 188.687 293.208 186.432V158.195Z" fill="#6DB33F"/>
<path id="Vector_10" d="M359.751 154.042C357.503 154.042 355.729 155.822 355.729 158.076V160.449C353.126 156.771 349.459 153.865 343.84 153.865C335.677 153.865 327.633 160.331 327.633 172.076V172.254C327.633 183.881 335.618 190.466 343.84 190.466C349.636 190.466 353.304 187.559 355.729 184.356C355.374 190.703 351.47 193.966 344.727 193.966C340.705 193.966 337.215 193.017 334.021 191.178C333.666 190.941 333.134 190.881 332.601 190.881C330.768 190.881 329.171 192.365 329.171 194.144C329.171 195.687 330.058 196.814 331.418 197.348C335.677 199.424 340.054 200.492 344.964 200.492C351.293 200.492 356.202 199.009 359.337 195.805C362.235 192.898 363.773 188.509 363.773 182.636V158.136C363.714 155.822 361.939 154.042 359.751 154.042ZM345.673 183.466C340.172 183.466 335.736 179.136 335.736 172.195V172.017C335.736 165.254 340.291 160.805 345.673 160.805C351.115 160.805 355.847 165.373 355.847 172.017V172.195C355.906 178.958 351.174 183.466 345.673 183.466Z" fill="#6DB33F"/>
<path id="Vector_11" d="M289.186 144.492C289.186 146.746 287.411 148.526 285.163 148.526C282.916 148.526 281.141 146.746 281.141 144.492C281.141 142.237 282.916 140.458 285.163 140.458C287.293 140.398 289.186 142.178 289.186 144.492Z" fill="#6DB33F"/>
</g>
</g>
<g id="Group_6">
<path id="Vector_12" d="M387.434 144.136C387.434 141.525 389.563 139.331 392.284 139.331C394.946 139.331 397.075 141.585 397.075 144.136C397.075 146.746 394.946 149 392.284 149C389.622 149.059 387.434 146.746 387.434 144.136ZM388.025 154.517H396.543V190.585H388.025V154.517Z" fill="white"/>
<path id="Vector_13" d="M438.894 167.627V190.585H430.672V169.288C430.672 164.424 427.537 160.924 423.101 160.924C418.665 160.924 414.939 163.949 414.406 167.746V190.585H405.889V154.517H414.406V159.322C416.654 156 420.794 153.686 425.526 153.686C433.393 153.627 438.894 159.441 438.894 167.627Z" fill="white"/>
<path id="Vector_14" d="M447.529 144.136C447.529 141.525 449.659 139.331 452.38 139.331C455.041 139.331 457.171 141.585 457.171 144.136C457.171 146.746 455.041 149 452.38 149C449.659 149.059 447.529 146.746 447.529 144.136ZM448.062 154.517H456.579V190.585H448.062V154.517Z" fill="white"/>
<path id="Vector_15" d="M486.332 188.568C484.321 190.288 481.363 191.415 478.701 191.415C472.727 191.415 468.528 187.085 468.528 181.034V161.517H463.323V154.517H468.528V144.551H476.809V154.458H484.971V161.517H476.809V179.966C476.809 182.398 478.347 184.178 480.358 184.178C481.836 184.178 483.138 183.644 483.907 182.873L486.332 188.568Z" fill="white"/>
<path id="Vector_16" d="M492.424 144.136C492.424 141.525 494.553 139.331 497.274 139.331C499.936 139.331 502.065 141.585 502.065 144.136C502.065 146.746 499.936 149 497.274 149C494.553 149.059 492.424 146.746 492.424 144.136ZM492.956 154.517H501.474V190.585H492.956V154.517Z" fill="white"/>
<path id="Vector_17" d="M541.991 168.873V190.585H533.71V186.254C531.049 189.576 526.553 191.415 522.354 191.415C514.723 191.415 508.927 186.907 508.927 179.907C508.927 172.788 515.551 167.924 523.596 167.924C526.849 167.924 530.398 168.636 533.71 169.881V168.932C533.71 164.72 531.404 160.686 524.897 160.686C521.466 160.686 518.213 161.873 515.137 163.415L512.239 157.483C517.326 154.992 522.058 153.686 526.553 153.686C536.076 153.627 541.991 159.737 541.991 168.873ZM533.71 179.254V175.22C531.049 174.331 528.091 173.797 524.897 173.797C520.638 173.797 517.267 176.17 517.267 179.61C517.267 183.051 520.283 185.186 524.306 185.186C528.328 185.186 532.705 183.11 533.71 179.254Z" fill="white"/>
<path id="Vector_18" d="M551.16 141.763H559.677V190.585H551.16V141.763Z" fill="white"/>
<path id="Vector_19" d="M568.49 144.136C568.49 141.525 570.619 139.331 573.34 139.331C576.002 139.331 578.131 141.585 578.131 144.136C578.131 146.746 576.002 149 573.34 149C570.619 149.059 568.49 146.746 568.49 144.136ZM569.022 154.517H577.54V190.585H569.022V154.517Z" fill="white"/>
<path id="Vector_20" d="M585.467 184.356L604.572 161.932H585.94V154.517H615.81L615.751 160.746L596.587 183.17H615.929V190.644H585.526V184.356H585.467Z" fill="white"/>
<path id="Vector_21" d="M645.148 153.627V160.864C637.4 160.864 632.254 165.492 632.254 172.314V190.526H623.736V154.517H632.254V161.517C634.56 156.653 639.233 153.627 645.148 153.627Z" fill="white"/>
</g>
</g>
<path id="SPRING BOOT PROJECT SET UP" d="M91.4209 276.912C91.4209 275.861 91.0498 275.057 90.3076 274.5C89.5654 273.931 88.2295 273.337 86.2998 272.719C84.3701 272.088 82.8424 271.469 81.7168 270.863C78.6491 269.206 77.1152 266.973 77.1152 264.165C77.1152 262.705 77.5234 261.407 78.3398 260.269C79.1686 259.118 80.3499 258.221 81.8838 257.578C83.43 256.935 85.1618 256.613 87.0791 256.613C89.0088 256.613 90.7282 256.966 92.2373 257.671C93.7464 258.364 94.9154 259.347 95.7441 260.621C96.5853 261.895 97.0059 263.342 97.0059 264.963H91.4395C91.4395 263.726 91.0498 262.767 90.2705 262.087C89.4912 261.394 88.3965 261.048 86.9863 261.048C85.6257 261.048 84.568 261.339 83.8135 261.92C83.0589 262.489 82.6816 263.243 82.6816 264.184C82.6816 265.062 83.1208 265.798 83.999 266.392C84.8896 266.985 86.1947 267.542 87.9141 268.062C91.0807 269.014 93.3877 270.195 94.835 271.605C96.2822 273.016 97.0059 274.772 97.0059 276.875C97.0059 279.213 96.1214 281.05 94.3525 282.386C92.5837 283.709 90.2025 284.371 87.209 284.371C85.1309 284.371 83.2383 283.994 81.5312 283.239C79.8242 282.472 78.5192 281.427 77.6162 280.104C76.7256 278.78 76.2803 277.246 76.2803 275.502H81.8652C81.8652 278.483 83.6465 279.974 87.209 279.974C88.5326 279.974 89.5654 279.708 90.3076 279.176C91.0498 278.632 91.4209 277.877 91.4209 276.912ZM107.687 274.481V284H102.121V256.984H112.66C114.689 256.984 116.47 257.355 118.004 258.098C119.55 258.84 120.738 259.897 121.566 261.271C122.395 262.631 122.809 264.184 122.809 265.928C122.809 268.575 121.9 270.665 120.082 272.199C118.276 273.721 115.771 274.481 112.567 274.481H107.687ZM107.687 269.973H112.66C114.132 269.973 115.252 269.626 116.018 268.934C116.798 268.241 117.187 267.251 117.187 265.965C117.187 264.641 116.798 263.571 116.018 262.755C115.239 261.938 114.163 261.518 112.79 261.493H107.687V269.973ZM137.981 274.11H133.547V284H127.98V256.984H138.018C141.21 256.984 143.671 257.696 145.403 259.118C147.135 260.541 148.001 262.551 148.001 265.148C148.001 266.992 147.599 268.532 146.795 269.769C146.003 270.993 144.797 271.97 143.177 272.7L149.021 283.74V284H143.047L137.981 274.11ZM133.547 269.602H138.037C139.435 269.602 140.517 269.249 141.284 268.544C142.051 267.826 142.434 266.843 142.434 265.594C142.434 264.32 142.07 263.318 141.34 262.588C140.622 261.858 139.515 261.493 138.018 261.493H133.547V269.602ZM159.499 284H153.932V256.984H159.499V284ZM187.974 284H182.408L171.572 266.225V284H166.006V256.984H171.572L182.426 274.797V256.984H187.974V284ZM215.541 280.586C214.539 281.786 213.122 282.72 211.292 283.388C209.461 284.043 207.432 284.371 205.206 284.371C202.868 284.371 200.814 283.864 199.046 282.85C197.289 281.823 195.928 280.339 194.963 278.396C194.011 276.454 193.522 274.172 193.498 271.55V269.713C193.498 267.016 193.949 264.685 194.852 262.718C195.768 260.739 197.079 259.229 198.786 258.19C200.505 257.139 202.515 256.613 204.816 256.613C208.02 256.613 210.525 257.38 212.331 258.914C214.137 260.436 215.207 262.656 215.541 265.575H210.123C209.875 264.029 209.325 262.897 208.471 262.18C207.63 261.462 206.467 261.104 204.983 261.104C203.09 261.104 201.649 261.815 200.66 263.237C199.67 264.66 199.169 266.775 199.157 269.583V271.309C199.157 274.141 199.695 276.281 200.771 277.729C201.847 279.176 203.424 279.899 205.503 279.899C207.593 279.899 209.084 279.454 209.974 278.563V273.906H204.909V269.806H215.541V280.586ZM232.191 284V256.984H241.654C244.932 256.984 247.418 257.615 249.113 258.877C250.807 260.126 251.655 261.963 251.655 264.388C251.655 265.711 251.315 266.88 250.634 267.895C249.954 268.896 249.008 269.632 247.795 270.103C249.181 270.449 250.269 271.148 251.061 272.199C251.865 273.251 252.267 274.537 252.267 276.059C252.267 278.656 251.438 280.623 249.781 281.959C248.123 283.295 245.761 283.975 242.693 284H232.191ZM237.757 272.236V279.528H242.526C243.837 279.528 244.858 279.219 245.587 278.601C246.33 277.97 246.701 277.104 246.701 276.003C246.701 273.529 245.42 272.273 242.86 272.236H237.757ZM237.757 268.303H241.876C244.684 268.253 246.088 267.134 246.088 264.944C246.088 263.72 245.73 262.841 245.012 262.31C244.307 261.765 243.188 261.493 241.654 261.493H237.757V268.303ZM279.982 271.104C279.982 273.764 279.512 276.096 278.572 278.1C277.632 280.104 276.283 281.65 274.527 282.738C272.783 283.827 270.779 284.371 268.515 284.371C266.276 284.371 264.278 283.833 262.522 282.757C260.765 281.681 259.405 280.147 258.44 278.155C257.475 276.151 256.986 273.851 256.974 271.253V269.917C256.974 267.257 257.45 264.92 258.403 262.903C259.368 260.875 260.722 259.322 262.466 258.246C264.223 257.158 266.227 256.613 268.478 256.613C270.729 256.613 272.727 257.158 274.471 258.246C276.228 259.322 277.582 260.875 278.535 262.903C279.499 264.92 279.982 267.251 279.982 269.898V271.104ZM274.341 269.88C274.341 267.047 273.834 264.895 272.82 263.423C271.805 261.951 270.358 261.215 268.478 261.215C266.61 261.215 265.169 261.945 264.155 263.404C263.14 264.852 262.627 266.979 262.615 269.787V271.104C262.615 273.863 263.122 276.003 264.136 277.524C265.15 279.046 266.61 279.807 268.515 279.807C270.383 279.807 271.818 279.077 272.82 277.617C273.822 276.145 274.329 274.005 274.341 271.197V269.88ZM307.548 271.104C307.548 273.764 307.078 276.096 306.138 278.1C305.198 280.104 303.85 281.65 302.093 282.738C300.349 283.827 298.345 284.371 296.081 284.371C293.842 284.371 291.845 283.833 290.088 282.757C288.332 281.681 286.971 280.147 286.006 278.155C285.041 276.151 284.553 273.851 284.54 271.253V269.917C284.54 267.257 285.017 264.92 285.969 262.903C286.934 260.875 288.288 259.322 290.033 258.246C291.789 257.158 293.793 256.613 296.044 256.613C298.296 256.613 300.293 257.158 302.037 258.246C303.794 259.322 305.148 260.875 306.101 262.903C307.066 264.92 307.548 267.251 307.548 269.898V271.104ZM301.908 269.88C301.908 267.047 301.4 264.895 300.386 263.423C299.372 261.951 297.924 261.215 296.044 261.215C294.176 261.215 292.735 261.945 291.721 263.404C290.707 264.852 290.193 266.979 290.181 269.787V271.104C290.181 273.863 290.688 276.003 291.702 277.524C292.717 279.046 294.176 279.807 296.081 279.807C297.949 279.807 299.384 279.077 300.386 277.617C301.388 276.145 301.895 274.005 301.908 271.197V269.88ZM331.663 261.493H323.388V284H317.821V261.493H309.657V256.984H331.663V261.493ZM351.431 274.481V284H345.864V256.984H356.403C358.432 256.984 360.213 257.355 361.747 258.098C363.293 258.84 364.481 259.897 365.31 261.271C366.138 262.631 366.553 264.184 366.553 265.928C366.553 268.575 365.644 270.665 363.825 272.199C362.019 273.721 359.514 274.481 356.311 274.481H351.431ZM351.431 269.973H356.403C357.875 269.973 358.995 269.626 359.762 268.934C360.541 268.241 360.931 267.251 360.931 265.965C360.931 264.641 360.541 263.571 359.762 262.755C358.982 261.938 357.906 261.518 356.533 261.493H351.431V269.973ZM381.725 274.11H377.29V284H371.724V256.984H381.762C384.953 256.984 387.415 257.696 389.146 259.118C390.878 260.541 391.744 262.551 391.744 265.148C391.744 266.992 391.342 268.532 390.538 269.769C389.746 270.993 388.54 271.97 386.92 272.7L392.765 283.74V284H386.79L381.725 274.11ZM377.29 269.602H381.78C383.178 269.602 384.26 269.249 385.027 268.544C385.794 267.826 386.178 266.843 386.178 265.594C386.178 264.32 385.813 263.318 385.083 262.588C384.366 261.858 383.258 261.493 381.762 261.493H377.29V269.602ZM419.515 271.104C419.515 273.764 419.044 276.096 418.104 278.1C417.164 280.104 415.816 281.65 414.059 282.738C412.315 283.827 410.311 284.371 408.048 284.371C405.809 284.371 403.811 283.833 402.055 282.757C400.298 281.681 398.937 280.147 397.973 278.155C397.008 276.151 396.519 273.851 396.507 271.253V269.917C396.507 267.257 396.983 264.92 397.935 262.903C398.9 260.875 400.255 259.322 401.999 258.246C403.755 257.158 405.759 256.613 408.011 256.613C410.262 256.613 412.26 257.158 414.004 258.246C415.76 259.322 417.115 260.875 418.067 262.903C419.032 264.92 419.515 267.251 419.515 269.898V271.104ZM413.874 269.88C413.874 267.047 413.367 264.895 412.352 263.423C411.338 261.951 409.891 261.215 408.011 261.215C406.143 261.215 404.702 261.945 403.687 263.404C402.673 264.852 402.16 266.979 402.147 269.787V271.104C402.147 273.863 402.655 276.003 403.669 277.524C404.683 279.046 406.143 279.807 408.048 279.807C409.916 279.807 411.35 279.077 412.352 277.617C413.354 276.145 413.862 274.005 413.874 271.197V269.88ZM435.781 256.984H441.347V275.688C441.347 277.407 440.964 278.928 440.197 280.252C439.443 281.563 438.373 282.577 436.987 283.295C435.602 284.012 434.037 284.371 432.293 284.371C429.435 284.371 427.209 283.647 425.613 282.2C424.017 280.741 423.22 278.681 423.22 276.021H428.823C428.823 277.345 429.101 278.322 429.658 278.953C430.215 279.584 431.093 279.899 432.293 279.899C433.357 279.899 434.204 279.535 434.835 278.805C435.466 278.075 435.781 277.036 435.781 275.688V256.984ZM463.7 272.292H453.012V279.528H465.555V284H447.446V256.984H465.518V261.493H453.012V267.932H463.7V272.292ZM491.359 275.001C491.149 277.908 490.073 280.196 488.131 281.866C486.201 283.536 483.653 284.371 480.486 284.371C477.022 284.371 474.295 283.208 472.303 280.883C470.324 278.545 469.335 275.341 469.335 271.271V269.62C469.335 267.022 469.792 264.734 470.708 262.755C471.623 260.776 472.928 259.26 474.623 258.209C476.33 257.145 478.309 256.613 480.56 256.613C483.677 256.613 486.188 257.448 488.093 259.118C489.998 260.788 491.099 263.132 491.396 266.15H485.83C485.694 264.406 485.205 263.145 484.364 262.365C483.535 261.574 482.267 261.178 480.56 261.178C478.705 261.178 477.313 261.846 476.385 263.182C475.47 264.505 475 266.565 474.975 269.36V271.401C474.975 274.321 475.414 276.454 476.293 277.803C477.183 279.151 478.581 279.825 480.486 279.825C482.205 279.825 483.486 279.436 484.327 278.656C485.18 277.865 485.669 276.646 485.793 275.001H491.359ZM516.124 261.493H507.848V284H502.282V261.493H494.118V256.984H516.124V261.493ZM544.333 276.912C544.333 275.861 543.962 275.057 543.22 274.5C542.478 273.931 541.142 273.337 539.212 272.719C537.283 272.088 535.755 271.469 534.629 270.863C531.562 269.206 530.028 266.973 530.028 264.165C530.028 262.705 530.436 261.407 531.252 260.269C532.081 259.118 533.262 258.221 534.796 257.578C536.343 256.935 538.074 256.613 539.992 256.613C541.921 256.613 543.641 256.966 545.15 257.671C546.659 258.364 547.828 259.347 548.657 260.621C549.498 261.895 549.918 263.342 549.918 264.963H544.352C544.352 263.726 543.962 262.767 543.183 262.087C542.404 261.394 541.309 261.048 539.899 261.048C538.538 261.048 537.481 261.339 536.726 261.92C535.971 262.489 535.594 263.243 535.594 264.184C535.594 265.062 536.033 265.798 536.912 266.392C537.802 266.985 539.107 267.542 540.827 268.062C543.993 269.014 546.3 270.195 547.747 271.605C549.195 273.016 549.918 274.772 549.918 276.875C549.918 279.213 549.034 281.05 547.265 282.386C545.496 283.709 543.115 284.371 540.121 284.371C538.043 284.371 536.151 283.994 534.444 283.239C532.737 282.472 531.432 281.427 530.529 280.104C529.638 278.78 529.193 277.246 529.193 275.502H534.778C534.778 278.483 536.559 279.974 540.121 279.974C541.445 279.974 542.478 279.708 543.22 279.176C543.962 278.632 544.333 277.877 544.333 276.912ZM571.287 272.292H560.6V279.528H573.143V284H555.034V256.984H573.106V261.493H560.6V267.932H571.287V272.292ZM598.446 261.493H590.17V284H584.604V261.493H576.44V256.984H598.446V261.493ZM633.094 256.984V274.778C633.094 277.735 632.166 280.073 630.311 281.792C628.468 283.511 625.944 284.371 622.74 284.371C619.586 284.371 617.081 283.536 615.226 281.866C613.37 280.196 612.424 277.902 612.387 274.982V256.984H617.953V274.815C617.953 276.584 618.374 277.877 619.215 278.693C620.068 279.497 621.244 279.899 622.74 279.899C625.87 279.899 627.459 278.254 627.509 274.964V256.984H633.094ZM644.555 274.481V284H638.988V256.984H649.527C651.556 256.984 653.337 257.355 654.871 258.098C656.417 258.84 657.605 259.897 658.434 261.271C659.262 262.631 659.677 264.184 659.677 265.928C659.677 268.575 658.768 270.665 656.949 272.199C655.143 273.721 652.638 274.481 649.435 274.481H644.555ZM644.555 269.973H649.527C650.999 269.973 652.119 269.626 652.886 268.934C653.665 268.241 654.055 267.251 654.055 265.965C654.055 264.641 653.665 263.571 652.886 262.755C652.106 261.938 651.03 261.518 649.657 261.493H644.555V269.973Z" fill="white"/>
</g>
</svg>
