<svg width="750" height="422" viewBox="0 0 750 422" fill="none" xmlns="http://www.w3.org/2000/svg">
<g id="spring-boot-controller1">
<rect width="750" height="421.875" fill="#26374B"/>
<g id="Frame 6">
<path id="Spring Boot" d="M130.248 201.344C130.248 198.577 129.271 196.46 127.317 194.995C125.364 193.497 121.847 191.934 116.767 190.306C111.688 188.645 107.666 187.017 104.703 185.422C96.628 181.058 92.5903 175.181 92.5903 167.79C92.5903 163.947 93.6649 160.528 95.8139 157.533C97.9956 154.504 101.105 152.144 105.143 150.45C109.213 148.757 113.772 147.911 118.819 147.911C123.898 147.911 128.425 148.839 132.397 150.695C136.37 152.518 139.447 155.107 141.628 158.461C143.842 161.815 144.95 165.624 144.95 169.89H130.297C130.297 166.634 129.271 164.11 127.22 162.319C125.168 160.496 122.287 159.584 118.575 159.584C114.993 159.584 112.209 160.349 110.223 161.88C108.236 163.377 107.243 165.364 107.243 167.838C107.243 170.15 108.399 172.088 110.711 173.651C113.055 175.214 116.491 176.679 121.017 178.047C129.353 180.554 135.425 183.663 139.235 187.375C143.045 191.088 144.95 195.711 144.95 201.247C144.95 207.401 142.621 212.236 137.965 215.753C133.309 219.237 127.041 220.979 119.161 220.979C113.69 220.979 108.708 219.986 104.215 218C99.7214 215.981 96.2861 213.229 93.9091 209.745C91.5646 206.261 90.3924 202.224 90.3924 197.632H105.094C105.094 205.48 109.783 209.403 119.161 209.403C122.645 209.403 125.364 208.703 127.317 207.303C129.271 205.871 130.248 203.884 130.248 201.344ZM206.059 194.067C206.059 202.207 204.203 208.736 200.491 213.653C196.812 218.537 191.83 220.979 185.546 220.979C180.205 220.979 175.891 219.123 172.602 215.411V240.321H158.487V167.155H171.577L172.065 172.332C175.484 168.229 179.945 166.178 185.448 166.178C191.96 166.178 197.024 168.587 200.638 173.406C204.252 178.226 206.059 184.868 206.059 193.334V194.067ZM191.944 193.041C191.944 188.124 191.065 184.331 189.306 181.661C187.581 178.991 185.057 177.656 181.736 177.656C177.307 177.656 174.263 179.349 172.602 182.735V204.373C174.328 207.857 177.405 209.599 181.834 209.599C188.574 209.599 191.944 204.08 191.944 193.041ZM249.049 180.391C247.128 180.13 245.434 180 243.969 180C238.629 180 235.129 181.807 233.468 185.422V220.002H219.352V167.155H232.687L233.077 173.455C235.91 168.604 239.834 166.178 244.848 166.178C246.411 166.178 247.877 166.389 249.244 166.813L249.049 180.391ZM275.285 220.002H261.121V167.155H275.285V220.002ZM260.29 153.479C260.29 151.362 260.99 149.62 262.391 148.253C263.823 146.885 265.761 146.201 268.203 146.201C270.612 146.201 272.534 146.885 273.966 148.253C275.399 149.62 276.115 151.362 276.115 153.479C276.115 155.628 275.383 157.386 273.917 158.754C272.485 160.121 270.58 160.805 268.203 160.805C265.826 160.805 263.905 160.121 262.439 158.754C261.007 157.386 260.29 155.628 260.29 153.479ZM304.452 167.155L304.892 173.26C308.669 168.539 313.732 166.178 320.082 166.178C325.682 166.178 329.85 167.822 332.585 171.111C335.32 174.4 336.721 179.316 336.786 185.861V220.002H322.67V186.203C322.67 183.208 322.019 181.042 320.717 179.707C319.414 178.34 317.249 177.656 314.22 177.656C310.248 177.656 307.269 179.349 305.282 182.735V220.002H291.167V167.155H304.452ZM349.981 193.188C349.981 185.08 351.902 178.551 355.744 173.602C359.619 168.652 364.829 166.178 371.374 166.178C377.17 166.178 381.68 168.164 384.903 172.137L385.49 167.155H398.286V218.244C398.286 222.868 397.228 226.889 395.112 230.308C393.028 233.727 390.081 236.332 386.271 238.123C382.461 239.914 378 240.809 372.888 240.809C369.013 240.809 365.236 240.028 361.557 238.465C357.877 236.934 355.093 234.948 353.205 232.506L359.457 223.91C362.973 227.85 367.239 229.82 372.253 229.82C375.998 229.82 378.912 228.81 380.996 226.791C383.08 224.805 384.122 221.972 384.122 218.293V215.46C380.866 219.139 376.584 220.979 371.276 220.979C364.927 220.979 359.782 218.504 355.842 213.555C351.935 208.573 349.981 201.979 349.981 193.774V193.188ZM364.097 194.213C364.097 199 365.057 202.761 366.978 205.496C368.899 208.199 371.537 209.55 374.891 209.55C379.189 209.55 382.266 207.938 384.122 204.715V182.491C382.233 179.268 379.189 177.656 374.988 177.656C371.602 177.656 368.932 179.04 366.978 181.807C365.057 184.575 364.097 188.71 364.097 194.213ZM444.019 220.002V148.888H468.928C477.557 148.888 484.102 150.548 488.563 153.869C493.024 157.158 495.255 161.994 495.255 168.376C495.255 171.86 494.359 174.937 492.568 177.607C490.777 180.244 488.286 182.182 485.095 183.419C488.742 184.331 491.608 186.171 493.692 188.938C495.808 191.706 496.866 195.093 496.866 199.098C496.866 205.936 494.685 211.113 490.321 214.63C485.958 218.146 479.739 219.937 471.664 220.002H444.019ZM458.671 189.036V208.231H471.224C474.676 208.231 477.362 207.417 479.283 205.789C481.237 204.128 482.214 201.849 482.214 198.951C482.214 192.439 478.843 189.134 472.103 189.036H458.671ZM458.671 178.681H469.514C476.906 178.551 480.602 175.604 480.602 169.841C480.602 166.617 479.657 164.305 477.769 162.905C475.913 161.473 472.966 160.756 468.928 160.756H458.671V178.681ZM509.28 193.09C509.28 187.848 510.29 183.175 512.308 179.072C514.327 174.969 517.225 171.795 521.002 169.548C524.812 167.301 529.224 166.178 534.239 166.178C541.37 166.178 547.182 168.359 551.676 172.723C556.202 177.086 558.725 183.012 559.246 190.501L559.344 194.116C559.344 202.224 557.081 208.736 552.555 213.653C548.029 218.537 541.956 220.979 534.336 220.979C526.717 220.979 520.628 218.537 516.069 213.653C511.543 208.769 509.28 202.126 509.28 193.725V193.09ZM523.396 194.116C523.396 199.13 524.34 202.973 526.229 205.643C528.117 208.28 530.82 209.599 534.336 209.599C537.755 209.599 540.425 208.296 542.347 205.691C544.268 203.054 545.228 198.853 545.228 193.09C545.228 188.173 544.268 184.364 542.347 181.661C540.425 178.958 537.723 177.607 534.239 177.607C530.787 177.607 528.117 178.958 526.229 181.661C524.34 184.331 523.396 188.483 523.396 194.116ZM570.341 193.09C570.341 187.848 571.351 183.175 573.369 179.072C575.388 174.969 578.286 171.795 582.063 169.548C585.873 167.301 590.285 166.178 595.3 166.178C602.431 166.178 608.243 168.359 612.737 172.723C617.263 177.086 619.786 183.012 620.307 190.501L620.405 194.116C620.405 202.224 618.142 208.736 613.616 213.653C609.09 218.537 603.017 220.979 595.397 220.979C587.778 220.979 581.689 218.537 577.13 213.653C572.604 208.769 570.341 202.126 570.341 193.725V193.09ZM584.457 194.116C584.457 199.13 585.401 202.973 587.29 205.643C589.178 208.28 591.881 209.599 595.397 209.599C598.816 209.599 601.487 208.296 603.408 205.691C605.329 203.054 606.289 198.853 606.289 193.09C606.289 188.173 605.329 184.364 603.408 181.661C601.487 178.958 598.784 177.607 595.3 177.607C591.848 177.607 589.178 178.958 587.29 181.661C585.401 184.331 584.457 188.483 584.457 194.116ZM650.5 154.163V167.155H659.536V177.509H650.5V203.884C650.5 205.838 650.874 207.238 651.623 208.085C652.372 208.931 653.805 209.355 655.921 209.355C657.484 209.355 658.868 209.241 660.073 209.013V219.709C657.305 220.556 654.456 220.979 651.525 220.979C641.627 220.979 636.58 215.981 636.384 205.984V177.509H628.667V167.155H636.384V154.163H650.5Z" fill="#6DB33F"/>
</g>
<path id="REST API WITH" d="M107.129 102.93H103.511V111H98.9684V88.9544H107.16C109.764 88.9544 111.773 89.5348 113.186 90.6956C114.599 91.8565 115.306 93.4968 115.306 95.6165C115.306 97.1206 114.978 98.3773 114.322 99.3867C113.676 100.386 112.691 101.183 111.369 101.779L116.138 110.788V111H111.263L107.129 102.93ZM103.511 99.2504H107.175C108.316 99.2504 109.199 98.9627 109.825 98.3874C110.45 97.8019 110.763 96.9994 110.763 95.9799C110.763 94.9402 110.466 94.1226 109.87 93.527C109.285 92.9315 108.381 92.6337 107.16 92.6337H103.511V99.2504ZM143.82 101.446H135.099V107.351H145.334V111H130.557V88.9544H145.304V92.6337H135.099V97.8877H143.82V101.446ZM171.214 105.216C171.214 104.358 170.911 103.702 170.306 103.248C169.7 102.783 168.61 102.299 167.035 101.794C165.461 101.279 164.214 100.775 163.295 100.28C160.792 98.9274 159.54 97.1054 159.54 94.8141C159.54 93.6229 159.874 92.5631 160.54 91.6344C161.216 90.6956 162.18 89.9638 163.432 89.4389C164.694 88.914 166.107 88.6516 167.671 88.6516C169.246 88.6516 170.649 88.9393 171.881 89.5146C173.112 90.0799 174.066 90.8824 174.742 91.9221C175.429 92.9618 175.772 94.1428 175.772 95.4651H171.229C171.229 94.4557 170.911 93.6734 170.276 93.1182C169.64 92.553 168.746 92.2703 167.596 92.2703C166.485 92.2703 165.622 92.5075 165.006 92.982C164.391 93.4463 164.083 94.062 164.083 94.8292C164.083 95.5459 164.441 96.1465 165.158 96.631C165.885 97.1155 166.95 97.5698 168.353 97.9937C170.937 98.771 172.819 99.7349 174 100.886C175.181 102.036 175.772 103.47 175.772 105.186C175.772 107.094 175.05 108.593 173.607 109.683C172.163 110.763 170.22 111.303 167.777 111.303C166.081 111.303 164.537 110.995 163.144 110.379C161.751 109.753 160.686 108.9 159.949 107.82C159.222 106.74 158.859 105.489 158.859 104.065H163.417C163.417 106.498 164.87 107.714 167.777 107.714C168.857 107.714 169.7 107.497 170.306 107.063C170.911 106.619 171.214 106.003 171.214 105.216ZM207.239 92.6337H200.486V111H195.944V92.6337H189.281V88.9544H207.239V92.6337ZM252.67 106.458H244.705L243.191 111H238.361L246.568 88.9544H250.777L259.029 111H254.199L252.67 106.458ZM245.932 102.778H251.443L248.672 94.5264L245.932 102.778ZM277.414 103.233V111H272.872V88.9544H281.472C283.127 88.9544 284.581 89.2572 285.833 89.8629C287.094 90.4685 288.063 91.3316 288.74 92.452C289.416 93.5624 289.754 94.8292 289.754 96.2525C289.754 98.4126 289.012 100.119 287.528 101.37C286.055 102.612 284.011 103.233 281.396 103.233H277.414ZM277.414 99.5532H281.472C282.673 99.5532 283.587 99.2706 284.213 98.7053C284.848 98.1401 285.166 97.3325 285.166 96.2827C285.166 95.2027 284.848 94.3295 284.213 93.6633C283.577 92.9971 282.698 92.6539 281.578 92.6337H277.414V99.5532ZM309.502 111H304.96V88.9544H309.502V111ZM362.185 104.641L365.153 88.9544H369.68L364.79 111H360.217L356.629 96.2525L353.04 111H348.468L343.577 88.9544H348.104L351.087 104.61L354.721 88.9544H358.567L362.185 104.641ZM388.762 111H384.22V88.9544H388.762V111ZM420.91 92.6337H414.157V111H409.615V92.6337H402.953V88.9544H420.91V92.6337ZM453.24 111H448.698V101.552H439.84V111H435.298V88.9544H439.84V97.8877H448.698V88.9544H453.24V111Z" fill="white"/>
<g id="Frame 5">
<path id="IMPLEMENTING THE CONTROLLER" d="M103.105 289H99.7234V263.354H103.105V289ZM120.167 263.354L128.552 284.279L136.936 263.354H141.322V289H137.94V279.013L138.257 268.233L129.838 289H127.248L118.846 268.286L119.181 279.013V289H115.799V263.354H120.167ZM157.169 278.96V289H153.787V263.354H163.245C166.052 263.354 168.248 264.07 169.833 265.503C171.43 266.935 172.229 268.832 172.229 271.192C172.229 273.681 171.448 275.601 169.886 276.952C168.336 278.291 166.111 278.96 163.21 278.96H157.169ZM157.169 276.194H163.245C165.054 276.194 166.44 275.772 167.402 274.926C168.365 274.069 168.847 272.836 168.847 271.227C168.847 269.701 168.365 268.479 167.402 267.563C166.44 266.647 165.118 266.172 163.439 266.137H157.169V276.194ZM186.437 286.235H198.591V289H183.038V263.354H186.437V286.235ZM223.438 277.146H212.324V286.235H225.235V289H208.942V263.354H225.059V266.137H212.324V274.38H223.438V277.146ZM240.307 263.354L248.691 284.279L257.075 263.354H261.461V289H258.079V279.013L258.396 268.233L249.977 289H247.388L238.986 268.286L239.32 279.013V289H235.938V263.354H240.307ZM288.423 277.146H277.308V286.235H290.219V289H273.926V263.354H290.043V266.137H277.308V274.38H288.423V277.146ZM320.633 289H317.233L304.322 269.237V289H300.922V263.354H304.322L317.268 283.205V263.354H320.633V289ZM350.324 266.137H342.081V289H338.716V266.137H330.49V263.354H350.324V266.137ZM364.251 289H360.869V263.354H364.251V289ZM396.655 289H393.255L380.344 269.237V289H376.944V263.354H380.344L393.29 283.205V263.354H396.655V289ZM428.09 285.636C427.221 286.88 426.005 287.814 424.444 288.436C422.894 289.047 421.085 289.352 419.018 289.352C416.928 289.352 415.073 288.865 413.452 287.89C411.832 286.904 410.575 285.506 409.683 283.698C408.802 281.89 408.35 279.794 408.327 277.41V275.173C408.327 271.309 409.225 268.315 411.022 266.189C412.83 264.064 415.366 263.001 418.631 263.001C421.308 263.001 423.463 263.688 425.095 265.062C426.728 266.424 427.726 268.362 428.09 270.875H424.708C424.074 267.481 422.054 265.784 418.649 265.784C416.382 265.784 414.662 266.583 413.488 268.18C412.325 269.765 411.738 272.067 411.726 275.085V277.181C411.726 280.058 412.384 282.348 413.699 284.05C415.014 285.741 416.793 286.587 419.036 286.587C420.304 286.587 421.414 286.446 422.365 286.164C423.316 285.882 424.103 285.407 424.725 284.737V278.977H418.789V276.23H428.09V285.636ZM472.694 266.137H464.451V289H461.086V266.137H452.86V263.354H472.694V266.137ZM502.703 289H499.303V277.146H486.374V289H482.992V263.354H486.374V274.38H499.303V263.354H502.703V289ZM529.699 277.146H518.584V286.235H531.496V289H515.202V263.354H531.319V266.137H518.584V274.38H529.699V277.146ZM118.342 322.862C118.025 325.575 117.021 327.671 115.33 329.15C113.65 330.618 111.413 331.352 108.619 331.352C105.589 331.352 103.158 330.266 101.326 328.094C99.5062 325.921 98.5961 323.015 98.5961 319.375V316.909C98.5961 314.525 99.0188 312.429 99.8643 310.62C100.722 308.812 101.931 307.426 103.493 306.463C105.055 305.489 106.863 305.001 108.918 305.001C111.642 305.001 113.827 305.765 115.471 307.291C117.115 308.806 118.072 310.908 118.342 313.597H114.942C114.649 311.554 114.009 310.074 113.022 309.158C112.048 308.242 110.68 307.784 108.918 307.784C106.757 307.784 105.061 308.583 103.828 310.18C102.606 311.777 101.996 314.049 101.996 316.997V319.48C101.996 322.263 102.577 324.477 103.739 326.121C104.902 327.765 106.528 328.587 108.619 328.587C110.497 328.587 111.936 328.164 112.934 327.319C113.944 326.461 114.613 324.976 114.942 322.862H118.342ZM149.196 319.005C149.196 321.518 148.773 323.714 147.927 325.592C147.082 327.46 145.884 328.886 144.334 329.873C142.784 330.859 140.976 331.352 138.909 331.352C136.889 331.352 135.098 330.859 133.537 329.873C131.975 328.875 130.759 327.46 129.89 325.628C129.033 323.784 128.593 321.653 128.569 319.234V317.384C128.569 314.918 128.998 312.74 129.855 310.849C130.712 308.959 131.922 307.514 133.484 306.516C135.057 305.506 136.854 305.001 138.874 305.001C140.929 305.001 142.737 305.5 144.299 306.499C145.872 307.485 147.082 308.923 147.927 310.814C148.773 312.693 149.196 314.883 149.196 317.384V319.005ZM145.831 317.349C145.831 314.308 145.221 311.977 143.999 310.356C142.778 308.724 141.07 307.908 138.874 307.908C136.736 307.908 135.051 308.724 133.818 310.356C132.597 311.977 131.969 314.231 131.934 317.12V319.005C131.934 321.952 132.55 324.271 133.783 325.962C135.028 327.642 136.736 328.481 138.909 328.481C141.093 328.481 142.784 327.689 143.982 326.103C145.18 324.506 145.796 322.222 145.831 319.251V317.349ZM180.472 331H177.073L164.161 311.237V331H160.762V305.354H164.161L177.108 325.205V305.354H180.472V331ZM210.164 308.137H201.92V331H198.556V308.137H190.33V305.354H210.164V308.137ZM229.868 320.625H223.844V331H220.444V305.354H228.934C231.823 305.354 234.042 306.011 235.592 307.326C237.154 308.642 237.935 310.556 237.935 313.069C237.935 314.666 237.501 316.057 236.632 317.243C235.774 318.429 234.577 319.316 233.038 319.903L239.062 330.789V331H235.434L229.868 320.625ZM223.844 317.86H229.04C230.719 317.86 232.052 317.425 233.038 316.556C234.036 315.687 234.535 314.525 234.535 313.069C234.535 311.483 234.06 310.268 233.109 309.422C232.169 308.577 230.807 308.148 229.022 308.137H223.844V317.86ZM268.912 319.005C268.912 321.518 268.489 323.714 267.644 325.592C266.799 327.46 265.601 328.886 264.051 329.873C262.501 330.859 260.692 331.352 258.625 331.352C256.606 331.352 254.815 330.859 253.253 329.873C251.691 328.875 250.476 327.46 249.607 325.628C248.75 323.784 248.309 321.653 248.286 319.234V317.384C248.286 314.918 248.715 312.74 249.572 310.849C250.429 308.959 251.638 307.514 253.2 306.516C254.774 305.506 256.57 305.001 258.59 305.001C260.645 305.001 262.454 305.5 264.015 306.499C265.589 307.485 266.799 308.923 267.644 310.814C268.489 312.693 268.912 314.883 268.912 317.384V319.005ZM265.548 317.349C265.548 314.308 264.937 311.977 263.716 310.356C262.495 308.724 260.786 307.908 258.59 307.908C256.453 307.908 254.768 308.724 253.535 310.356C252.314 311.977 251.685 314.231 251.65 317.12V319.005C251.65 321.952 252.267 324.271 253.5 325.962C254.744 327.642 256.453 328.481 258.625 328.481C260.81 328.481 262.501 327.689 263.698 326.103C264.896 324.506 265.513 322.222 265.548 319.251V317.349ZM283.878 328.235H296.032V331H280.478V305.354H283.878V328.235ZM309.782 328.235H321.936V331H306.383V305.354H309.782V328.235ZM346.784 319.146H335.669V328.235H348.58V331H332.287V305.354H348.404V308.137H335.669V316.38H346.784V319.146ZM368.689 320.625H362.665V331H359.266V305.354H367.756C370.645 305.354 372.864 306.011 374.414 307.326C375.976 308.642 376.757 310.556 376.757 313.069C376.757 314.666 376.322 316.057 375.453 317.243C374.596 318.429 373.398 319.316 371.86 319.903L377.884 330.789V331H374.256L368.689 320.625ZM362.665 317.86H367.862C369.541 317.86 370.874 317.425 371.86 316.556C372.858 315.687 373.357 314.525 373.357 313.069C373.357 311.483 372.882 310.268 371.93 309.422C370.991 308.577 369.629 308.148 367.844 308.137H362.665V317.86Z" fill="white"/>
</g>
</g>
</svg>
