<svg width="750" height="422" viewBox="0 0 750 422" fill="none" xmlns="http://www.w3.org/2000/svg">
<g id="springinitializr">
<rect width="750" height="421.875" fill="#364F6B"/>
<path id="HOW TO USE" d="M281.09 174H276.549V164.555H267.694V174H263.153V151.961H267.694V160.892H276.549V151.961H281.09V174ZM310.46 163.48C310.46 165.65 310.076 167.552 309.309 169.187C308.542 170.821 307.442 172.083 306.009 172.971C304.586 173.859 302.952 174.303 301.105 174.303C299.279 174.303 297.649 173.864 296.216 172.986C294.783 172.108 293.673 170.857 292.886 169.232C292.099 167.597 291.7 165.72 291.69 163.601V162.511C291.69 160.342 292.079 158.434 292.856 156.79C293.643 155.135 294.748 153.868 296.17 152.99C297.603 152.102 299.238 151.658 301.075 151.658C302.911 151.658 304.541 152.102 305.964 152.99C307.397 153.868 308.502 155.135 309.279 156.79C310.066 158.434 310.46 160.337 310.46 162.496V163.48ZM305.858 162.481C305.858 160.17 305.444 158.414 304.617 157.213C303.789 156.013 302.609 155.412 301.075 155.412C299.551 155.412 298.375 156.007 297.548 157.198C296.72 158.379 296.302 160.115 296.292 162.405V163.48C296.292 165.73 296.705 167.476 297.533 168.717C298.36 169.958 299.551 170.579 301.105 170.579C302.629 170.579 303.799 169.984 304.617 168.793C305.434 167.592 305.848 165.846 305.858 163.556V162.481ZM338.209 167.643L341.176 151.961H345.702L340.813 174H336.242L332.654 159.257L329.067 174H324.496L319.606 151.961H324.132L327.114 167.612L330.747 151.961H334.592L338.209 167.643ZM386.141 155.639H379.39V174H374.849V155.639H368.189V151.961H386.141V155.639ZM413.709 163.48C413.709 165.65 413.325 167.552 412.559 169.187C411.792 170.821 410.692 172.083 409.259 172.971C407.836 173.859 406.201 174.303 404.354 174.303C402.528 174.303 400.898 173.864 399.465 172.986C398.032 172.108 396.922 170.857 396.135 169.232C395.348 167.597 394.949 165.72 394.939 163.601V162.511C394.939 160.342 395.328 158.434 396.105 156.79C396.892 155.135 397.997 153.868 399.42 152.99C400.853 152.102 402.488 151.658 404.324 151.658C406.161 151.658 407.79 152.102 409.213 152.99C410.646 153.868 411.751 155.135 412.528 156.79C413.315 158.434 413.709 160.337 413.709 162.496V163.48ZM409.107 162.481C409.107 160.17 408.694 158.414 407.866 157.213C407.039 156.013 405.858 155.412 404.324 155.412C402.8 155.412 401.625 156.007 400.797 157.198C399.97 158.379 399.551 160.115 399.541 162.405V163.48C399.541 165.73 399.955 167.476 400.782 168.717C401.61 169.958 402.8 170.579 404.354 170.579C405.878 170.579 407.049 169.984 407.866 168.793C408.684 167.592 409.097 165.846 409.107 163.556V162.481ZM455.979 151.961V166.477C455.979 168.889 455.222 170.796 453.709 172.199C452.205 173.601 450.146 174.303 447.533 174.303C444.96 174.303 442.916 173.622 441.402 172.259C439.889 170.897 439.117 169.025 439.087 166.644V151.961H443.628V166.507C443.628 167.95 443.971 169.005 444.657 169.671C445.353 170.327 446.312 170.655 447.533 170.655C450.086 170.655 451.383 169.313 451.423 166.628V151.961H455.979ZM478.416 168.218C478.416 167.36 478.113 166.704 477.508 166.25C476.902 165.786 475.812 165.301 474.238 164.797C472.664 164.282 471.418 163.778 470.499 163.283C467.997 161.931 466.746 160.11 466.746 157.819C466.746 156.628 467.079 155.569 467.745 154.64C468.421 153.702 469.384 152.97 470.636 152.445C471.897 151.921 473.31 151.658 474.874 151.658C476.448 151.658 477.851 151.946 479.082 152.521C480.313 153.086 481.267 153.888 481.943 154.928C482.629 155.967 482.972 157.148 482.972 158.47H478.431C478.431 157.461 478.113 156.679 477.477 156.124C476.842 155.558 475.949 155.276 474.798 155.276C473.688 155.276 472.825 155.513 472.21 155.987C471.594 156.451 471.287 157.067 471.287 157.834C471.287 158.55 471.645 159.151 472.361 159.635C473.088 160.12 474.152 160.574 475.555 160.998C478.138 161.775 480.02 162.738 481.201 163.889C482.382 165.039 482.972 166.472 482.972 168.188C482.972 170.095 482.251 171.593 480.808 172.683C479.365 173.763 477.422 174.303 474.98 174.303C473.285 174.303 471.741 173.995 470.348 173.379C468.956 172.754 467.891 171.901 467.154 170.821C466.428 169.742 466.064 168.49 466.064 167.067H470.621C470.621 169.499 472.074 170.715 474.98 170.715C476.06 170.715 476.902 170.498 477.508 170.064C478.113 169.62 478.416 169.005 478.416 168.218ZM506.605 164.449H497.886V170.352H508.118V174H493.345V151.961H508.088V155.639H497.886V160.892H506.605V164.449Z" fill="white"/>
<g id="spring-ini 2">
<g id="Group">
<path id="Vector" d="M171.736 218.136L153.872 187.11C152.335 184.441 148.49 182.186 145.414 182.186H109.688C106.612 182.186 102.767 184.381 101.229 187.11L83.3662 218.136C81.8284 220.805 81.8284 225.254 83.3662 227.924L101.229 258.949C102.767 261.619 106.612 263.873 109.688 263.873H145.414C148.49 263.873 152.335 261.678 153.872 258.949L171.736 227.924C173.333 225.195 173.333 220.805 171.736 218.136Z" fill="#6DB33F"/>
<g id="Group_2">
<path id="Vector_2" d="M102.708 252.958C104.701 252.958 106.317 251.337 106.317 249.339C106.317 247.34 104.701 245.72 102.708 245.72C100.716 245.72 99.1003 247.34 99.1003 249.339C99.1003 251.337 100.716 252.958 102.708 252.958Z" fill="white"/>
</g>
<g id="Group_3">
<path id="Vector_3" d="M163.218 238.78C152.748 252.78 130.39 248.034 116.076 248.746C116.076 248.746 113.532 248.864 110.989 249.28C110.989 249.28 111.935 248.864 113.177 248.449C123.233 244.949 127.965 244.237 134.116 241.093C145.591 235.22 157.007 222.347 159.373 209C154.996 221.814 141.687 232.907 129.621 237.356C121.34 240.441 106.375 243.407 106.375 243.407L105.784 243.11C95.4916 238.186 95.1958 216 113.71 208.881C121.813 205.737 129.621 207.458 138.375 205.381C147.721 203.127 158.545 196.127 162.981 186.932C167.891 201.644 173.806 224.602 163.218 238.78Z" fill="white"/>
<path id="Vector_4" d="M162.981 186.932C167.891 201.644 173.865 224.602 163.218 238.78C156.652 247.559 145.414 248.983 134.412 248.983C129.207 248.983 124.061 248.687 119.506 248.687C118.323 248.687 117.199 248.687 116.135 248.746C116.135 248.746 113.591 248.864 111.048 249.28C111.048 249.28 111.994 248.864 113.236 248.449C123.292 244.949 128.024 244.237 134.175 241.093C145.65 235.22 157.066 222.348 159.432 209C155.055 221.814 141.747 232.907 129.68 237.356C121.399 240.441 106.434 243.407 106.434 243.407L105.843 243.11C95.4916 238.187 95.1958 216 113.71 208.881C121.813 205.737 129.621 207.458 138.375 205.381C147.721 203.187 158.545 196.127 162.981 186.932ZM163.277 182.246L161.384 186.161C156.948 195.415 146.124 201.703 137.961 203.661C134.294 204.551 130.686 204.729 127.255 204.907C122.7 205.144 117.968 205.381 113.118 207.22C101.702 211.61 97.3252 221.22 97.0295 228.754C96.7337 235.932 99.8095 242.161 104.837 244.712C105.133 244.89 105.784 245.246 106.316 245.246H107.085L107.203 245.127C110.634 244.415 122.878 241.805 130.212 239.136C135.299 237.237 141.037 234.034 146.242 229.763C142.397 233.856 137.902 237.297 133.347 239.61C129.621 241.509 126.427 242.517 121.991 243.881C119.388 244.653 116.371 245.602 112.704 246.848C111.403 247.263 110.456 247.737 110.397 247.737L109.096 250.407L111.403 251.119C113.828 250.703 116.253 250.585 116.312 250.585C117.318 250.525 118.382 250.525 119.565 250.525C121.754 250.525 124.061 250.585 126.486 250.703C129.089 250.763 131.75 250.881 134.471 250.881C145.414 250.881 157.539 249.576 164.697 239.966C173.037 228.814 173.096 211.314 164.756 186.458L163.277 182.246Z" fill="#6CCA00"/>
</g>
</g>
<g id="Group_4">
<g id="Group_5">
<path id="Vector_5" d="M195.809 239.254C194.922 238.78 194.33 237.771 194.33 236.466C194.33 234.686 195.75 233.203 197.584 233.203C198.234 233.203 198.826 233.441 199.299 233.678C202.67 235.932 206.219 237.059 209.354 237.059C212.785 237.059 214.796 235.576 214.796 233.263V233.085C214.796 230.297 211.07 229.407 206.988 228.161C201.842 226.678 196.046 224.602 196.046 217.898V217.72C196.046 211.076 201.547 207.042 208.467 207.042C212.194 207.042 216.038 208.11 219.469 209.89C220.593 210.483 221.421 211.551 221.421 212.975C221.421 214.814 219.942 216.237 218.049 216.237C217.399 216.237 216.985 216.059 216.511 215.881C213.672 214.398 210.774 213.508 208.349 213.508C205.214 213.508 203.439 214.992 203.439 216.949V217.127C203.439 219.737 207.225 220.805 211.306 222.11C216.452 223.653 222.19 226.085 222.19 232.314V232.492C222.19 239.847 216.452 243.525 209.236 243.525C204.622 243.407 199.831 241.983 195.809 239.254Z" fill="#6DB33F"/>
<path id="Vector_6" d="M225.088 211.136C225.088 208.881 226.803 207.102 229.051 207.102C231.299 207.102 233.073 208.881 233.073 211.136V213.508C235.676 209.83 239.343 206.924 244.962 206.924C253.125 206.924 261.169 213.39 261.169 225.136V225.314C261.169 236.941 253.184 243.525 244.962 243.525C239.166 243.525 235.498 240.619 233.073 237.356V249.754C233.073 252.008 231.299 253.788 229.051 253.788C226.922 253.788 225.088 252.068 225.088 249.754V211.136ZM253.125 225.314V225.136C253.125 218.373 248.571 213.924 243.188 213.924C237.746 213.924 233.014 218.492 233.014 225.136V225.314C233.014 232.017 237.746 236.525 243.188 236.525C248.571 236.585 253.125 232.254 253.125 225.314Z" fill="#6DB33F"/>
<path id="Vector_7" d="M264.245 211.136C264.245 208.881 265.96 207.102 268.208 207.102C270.456 207.102 272.23 208.881 272.23 211.136V213.093C272.585 210.127 277.494 207.102 280.984 207.102C283.528 207.102 284.947 208.763 284.947 211.076C284.947 213.153 283.528 214.576 281.753 214.932C276.016 215.881 272.171 220.924 272.171 227.805V239.373C272.171 241.508 270.397 243.347 268.149 243.347C266.019 243.347 264.186 241.627 264.186 239.373V211.136H264.245Z" fill="#6DB33F"/>
<path id="Vector_8" d="M288.141 211.195C288.141 208.941 289.857 207.161 292.104 207.161C294.352 207.161 296.127 208.941 296.127 211.195V239.432C296.127 241.686 294.352 243.407 292.104 243.407C289.975 243.407 288.141 241.686 288.141 239.432V211.195Z" fill="#6DB33F"/>
<path id="Vector_9" d="M300.208 211.195C300.208 208.941 301.923 207.161 304.171 207.161C306.419 207.161 308.193 208.941 308.193 211.195V212.856C310.441 209.593 313.694 207.102 319.136 207.102C327.003 207.102 331.557 212.381 331.557 220.508V239.373C331.557 241.627 329.842 243.347 327.594 243.347C325.347 243.347 323.572 241.627 323.572 239.373V223C323.572 217.542 320.91 214.398 316.06 214.398C311.446 214.398 308.193 217.661 308.193 223.119V239.432C308.193 241.686 306.419 243.407 304.171 243.407C302.042 243.407 300.208 241.686 300.208 239.432V211.195Z" fill="#6DB33F"/>
<path id="Vector_10" d="M366.751 207.042C364.503 207.042 362.729 208.822 362.729 211.076V213.449C360.126 209.771 356.459 206.864 350.84 206.864C342.677 206.864 334.633 213.33 334.633 225.076V225.254C334.633 236.881 342.618 243.466 350.84 243.466C356.636 243.466 360.304 240.559 362.729 237.356C362.374 243.703 358.47 246.966 351.727 246.966C347.705 246.966 344.215 246.017 341.021 244.178C340.666 243.941 340.134 243.881 339.601 243.881C337.768 243.881 336.171 245.364 336.171 247.144C336.171 248.686 337.058 249.814 338.418 250.347C342.677 252.424 347.054 253.491 351.964 253.491C358.293 253.491 363.202 252.008 366.337 248.805C369.235 245.898 370.773 241.508 370.773 235.636V211.136C370.714 208.822 368.939 207.042 366.751 207.042ZM352.673 236.466C347.172 236.466 342.736 232.136 342.736 225.195V225.017C342.736 218.254 347.291 213.805 352.673 213.805C358.115 213.805 362.847 218.373 362.847 225.017V225.195C362.906 231.958 358.174 236.466 352.673 236.466Z" fill="#6DB33F"/>
<path id="Vector_11" d="M296.186 197.492C296.186 199.746 294.411 201.525 292.164 201.525C289.916 201.525 288.141 199.746 288.141 197.492C288.141 195.237 289.916 193.458 292.164 193.458C294.293 193.398 296.186 195.178 296.186 197.492Z" fill="#6DB33F"/>
</g>
</g>
<g id="Group_6">
<path id="Vector_12" d="M394.434 197.136C394.434 194.525 396.563 192.33 399.284 192.33C401.946 192.33 404.075 194.585 404.075 197.136C404.075 199.746 401.946 202 399.284 202C396.622 202.059 394.434 199.746 394.434 197.136ZM395.025 207.517H403.543V243.585H395.025V207.517Z" fill="black"/>
<path id="Vector_13" d="M445.894 220.627V243.585H437.672V222.288C437.672 217.424 434.537 213.924 430.101 213.924C425.665 213.924 421.939 216.949 421.406 220.746V243.585H412.889V207.517H421.406V212.322C423.654 209 427.794 206.686 432.526 206.686C440.393 206.627 445.894 212.441 445.894 220.627Z" fill="black"/>
<path id="Vector_14" d="M454.529 197.136C454.529 194.525 456.659 192.33 459.38 192.33C462.041 192.33 464.171 194.585 464.171 197.136C464.171 199.746 462.041 202 459.38 202C456.659 202.059 454.529 199.746 454.529 197.136ZM455.062 207.517H463.579V243.585H455.062V207.517Z" fill="black"/>
<path id="Vector_15" d="M493.332 241.568C491.321 243.288 488.363 244.415 485.702 244.415C479.728 244.415 475.528 240.085 475.528 234.034V214.517H470.323V207.517H475.528V197.551H483.809V207.458H491.971V214.517H483.809V232.966C483.809 235.398 485.347 237.178 487.358 237.178C488.837 237.178 490.138 236.644 490.907 235.873L493.332 241.568Z" fill="black"/>
<path id="Vector_16" d="M499.424 197.136C499.424 194.525 501.553 192.33 504.274 192.33C506.936 192.33 509.065 194.585 509.065 197.136C509.065 199.746 506.936 202 504.274 202C501.553 202.059 499.424 199.746 499.424 197.136ZM499.956 207.517H508.474V243.585H499.956V207.517Z" fill="black"/>
<path id="Vector_17" d="M548.991 221.873V243.585H540.711V239.254C538.049 242.576 533.553 244.415 529.354 244.415C521.724 244.415 515.927 239.907 515.927 232.907C515.927 225.788 522.552 220.924 530.596 220.924C533.849 220.924 537.398 221.635 540.711 222.881V221.932C540.711 217.72 538.404 213.686 531.897 213.686C528.467 213.686 525.213 214.873 522.138 216.415L519.239 210.483C524.326 207.991 529.058 206.686 533.553 206.686C543.077 206.627 548.991 212.737 548.991 221.873ZM540.711 232.254V228.22C538.049 227.33 535.091 226.797 531.897 226.797C527.638 226.797 524.267 229.169 524.267 232.61C524.267 236.051 527.284 238.186 531.306 238.186C535.328 238.186 539.705 236.11 540.711 232.254Z" fill="black"/>
<path id="Vector_18" d="M558.16 194.763H566.677V243.585H558.16V194.763Z" fill="black"/>
<path id="Vector_19" d="M575.49 197.136C575.49 194.525 577.619 192.33 580.34 192.33C583.002 192.33 585.131 194.585 585.131 197.136C585.131 199.746 583.002 202 580.34 202C577.619 202.059 575.49 199.746 575.49 197.136ZM576.022 207.517H584.54V243.585H576.022V207.517Z" fill="black"/>
<path id="Vector_20" d="M592.467 237.356L611.572 214.932H592.94V207.517H622.81L622.751 213.746L603.587 236.169H622.929V243.644H592.526V237.356H592.467Z" fill="black"/>
<path id="Vector_21" d="M652.148 206.627V213.864C644.4 213.864 639.254 218.491 639.254 225.314V243.525H630.736V207.517H639.254V214.517C641.56 209.652 646.233 206.627 652.148 206.627Z" fill="black"/>
</g>
</g>
</g>
</svg>
