<svg width="750" height="422" viewBox="0 0 750 422" fill="none" xmlns="http://www.w3.org/2000/svg">
<g id="springinitializr">
<rect width="750" height="421.875" fill="#364F6B"/>
<rect id="Rectangle 2" width="750" height="254" fill="#F0F0F0"/>
<g id="Frame 6">
<path id="BUID A REST API WITH" d="M88.7361 75V52.9609H95.9412C98.3328 52.9609 100.129 53.4554 101.33 54.4443C102.541 55.4333 103.146 56.8965 103.146 58.834C103.146 59.8633 102.854 60.7765 102.268 61.5737C101.683 62.3608 100.886 62.9714 99.8767 63.4053C101.067 63.7383 102.006 64.374 102.692 65.3125C103.388 66.2409 103.737 67.3509 103.737 68.6426C103.737 70.6204 103.096 72.1745 101.814 73.3047C100.533 74.4349 98.7213 75 96.3801 75H88.7361ZM91.6423 64.6919V72.6235H96.4407C97.7929 72.6235 98.8575 72.2754 99.6345 71.5791C100.422 70.8727 100.815 69.904 100.815 68.6729C100.815 66.0189 99.3722 64.6919 96.4861 64.6919H91.6423ZM91.6423 62.3608H96.032C97.3035 62.3608 98.3176 62.043 99.0745 61.4072C99.8414 60.7715 100.225 59.9087 100.225 58.8188C100.225 57.6079 99.8717 56.73 99.1653 56.1851C98.4589 55.63 97.3842 55.3525 95.9412 55.3525H91.6423V62.3608ZM137.361 52.9609V67.9463C137.351 70.0251 136.695 71.7254 135.393 73.0474C134.101 74.3693 132.345 75.111 130.125 75.2725L129.353 75.3027C126.942 75.3027 125.019 74.6519 123.586 73.3501C122.153 72.0483 121.427 70.2572 121.407 67.9766V52.9609H124.283V67.8857C124.283 69.4801 124.722 70.7214 125.599 71.6094C126.477 72.4873 127.729 72.9263 129.353 72.9263C130.998 72.9263 132.255 72.4873 133.122 71.6094C134 70.7314 134.439 69.4953 134.439 67.9009V52.9609H137.361ZM158.86 75H155.954V52.9609H158.86V75ZM177.983 75V52.9609H184.205C186.122 52.9609 187.817 53.3848 189.291 54.2324C190.764 55.0801 191.899 56.286 192.696 57.8501C193.504 59.4142 193.912 61.2104 193.922 63.2388V64.6465C193.922 66.7253 193.519 68.5467 192.711 70.1108C191.914 71.675 190.769 72.8758 189.275 73.7134C187.792 74.5509 186.061 74.9798 184.083 75H177.983ZM180.89 55.3525V72.6235H183.947C186.187 72.6235 187.928 71.9272 189.169 70.5347C190.421 69.1421 191.046 67.1592 191.046 64.5859V63.2993C191.046 60.7967 190.456 58.8542 189.275 57.4717C188.105 56.0791 186.44 55.3727 184.28 55.3525H180.89ZM245.777 69.248H236.543L234.469 75H231.472L239.888 52.9609H242.431L250.862 75H247.881L245.777 69.248ZM237.421 66.8564H244.914L241.16 56.5483L237.421 66.8564ZM297.192 66.0845H292.015V75H289.094V52.9609H296.389C298.872 52.9609 300.779 53.526 302.111 54.6562C303.453 55.7865 304.124 57.4313 304.124 59.5908C304.124 60.9632 303.751 62.159 303.004 63.1782C302.268 64.1974 301.238 64.9593 299.916 65.4639L305.093 74.8184V75H301.975L297.192 66.0845ZM292.015 63.708H296.48C297.923 63.708 299.069 63.3346 299.916 62.5879C300.774 61.8411 301.203 60.8421 301.203 59.5908C301.203 58.2285 300.794 57.1841 299.977 56.4575C299.17 55.731 297.999 55.3626 296.465 55.3525H292.015V63.708ZM334.464 64.813H324.912V72.6235H336.008V75H322.006V52.9609H335.856V55.3525H324.912V62.4365H334.464V64.813ZM359.914 65.1763C357.422 64.4598 355.605 63.5819 354.465 62.5425C353.335 61.493 352.77 60.2013 352.77 58.6675C352.77 56.9318 353.461 55.4989 354.843 54.3687C356.236 53.2284 358.042 52.6582 360.262 52.6582C361.776 52.6582 363.123 52.9508 364.304 53.5361C365.494 54.1214 366.413 54.9287 367.059 55.958C367.714 56.9873 368.042 58.1125 368.042 59.3335H365.121C365.121 58.0015 364.697 56.957 363.85 56.2002C363.002 55.4333 361.806 55.0498 360.262 55.0498C358.829 55.0498 357.709 55.3677 356.902 56.0034C356.105 56.6291 355.706 57.502 355.706 58.6221C355.706 59.5202 356.084 60.2821 356.841 60.9077C357.608 61.5233 358.905 62.0884 360.731 62.603C362.568 63.1177 364.001 63.6878 365.03 64.3135C366.07 64.929 366.837 65.6506 367.331 66.478C367.836 67.3055 368.088 68.2793 368.088 69.3994C368.088 71.1855 367.392 72.6185 365.999 73.6982C364.606 74.7679 362.745 75.3027 360.414 75.3027C358.9 75.3027 357.487 75.0151 356.175 74.4399C354.863 73.8547 353.849 73.0575 353.133 72.0483C352.426 71.0392 352.073 69.8939 352.073 68.6123H354.995C354.995 69.9443 355.484 70.9989 356.463 71.7759C357.452 72.5428 358.769 72.9263 360.414 72.9263C361.947 72.9263 363.123 72.6134 363.94 71.9878C364.758 71.3621 365.166 70.5094 365.166 69.4297C365.166 68.3499 364.788 67.5174 364.031 66.9321C363.274 66.3368 361.902 65.7515 359.914 65.1763ZM400.849 55.3525H393.765V75H390.874V55.3525H383.805V52.9609H400.849V55.3525ZM450.963 69.248H441.729L439.655 75H436.658L445.074 52.9609H447.617L456.049 75H453.067L450.963 69.248ZM442.607 66.8564H450.1L446.346 56.5483L442.607 66.8564ZM475.717 66.3721V75H472.81V52.9609H480.939C483.351 52.9609 485.238 53.5765 486.6 54.8076C487.972 56.0387 488.658 57.6685 488.658 59.6968C488.658 61.8361 487.987 63.486 486.645 64.6465C485.313 65.7969 483.401 66.3721 480.908 66.3721H475.717ZM475.717 63.9956H480.939C482.493 63.9956 483.684 63.6323 484.511 62.9058C485.338 62.1691 485.752 61.1095 485.752 59.7271C485.752 58.4152 485.338 57.3657 484.511 56.5786C483.684 55.7915 482.548 55.3828 481.105 55.3525H475.717V63.9956ZM509.28 75H506.374V52.9609H509.28V75ZM554.641 68.0522L555.064 70.9585L555.685 68.3398L560.044 52.9609H562.497L566.75 68.3398L567.355 71.0039L567.825 68.0371L571.246 52.9609H574.167L568.824 75H566.175L561.634 58.9399L561.286 57.2598L560.938 58.9399L556.23 75H553.581L548.253 52.9609H551.159L554.641 68.0522ZM594.319 75H591.413V52.9609H594.319V75ZM628.216 55.3525H621.132V75H618.241V55.3525H611.172V52.9609H628.216V55.3525ZM662.219 75H659.297V64.813H648.187V75H645.281V52.9609H648.187V62.4365H659.297V52.9609H662.219V75Z" fill="#6CCA00"/>
<path id="Spring Boot" d="M131.32 172.348C131.32 169.581 130.344 167.465 128.391 166C126.438 164.503 122.922 162.94 117.844 161.312C112.766 159.652 108.745 158.025 105.783 156.43C97.7103 152.068 93.6738 146.192 93.6738 138.803C93.6738 134.962 94.748 131.544 96.8965 128.549C99.0775 125.521 102.186 123.161 106.223 121.469C110.292 119.776 114.849 118.93 119.895 118.93C124.973 118.93 129.497 119.857 133.469 121.713C137.44 123.536 140.516 126.124 142.697 129.477C144.911 132.829 146.018 136.638 146.018 140.902H131.369C131.369 137.647 130.344 135.124 128.293 133.334C126.242 131.511 123.361 130.6 119.65 130.6C116.07 130.6 113.286 131.365 111.301 132.895C109.315 134.392 108.322 136.378 108.322 138.852C108.322 141.163 109.478 143.1 111.789 144.662C114.133 146.225 117.567 147.689 122.092 149.057C130.425 151.563 136.496 154.672 140.305 158.383C144.113 162.094 146.018 166.716 146.018 172.25C146.018 178.402 143.69 183.236 139.035 186.752C134.38 190.235 128.114 191.977 120.236 191.977C114.768 191.977 109.787 190.984 105.295 188.998C100.803 186.98 97.3685 184.229 94.9922 180.746C92.6484 177.263 91.4766 173.227 91.4766 168.637H106.174C106.174 176.482 110.861 180.404 120.236 180.404C123.719 180.404 126.438 179.704 128.391 178.305C130.344 176.872 131.32 174.887 131.32 172.348ZM207.109 165.072C207.109 173.21 205.254 179.737 201.543 184.652C197.865 189.535 192.884 191.977 186.602 191.977C181.263 191.977 176.95 190.121 173.662 186.41V211.312H159.551V138.168H172.637L173.125 143.344C176.543 139.242 181.003 137.191 186.504 137.191C193.014 137.191 198.076 139.6 201.689 144.418C205.303 149.236 207.109 155.876 207.109 164.34V165.072ZM192.998 164.047C192.998 159.132 192.119 155.339 190.361 152.67C188.636 150.001 186.113 148.666 182.793 148.666C178.366 148.666 175.322 150.359 173.662 153.744V175.375C175.387 178.858 178.464 180.6 182.891 180.6C189.629 180.6 192.998 175.082 192.998 164.047ZM250.086 151.4C248.165 151.14 246.473 151.01 245.008 151.01C239.669 151.01 236.17 152.816 234.51 156.43V191H220.398V138.168H233.729L234.119 144.467C236.951 139.617 240.874 137.191 245.887 137.191C247.449 137.191 248.914 137.403 250.281 137.826L250.086 151.4ZM276.314 191H262.154V138.168H276.314V191ZM261.324 124.496C261.324 122.38 262.024 120.639 263.424 119.271C264.856 117.904 266.793 117.221 269.234 117.221C271.643 117.221 273.564 117.904 274.996 119.271C276.428 120.639 277.145 122.38 277.145 124.496C277.145 126.645 276.412 128.402 274.947 129.77C273.515 131.137 271.611 131.82 269.234 131.82C266.858 131.82 264.938 131.137 263.473 129.77C262.04 128.402 261.324 126.645 261.324 124.496ZM305.473 138.168L305.912 144.271C309.688 139.551 314.75 137.191 321.098 137.191C326.697 137.191 330.863 138.835 333.598 142.123C336.332 145.411 337.732 150.326 337.797 156.869V191H323.686V157.211C323.686 154.216 323.035 152.051 321.732 150.717C320.43 149.35 318.266 148.666 315.238 148.666C311.267 148.666 308.288 150.359 306.303 153.744V191H292.191V138.168H305.473ZM350.988 164.193C350.988 156.088 352.909 149.561 356.75 144.613C360.624 139.665 365.832 137.191 372.375 137.191C378.169 137.191 382.678 139.177 385.9 143.148L386.486 138.168H399.279V189.242C399.279 193.865 398.221 197.885 396.105 201.303C394.022 204.721 391.076 207.325 387.268 209.115C383.459 210.906 378.999 211.801 373.889 211.801C370.015 211.801 366.239 211.02 362.561 209.457C358.882 207.927 356.099 205.941 354.211 203.5L360.461 194.906C363.977 198.845 368.241 200.814 373.254 200.814C376.997 200.814 379.911 199.805 381.994 197.787C384.077 195.801 385.119 192.969 385.119 189.291V186.459C381.864 190.137 377.583 191.977 372.277 191.977C365.93 191.977 360.786 189.503 356.848 184.555C352.941 179.574 350.988 172.982 350.988 164.779V164.193ZM365.1 165.219C365.1 170.004 366.06 173.764 367.98 176.498C369.901 179.2 372.538 180.551 375.891 180.551C380.188 180.551 383.264 178.939 385.119 175.717V153.5C383.231 150.277 380.188 148.666 375.988 148.666C372.603 148.666 369.934 150.049 367.98 152.816C366.06 155.583 365.1 159.717 365.1 165.219ZM444.998 191V119.906H469.9C478.527 119.906 485.07 121.566 489.529 124.887C493.989 128.174 496.219 133.008 496.219 139.389C496.219 142.872 495.324 145.948 493.533 148.617C491.743 151.254 489.253 153.191 486.062 154.428C489.708 155.339 492.573 157.178 494.656 159.945C496.772 162.712 497.83 166.098 497.83 170.102C497.83 176.938 495.649 182.113 491.287 185.629C486.925 189.145 480.708 190.935 472.635 191H444.998ZM459.646 160.043V179.232H472.195C475.646 179.232 478.331 178.419 480.252 176.791C482.205 175.131 483.182 172.852 483.182 169.955C483.182 163.445 479.812 160.141 473.074 160.043H459.646ZM459.646 149.691H470.486C477.876 149.561 481.57 146.615 481.57 140.854C481.57 137.631 480.626 135.32 478.738 133.92C476.883 132.488 473.937 131.771 469.9 131.771H459.646V149.691ZM510.24 164.096C510.24 158.855 511.249 154.184 513.268 150.082C515.286 145.98 518.183 142.807 521.959 140.561C525.768 138.314 530.178 137.191 535.191 137.191C542.32 137.191 548.131 139.372 552.623 143.734C557.148 148.096 559.671 154.021 560.191 161.508L560.289 165.121C560.289 173.227 558.027 179.737 553.502 184.652C548.977 189.535 542.906 191.977 535.289 191.977C527.672 191.977 521.585 189.535 517.027 184.652C512.503 179.77 510.24 173.129 510.24 164.73V164.096ZM524.352 165.121C524.352 170.134 525.296 173.975 527.184 176.645C529.072 179.281 531.773 180.6 535.289 180.6C538.707 180.6 541.376 179.298 543.297 176.693C545.217 174.057 546.178 169.857 546.178 164.096C546.178 159.18 545.217 155.372 543.297 152.67C541.376 149.968 538.674 148.617 535.191 148.617C531.741 148.617 529.072 149.968 527.184 152.67C525.296 155.339 524.352 159.49 524.352 165.121ZM571.283 164.096C571.283 158.855 572.292 154.184 574.311 150.082C576.329 145.98 579.226 142.807 583.002 140.561C586.811 138.314 591.221 137.191 596.234 137.191C603.363 137.191 609.174 139.372 613.666 143.734C618.191 148.096 620.714 154.021 621.234 161.508L621.332 165.121C621.332 173.227 619.07 179.737 614.545 184.652C610.02 189.535 603.949 191.977 596.332 191.977C588.715 191.977 582.628 189.535 578.07 184.652C573.546 179.77 571.283 173.129 571.283 164.73V164.096ZM585.395 165.121C585.395 170.134 586.339 173.975 588.227 176.645C590.115 179.281 592.816 180.6 596.332 180.6C599.75 180.6 602.419 179.298 604.34 176.693C606.26 174.057 607.221 169.857 607.221 164.096C607.221 159.18 606.26 155.372 604.34 152.67C602.419 149.968 599.717 148.617 596.234 148.617C592.784 148.617 590.115 149.968 588.227 152.67C586.339 155.339 585.395 159.49 585.395 165.121ZM651.418 125.18V138.168H660.451V148.52H651.418V174.887C651.418 176.84 651.792 178.24 652.541 179.086C653.29 179.932 654.722 180.355 656.838 180.355C658.4 180.355 659.784 180.242 660.988 180.014V190.707C658.221 191.553 655.373 191.977 652.443 191.977C642.548 191.977 637.502 186.98 637.307 176.986V148.52H629.592V138.168H637.307V125.18H651.418Z" fill="#6CCA00"/>
</g>
<g id="Frame 5">
<path id="Vector" d="M166.024 324.829L164.742 327.063C164.274 327.891 163.273 328.235 162.383 327.907C160.539 327.219 158.851 326.235 157.367 325.001C156.648 324.407 156.46 323.36 156.929 322.547L158.211 320.313C157.132 319.063 156.289 317.609 155.726 316.031H153.148C152.21 316.031 151.397 315.359 151.241 314.422C150.929 312.546 150.913 310.577 151.241 308.624C151.397 307.687 152.21 306.999 153.148 306.999H155.726C156.289 305.421 157.132 303.968 158.211 302.717L156.929 300.483C156.46 299.67 156.632 298.623 157.367 298.03C158.851 296.795 160.554 295.811 162.383 295.123C163.273 294.795 164.274 295.139 164.742 295.967L166.024 298.201C167.664 297.905 169.336 297.905 170.977 298.201L172.259 295.967C172.727 295.139 173.727 294.795 174.618 295.123C176.462 295.811 178.15 296.795 179.634 298.03C180.353 298.623 180.541 299.67 180.072 300.483L178.79 302.717C179.869 303.968 180.712 305.421 181.275 306.999H183.853C184.791 306.999 185.603 307.671 185.76 308.609C186.072 310.484 186.088 312.453 185.76 314.406C185.603 315.343 184.791 316.031 183.853 316.031H181.275C180.712 317.609 179.869 319.063 178.79 320.313L180.072 322.547C180.541 323.36 180.369 324.407 179.634 325.001C178.15 326.235 176.446 327.219 174.618 327.907C173.727 328.235 172.727 327.891 172.259 327.063L170.977 324.829C169.352 325.126 167.664 325.126 166.024 324.829ZM164.383 315.64C170.399 320.266 177.259 313.406 172.634 307.39C166.618 302.749 159.758 309.624 164.383 315.64ZM146.366 339.689L151.632 342.314C153.21 343.221 153.898 345.143 153.273 346.862C151.882 350.643 149.147 354.112 146.616 357.144C145.46 358.535 143.459 358.878 141.881 357.972L137.334 355.347C134.834 357.488 131.927 359.191 128.755 360.3V365.551C128.755 367.363 127.458 368.926 125.677 369.239C121.833 369.895 117.801 369.926 113.816 369.239C112.019 368.926 110.691 367.379 110.691 365.551V360.3C107.519 359.175 104.612 357.488 102.112 355.347L97.5649 357.956C96.0023 358.863 93.9865 358.519 92.8302 357.128C90.2987 354.097 87.6266 350.628 86.2359 346.862C85.6108 345.158 86.2984 343.236 87.8766 342.314L93.0802 339.689C92.4708 336.423 92.4708 333.064 93.0802 329.782L87.8766 327.141C86.2984 326.235 85.5952 324.313 86.2359 322.61C87.6266 318.828 90.2987 315.359 92.8302 312.328C93.9865 310.937 95.9867 310.593 97.5649 311.499L102.112 314.125C104.612 311.984 107.519 310.281 110.691 309.171V303.905C110.691 302.108 111.972 300.545 113.754 300.233C117.598 299.577 121.645 299.545 125.63 300.217C127.427 300.53 128.755 302.077 128.755 303.905V309.155C131.927 310.281 134.834 311.968 137.334 314.109L141.881 311.484C143.444 310.577 145.46 310.921 146.616 312.312C149.147 315.343 151.804 318.813 153.195 322.594C153.82 324.297 153.21 326.219 151.632 327.141L146.366 329.767C146.975 333.048 146.975 336.408 146.366 339.689ZM127.989 342.986C137.24 330.954 123.505 317.219 111.472 326.469C102.222 338.502 115.957 352.237 127.989 342.986ZM166.024 371.536L164.742 373.77C164.274 374.598 163.273 374.942 162.383 374.614C160.539 373.926 158.851 372.942 157.367 371.708C156.648 371.114 156.46 370.067 156.929 369.254L158.211 367.02C157.132 365.77 156.289 364.316 155.726 362.738H153.148C152.21 362.738 151.397 362.066 151.241 361.129C150.929 359.253 150.913 357.284 151.241 355.331C151.397 354.394 152.21 353.706 153.148 353.706H155.726C156.289 352.128 157.132 350.675 158.211 349.424L156.929 347.19C156.46 346.377 156.632 345.33 157.367 344.737C158.851 343.502 160.554 342.518 162.383 341.83C163.273 341.502 164.274 341.846 164.742 342.674L166.024 344.908C167.664 344.612 169.336 344.612 170.977 344.908L172.259 342.674C172.727 341.846 173.727 341.502 174.618 341.83C176.462 342.518 178.15 343.502 179.634 344.737C180.353 345.33 180.541 346.377 180.072 347.19L178.79 349.424C179.869 350.675 180.712 352.128 181.275 353.706H183.853C184.791 353.706 185.603 354.378 185.76 355.316C186.072 357.191 186.088 359.16 185.76 361.113C185.603 362.05 184.791 362.738 183.853 362.738H181.275C180.712 364.316 179.869 365.77 178.79 367.02L180.072 369.254C180.541 370.067 180.369 371.114 179.634 371.708C178.15 372.942 176.446 373.926 174.618 374.614C173.727 374.942 172.727 374.598 172.259 373.77L170.977 371.536C169.352 371.833 167.664 371.833 166.024 371.536ZM164.383 362.332C170.399 366.957 177.259 360.097 172.634 354.081C166.618 349.456 159.758 356.316 164.383 362.332Z" fill="white"/>
<path id="PROJECT SET UP WITH SPRING INITIALIZR" d="M240.817 316.815V326H237.723V302.539H246.376C248.943 302.539 250.952 303.194 252.402 304.505C253.863 305.815 254.594 307.55 254.594 309.709C254.594 311.987 253.879 313.743 252.451 314.979C251.033 316.203 248.997 316.815 246.344 316.815H240.817ZM240.817 314.286H246.376C248.03 314.286 249.298 313.899 250.179 313.125C251.06 312.341 251.5 311.213 251.5 309.742C251.5 308.345 251.06 307.228 250.179 306.39C249.298 305.552 248.089 305.117 246.553 305.085H240.817V314.286ZM273.086 316.509H267.575V326H264.465V302.539H272.232C274.875 302.539 276.905 303.141 278.323 304.344C279.752 305.547 280.466 307.298 280.466 309.597C280.466 311.058 280.068 312.331 279.273 313.416C278.489 314.5 277.394 315.312 275.986 315.849L281.497 325.807V326H278.178L273.086 316.509ZM267.575 313.979H272.329C273.865 313.979 275.084 313.582 275.986 312.787C276.899 311.992 277.356 310.929 277.356 309.597C277.356 308.146 276.921 307.035 276.051 306.261C275.191 305.488 273.945 305.096 272.313 305.085H267.575V313.979ZM308.803 315.027C308.803 317.326 308.417 319.334 307.643 321.053C306.87 322.761 305.774 324.066 304.356 324.969C302.938 325.871 301.284 326.322 299.393 326.322C297.546 326.322 295.907 325.871 294.479 324.969C293.05 324.056 291.938 322.761 291.143 321.085C290.359 319.399 289.956 317.449 289.935 315.236V313.544C289.935 311.289 290.327 309.296 291.111 307.566C291.895 305.837 293.002 304.516 294.43 303.603C295.87 302.679 297.513 302.217 299.361 302.217C301.241 302.217 302.895 302.673 304.324 303.586C305.763 304.489 306.87 305.805 307.643 307.534C308.417 309.253 308.803 311.256 308.803 313.544V315.027ZM305.726 313.512C305.726 310.73 305.167 308.598 304.05 307.115C302.933 305.622 301.37 304.875 299.361 304.875C297.406 304.875 295.864 305.622 294.736 307.115C293.619 308.598 293.045 310.66 293.012 313.303V315.027C293.012 317.723 293.576 319.845 294.704 321.392C295.843 322.928 297.406 323.696 299.393 323.696C301.391 323.696 302.938 322.971 304.034 321.521C305.13 320.06 305.693 317.97 305.726 315.252V313.512ZM329.213 302.539H332.323V319.152C332.323 321.397 331.646 323.153 330.293 324.421C328.95 325.688 327.156 326.322 324.911 326.322C322.58 326.322 320.764 325.726 319.465 324.534C318.165 323.341 317.515 321.671 317.515 319.522H320.609C320.609 320.865 320.974 321.913 321.704 322.665C322.445 323.417 323.514 323.792 324.911 323.792C326.189 323.792 327.22 323.39 328.005 322.584C328.799 321.778 329.202 320.65 329.213 319.2V302.539ZM356.793 315.156H346.626V323.47H358.437V326H343.532V302.539H358.276V305.085H346.626V312.626H356.793V315.156ZM385.485 318.556C385.195 321.037 384.277 322.955 382.73 324.308C381.194 325.651 379.147 326.322 376.591 326.322C373.819 326.322 371.596 325.329 369.92 323.341C368.255 321.354 367.422 318.695 367.422 315.365V313.109C367.422 310.929 367.809 309.011 368.582 307.357C369.367 305.703 370.473 304.435 371.902 303.554C373.33 302.663 374.985 302.217 376.865 302.217C379.357 302.217 381.355 302.915 382.859 304.312C384.363 305.697 385.238 307.62 385.485 310.08H382.375C382.107 308.211 381.521 306.857 380.619 306.02C379.727 305.182 378.476 304.763 376.865 304.763C374.888 304.763 373.336 305.493 372.208 306.954C371.091 308.415 370.532 310.494 370.532 313.19V315.462C370.532 318.008 371.064 320.033 372.127 321.537C373.191 323.041 374.679 323.792 376.591 323.792C378.309 323.792 379.625 323.406 380.538 322.632C381.462 321.848 382.075 320.489 382.375 318.556H385.485ZM411.39 305.085H403.848V326H400.771V305.085H393.246V302.539H411.39V305.085ZM441.204 315.542C438.55 314.78 436.617 313.845 435.403 312.739C434.2 311.622 433.598 310.247 433.598 308.614C433.598 306.766 434.334 305.241 435.806 304.038C437.288 302.824 439.211 302.217 441.574 302.217C443.186 302.217 444.62 302.528 445.876 303.151C447.144 303.774 448.122 304.634 448.809 305.729C449.507 306.825 449.856 308.023 449.856 309.323H446.747C446.747 307.905 446.295 306.793 445.393 305.987C444.491 305.171 443.218 304.763 441.574 304.763C440.049 304.763 438.856 305.101 437.997 305.778C437.148 306.444 436.724 307.373 436.724 308.565C436.724 309.521 437.127 310.333 437.933 310.999C438.749 311.654 440.129 312.255 442.074 312.803C444.029 313.351 445.554 313.958 446.65 314.624C447.756 315.279 448.573 316.047 449.099 316.928C449.636 317.809 449.905 318.846 449.905 320.038C449.905 321.939 449.164 323.465 447.681 324.614C446.199 325.753 444.217 326.322 441.735 326.322C440.124 326.322 438.62 326.016 437.224 325.404C435.827 324.781 434.748 323.932 433.985 322.858C433.233 321.784 432.857 320.564 432.857 319.2H435.967C435.967 320.618 436.488 321.741 437.53 322.568C438.583 323.384 439.984 323.792 441.735 323.792C443.368 323.792 444.62 323.459 445.49 322.793C446.36 322.127 446.795 321.22 446.795 320.07C446.795 318.921 446.392 318.035 445.586 317.412C444.781 316.778 443.32 316.155 441.204 315.542ZM473.086 315.156H462.919V323.47H474.73V326H459.825V302.539H474.568V305.085H462.919V312.626H473.086V315.156ZM501.053 305.085H493.512V326H490.434V305.085H482.909V302.539H501.053V305.085ZM540.47 302.539V318.491C540.46 320.704 539.761 322.514 538.376 323.921C537.001 325.329 535.132 326.118 532.768 326.29L531.947 326.322C529.379 326.322 527.333 325.629 525.807 324.244C524.282 322.858 523.509 320.951 523.487 318.523V302.539H526.549V318.427C526.549 320.124 527.016 321.445 527.95 322.391C528.885 323.325 530.217 323.792 531.947 323.792C533.697 323.792 535.035 323.325 535.959 322.391C536.893 321.456 537.361 320.14 537.361 318.443V302.539H540.47ZM554.387 316.815V326H551.293V302.539H559.946C562.513 302.539 564.522 303.194 565.972 304.505C567.433 305.815 568.163 307.55 568.163 309.709C568.163 311.987 567.449 313.743 566.02 314.979C564.602 316.203 562.567 316.815 559.913 316.815H554.387ZM554.387 314.286H559.946C561.6 314.286 562.867 313.899 563.748 313.125C564.629 312.341 565.07 311.213 565.07 309.742C565.07 308.345 564.629 307.228 563.748 306.39C562.867 305.552 561.659 305.117 560.123 305.085H554.387V314.286ZM597.236 318.604L597.687 321.698L598.348 318.91L602.989 302.539H605.599L610.127 318.91L610.771 321.746L611.271 318.588L614.913 302.539H618.022L612.334 326H609.515L604.681 308.904L604.31 307.115L603.939 308.904L598.928 326H596.108L590.436 302.539H593.53L597.236 318.604ZM630.73 326H627.636V302.539H630.73V326ZM658.068 305.085H650.527V326H647.45V305.085H639.925V302.539H658.068V305.085ZM685.52 326H682.41V315.156H670.583V326H667.489V302.539H670.583V312.626H682.41V302.539H685.52V326ZM244.636 354.542C241.982 353.78 240.049 352.845 238.835 351.739C237.632 350.622 237.03 349.247 237.03 347.614C237.03 345.766 237.766 344.241 239.238 343.038C240.72 341.824 242.643 341.217 245.006 341.217C246.618 341.217 248.052 341.528 249.309 342.151C250.576 342.774 251.554 343.634 252.241 344.729C252.939 345.825 253.289 347.023 253.289 348.323H250.179C250.179 346.905 249.728 345.793 248.825 344.987C247.923 344.171 246.65 343.763 245.006 343.763C243.481 343.763 242.289 344.101 241.429 344.778C240.581 345.444 240.156 346.373 240.156 347.565C240.156 348.521 240.559 349.333 241.365 349.999C242.181 350.654 243.562 351.255 245.506 351.803C247.461 352.351 248.986 352.958 250.082 353.624C251.188 354.279 252.005 355.047 252.531 355.928C253.068 356.809 253.337 357.846 253.337 359.038C253.337 360.939 252.596 362.465 251.113 363.614C249.631 364.753 247.649 365.322 245.167 365.322C243.556 365.322 242.052 365.016 240.656 364.404C239.259 363.781 238.18 362.932 237.417 361.858C236.665 360.784 236.289 359.564 236.289 358.2H239.399C239.399 359.618 239.92 360.741 240.962 361.568C242.015 362.384 243.417 362.792 245.167 362.792C246.8 362.792 248.052 362.459 248.922 361.793C249.792 361.127 250.227 360.22 250.227 359.07C250.227 357.921 249.824 357.035 249.019 356.412C248.213 355.778 246.752 355.155 244.636 354.542ZM266.351 355.815V365H263.257V341.539H271.91C274.477 341.539 276.486 342.194 277.936 343.505C279.397 344.815 280.128 346.55 280.128 348.709C280.128 350.987 279.413 352.743 277.984 353.979C276.566 355.203 274.531 355.815 271.878 355.815H266.351ZM266.351 353.286H271.91C273.564 353.286 274.832 352.899 275.712 352.125C276.593 351.341 277.034 350.213 277.034 348.742C277.034 347.345 276.593 346.228 275.712 345.39C274.832 344.552 273.623 344.117 272.087 344.085H266.351V353.286ZM298.62 355.509H293.109V365H289.999V341.539H297.766C300.408 341.539 302.439 342.141 303.857 343.344C305.285 344.547 306 346.298 306 348.597C306 350.058 305.602 351.331 304.807 352.416C304.023 353.5 302.927 354.312 301.52 354.849L307.031 364.807V365H303.712L298.62 355.509ZM293.109 352.979H297.862C299.399 352.979 300.618 352.582 301.52 351.787C302.433 350.992 302.89 349.929 302.89 348.597C302.89 347.146 302.455 346.035 301.585 345.261C300.725 344.488 299.479 344.096 297.846 344.085H293.109V352.979ZM319.61 365H316.516V341.539H319.61V365ZM349.252 365H346.142L334.331 346.921V365H331.221V341.539H334.331L346.175 359.699V341.539H349.252V365ZM378.009 361.922C377.214 363.061 376.102 363.915 374.673 364.484C373.255 365.043 371.601 365.322 369.71 365.322C367.798 365.322 366.101 364.876 364.618 363.985C363.136 363.083 361.987 361.804 361.17 360.15C360.365 358.496 359.951 356.578 359.929 354.397V352.351C359.929 348.817 360.751 346.078 362.395 344.133C364.049 342.189 366.369 341.217 369.356 341.217C371.805 341.217 373.776 341.845 375.269 343.102C376.762 344.348 377.676 346.121 378.009 348.419H374.915C374.335 345.315 372.487 343.763 369.372 343.763C367.299 343.763 365.725 344.493 364.651 345.954C363.587 347.404 363.05 349.51 363.039 352.271V354.188C363.039 356.82 363.641 358.915 364.844 360.472C366.047 362.019 367.675 362.792 369.726 362.792C370.887 362.792 371.902 362.664 372.772 362.406C373.642 362.148 374.362 361.713 374.931 361.101V355.832H369.501V353.318H378.009V361.922ZM406.566 365H403.472V341.539H406.566V365ZM436.208 365H433.099L421.288 346.921V365H418.178V341.539H421.288L433.131 359.699V341.539H436.208V365ZM450.962 365H447.869V341.539H450.962V365ZM478.301 344.085H470.76V365H467.682V344.085H460.157V341.539H478.301V344.085ZM491.041 365H487.947V341.539H491.041V365ZM515.898 358.877H506.069L503.861 365H500.671L509.63 341.539H512.337L521.312 365H518.137L515.898 358.877ZM507.003 356.331H514.979L510.983 345.358L507.003 356.331ZM533.52 362.47H544.638V365H530.41V341.539H533.52V362.47ZM557.426 365H554.332V341.539H557.426V365ZM571.358 362.47H584.781V365H567.701V362.68L580.559 344.085H567.91V341.539H584.265V343.811L571.358 362.47ZM603.337 355.509H597.827V365H594.717V341.539H602.483C605.126 341.539 607.156 342.141 608.574 343.344C610.003 344.547 610.717 346.298 610.717 348.597C610.717 350.058 610.32 351.331 609.525 352.416C608.741 353.5 607.645 354.312 606.238 354.849L611.749 364.807V365H608.429L603.337 355.509ZM597.827 352.979H602.58C604.116 352.979 605.335 352.582 606.238 351.787C607.151 350.992 607.607 349.929 607.607 348.597C607.607 347.146 607.172 346.035 606.302 345.261C605.443 344.488 604.197 344.096 602.564 344.085H597.827V352.979Z" fill="white"/>
</g>
</g>
</svg>
