<svg width="750" height="422" viewBox="0 0 750 422" fill="none" xmlns="http://www.w3.org/2000/svg">
<g id="spring boot">
<rect width="750" height="421.875" fill="#364F6B"/>
<path id="WHAT IS" d="M263.392 150.496L267.439 130.695H271.974L265.903 157H261.531L256.527 137.795L251.414 157H247.024L240.954 130.695H245.488L249.571 150.46L254.594 130.695H258.424L263.392 150.496ZM312.666 157H308.113V145.311H296.352V157H291.781V130.695H296.352V141.644H308.113V130.695H312.666V157ZM349.6 150.875H339.41L337.279 157H332.527L342.464 130.695H346.565L356.519 157H351.75L349.6 150.875ZM340.693 147.19H348.317L344.505 136.278L340.693 147.19ZM392.821 134.381H384.619V157H380.084V134.381H371.955V130.695H392.821V134.381ZM442.174 157H437.621V130.695H442.174V157ZM478.006 150.225C478.006 149.069 477.596 148.178 476.777 147.551C475.97 146.925 474.507 146.293 472.387 145.654C470.267 145.016 468.581 144.305 467.329 143.522C464.932 142.017 463.733 140.054 463.733 137.633C463.733 135.513 464.595 133.767 466.317 132.394C468.051 131.021 470.298 130.334 473.056 130.334C474.886 130.334 476.518 130.671 477.952 131.346C479.385 132.02 480.511 132.984 481.33 134.236C482.149 135.477 482.559 136.856 482.559 138.374H478.006C478.006 137 477.572 135.929 476.705 135.158C475.85 134.375 474.621 133.983 473.02 133.983C471.526 133.983 470.364 134.303 469.533 134.941C468.714 135.579 468.304 136.471 468.304 137.615C468.304 138.578 468.75 139.385 469.641 140.036C470.532 140.674 472.002 141.3 474.049 141.915C476.097 142.517 477.741 143.209 478.981 143.992C480.222 144.763 481.131 145.654 481.709 146.666C482.288 147.666 482.577 148.84 482.577 150.189C482.577 152.381 481.734 154.127 480.047 155.428C478.373 156.717 476.097 157.361 473.218 157.361C471.315 157.361 469.563 157.012 467.961 156.313C466.371 155.603 465.131 154.627 464.239 153.387C463.36 152.146 462.92 150.701 462.92 149.051H467.491C467.491 150.544 467.985 151.701 468.973 152.52C469.96 153.339 471.375 153.748 473.218 153.748C474.808 153.748 476 153.429 476.795 152.791C477.602 152.14 478.006 151.285 478.006 150.225Z" fill="#6CCA00"/>
<path id="Spring Boot" d="M122.655 274.404C122.655 278.61 121.588 282.352 119.455 285.63C117.321 288.877 114.244 291.413 110.224 293.237C106.203 295.031 101.487 295.928 96.0757 295.928C91.5607 295.928 87.7725 295.618 84.7109 295C81.6494 294.351 78.4642 293.237 75.1553 291.66V275.332C78.6497 277.126 82.2834 278.533 86.0562 279.553C89.8289 280.543 93.2925 281.038 96.4468 281.038C99.1681 281.038 101.163 280.574 102.431 279.646C103.699 278.687 104.333 277.466 104.333 275.981C104.333 275.054 104.07 274.25 103.544 273.569C103.049 272.858 102.23 272.147 101.085 271.436C99.9722 270.724 96.9725 269.271 92.0864 267.075C87.6642 265.065 84.3398 263.117 82.1133 261.23C79.9176 259.344 78.2786 257.179 77.1963 254.736C76.1449 252.293 75.6191 249.402 75.6191 246.062C75.6191 239.815 77.8921 234.945 82.438 231.45C86.9839 227.956 93.2306 226.208 101.178 226.208C108.198 226.208 115.357 227.832 122.655 231.079L117.042 245.227C110.703 242.32 105.229 240.867 100.622 240.867C98.2404 240.867 96.5086 241.284 95.4263 242.119C94.3439 242.954 93.8027 243.99 93.8027 245.227C93.8027 246.557 94.4831 247.747 95.8438 248.799C97.2354 249.85 100.977 251.768 107.069 254.551C112.914 257.179 116.965 260.009 119.223 263.04C121.511 266.039 122.655 269.827 122.655 274.404ZM167.89 295.928C165.23 295.928 162.849 295.495 160.746 294.629C158.643 293.732 156.556 292.139 154.484 289.851H153.649C154.206 293.531 154.484 295.819 154.484 296.716V317.822H136.347V242.444H151.098L153.649 249.124H154.484C157.855 244.052 162.509 241.516 168.446 241.516C174.26 241.516 178.822 243.928 182.13 248.752C185.439 253.577 187.094 260.194 187.094 268.606C187.094 277.079 185.362 283.759 181.899 288.645C178.466 293.5 173.796 295.928 167.89 295.928ZM161.813 255.757C159.154 255.757 157.283 256.715 156.2 258.633C155.149 260.519 154.577 263.333 154.484 267.075V268.513C154.484 273.028 155.087 276.291 156.293 278.301C157.499 280.311 159.401 281.316 161.999 281.316C164.318 281.316 166.003 280.326 167.055 278.347C168.106 276.337 168.632 273.028 168.632 268.42C168.632 263.905 168.106 260.674 167.055 258.726C166.003 256.746 164.256 255.757 161.813 255.757ZM233.488 241.516C235.065 241.516 236.565 241.64 237.988 241.887L239.008 242.073L237.384 259.189C235.9 258.818 233.844 258.633 231.215 258.633C227.257 258.633 224.381 259.545 222.587 261.37C220.793 263.163 219.897 265.761 219.897 269.163V295H201.759V242.444H215.258L218.088 250.84H218.969C220.484 248.057 222.587 245.815 225.278 244.114C227.999 242.382 230.736 241.516 233.488 241.516ZM268.888 295H250.751V242.444H268.888V295ZM250.287 229.363C250.287 226.641 251.045 224.616 252.56 223.286C254.076 221.956 256.519 221.292 259.889 221.292C263.26 221.292 265.719 221.972 267.265 223.333C268.811 224.693 269.584 226.703 269.584 229.363C269.584 234.682 266.353 237.341 259.889 237.341C253.488 237.341 250.287 234.682 250.287 229.363ZM318.994 295V266.333C318.994 262.839 318.483 260.21 317.463 258.447C316.473 256.654 314.865 255.757 312.639 255.757C309.577 255.757 307.366 256.978 306.005 259.421C304.645 261.864 303.964 266.055 303.964 271.992V295H285.827V242.444H299.511L301.784 248.938H302.851C304.397 246.464 306.531 244.609 309.252 243.372C312.005 242.135 315.159 241.516 318.715 241.516C324.529 241.516 329.044 243.201 332.26 246.572C335.507 249.943 337.131 254.69 337.131 260.813V295H318.994ZM403.332 242.444V251.211L396.142 253.855C397.132 255.649 397.626 257.736 397.626 260.117C397.626 265.776 395.632 270.168 391.643 273.291C387.684 276.414 381.762 277.976 373.876 277.976C371.928 277.976 370.382 277.852 369.238 277.605C368.805 278.409 368.588 279.167 368.588 279.878C368.588 280.775 369.315 281.471 370.769 281.965C372.222 282.429 374.124 282.661 376.474 282.661H385.195C396.977 282.661 402.868 287.625 402.868 297.551C402.868 303.953 400.131 308.931 394.658 312.488C389.215 316.044 381.561 317.822 371.696 317.822C364.243 317.822 358.492 316.57 354.44 314.065C350.42 311.591 348.41 308.019 348.41 303.35C348.41 297.072 352.307 293.021 360.1 291.196C358.492 290.516 357.084 289.418 355.878 287.903C354.703 286.388 354.116 284.888 354.116 283.403C354.116 281.764 354.564 280.326 355.461 279.089C356.358 277.821 358.229 276.322 361.074 274.59C358.352 273.384 356.203 271.497 354.626 268.931C353.08 266.364 352.307 263.241 352.307 259.561C352.307 253.84 354.255 249.402 358.151 246.248C362.048 243.093 367.614 241.516 374.851 241.516C375.809 241.516 377.464 241.624 379.814 241.841C382.164 242.057 383.896 242.258 385.009 242.444H403.332ZM363.718 301.541C363.718 303.025 364.522 304.215 366.13 305.112C367.738 306.04 369.887 306.504 372.578 306.504C376.969 306.504 380.479 305.947 383.107 304.834C385.767 303.752 387.097 302.345 387.097 300.613C387.097 299.221 386.293 298.232 384.685 297.644C383.076 297.087 380.773 296.809 377.773 296.809H370.676C368.728 296.809 367.073 297.257 365.712 298.154C364.383 299.082 363.718 300.211 363.718 301.541ZM369.423 259.653C369.423 265.034 371.294 267.725 375.036 267.725C376.768 267.725 378.098 267.06 379.025 265.73C379.984 264.4 380.463 262.406 380.463 259.746C380.463 254.303 378.654 251.582 375.036 251.582C371.294 251.582 369.423 254.272 369.423 259.653ZM445.652 227.183H469.309C478.524 227.183 485.359 228.559 489.812 231.311C494.296 234.032 496.538 238.285 496.538 244.067C496.538 247.871 495.564 251.118 493.615 253.809C491.667 256.499 489.1 258.231 485.915 259.004V259.468C490.121 260.581 493.167 262.437 495.053 265.034C496.94 267.632 497.883 271.003 497.883 275.146C497.883 281.3 495.564 286.156 490.925 289.712C486.317 293.237 480.024 295 472.046 295H445.652V227.183ZM463.974 253.206H469.494C472.123 253.206 474.148 252.664 475.571 251.582C477.024 250.5 477.751 248.892 477.751 246.758C477.751 242.954 474.875 241.052 469.123 241.052H463.974V253.206ZM463.974 266.611V280.852H470.422C476.143 280.852 479.004 278.44 479.004 273.616C479.004 271.358 478.23 269.626 476.684 268.42C475.169 267.214 472.958 266.611 470.051 266.611H463.974ZM563.064 268.606C563.064 277.203 560.744 283.914 556.106 288.738C551.498 293.531 545.035 295.928 536.716 295.928C528.738 295.928 522.383 293.469 517.651 288.552C512.951 283.635 510.6 276.986 510.6 268.606C510.6 260.04 512.904 253.391 517.512 248.66C522.151 243.897 528.645 241.516 536.994 241.516C542.159 241.516 546.72 242.614 550.679 244.81C554.637 247.005 557.683 250.16 559.817 254.272C561.981 258.354 563.064 263.132 563.064 268.606ZM529.016 268.606C529.016 273.121 529.619 276.569 530.825 278.95C532.031 281.3 534.057 282.476 536.902 282.476C539.716 282.476 541.695 281.3 542.839 278.95C544.014 276.569 544.602 273.121 544.602 268.606C544.602 264.122 544.014 260.736 542.839 258.447C541.664 256.159 539.654 255.015 536.809 255.015C534.026 255.015 532.031 256.159 530.825 258.447C529.619 260.705 529.016 264.091 529.016 268.606ZM627.92 268.606C627.92 277.203 625.6 283.914 620.962 288.738C616.354 293.531 609.891 295.928 601.572 295.928C593.594 295.928 587.239 293.469 582.507 288.552C577.807 283.635 575.456 276.986 575.456 268.606C575.456 260.04 577.76 253.391 582.368 248.66C587.007 243.897 593.501 241.516 601.85 241.516C607.015 241.516 611.576 242.614 615.535 244.81C619.493 247.005 622.539 250.16 624.673 254.272C626.837 258.354 627.92 263.132 627.92 268.606ZM593.872 268.606C593.872 273.121 594.475 276.569 595.681 278.95C596.887 281.3 598.913 282.476 601.758 282.476C604.572 282.476 606.551 281.3 607.695 278.95C608.87 276.569 609.458 273.121 609.458 268.606C609.458 264.122 608.87 260.736 607.695 258.447C606.52 256.159 604.51 255.015 601.665 255.015C598.882 255.015 596.887 256.159 595.681 258.447C594.475 260.705 593.872 264.091 593.872 268.606ZM668.33 281.594C670.773 281.594 673.695 280.991 677.097 279.785V293.005C674.654 294.057 672.319 294.799 670.093 295.232C667.897 295.696 665.315 295.928 662.346 295.928C656.254 295.928 651.863 294.443 649.172 291.475C646.482 288.475 645.137 283.883 645.137 277.698V256.035H638.782V248.66L646.853 242.954L651.538 231.914H663.413V242.444H676.309V256.035H663.413V276.492C663.413 279.893 665.052 281.594 668.33 281.594Z" fill="#6CCA00"/>
<g id="Component 1">
<path id="Polygon 1" d="M142 70.8868C145.094 69.1004 148.906 69.1004 152 70.8868L196.56 96.6132C199.654 98.3996 201.56 101.701 201.56 105.274V156.726C201.56 160.299 199.654 163.6 196.56 165.387L152 191.113C148.906 192.9 145.094 192.9 142 191.113L97.4404 165.387C94.3464 163.6 92.4404 160.299 92.4404 156.726V105.274C92.4404 101.701 94.3464 98.3996 97.4404 96.6132L142 70.8868Z" fill="#6CCA00"/>
<path id="Vector" d="M161.632 111.297C168.034 115.87 172.2 123.349 172.2 131.813C172.2 145.714 160.941 156.982 147.051 157.013C133.181 157.043 121.82 145.734 121.8 131.854C121.79 123.389 125.956 115.89 132.347 111.307C133.536 110.464 135.193 110.82 135.904 112.09L137.509 114.945C138.109 116.012 137.824 117.364 136.839 118.095C132.622 121.225 129.929 126.184 129.929 131.803C129.919 141.182 137.499 148.884 147 148.884C156.308 148.884 164.132 141.344 164.071 131.701C164.04 126.438 161.561 121.357 157.151 118.085C156.165 117.353 155.891 116.002 156.491 114.945L158.096 112.09C158.807 110.83 160.454 110.454 161.632 111.297ZM151.065 132.626V108.239C151.065 106.887 149.977 105.8 148.626 105.8H145.374C144.023 105.8 142.935 106.887 142.935 108.239V132.626C142.935 133.977 144.023 135.064 145.374 135.064H148.626C149.977 135.064 151.065 133.977 151.065 132.626Z" fill="white"/>
</g>
</g>
</svg>
