<svg width="750" height="422" viewBox="0 0 750 422" fill="none" xmlns="http://www.w3.org/2000/svg">
<g id="spring-boot-app">
<rect width="750" height="421.875" fill="#364F6B"/>
<g id="Frame 6">
<g id="Spring Boot">
<path d="M106.746 162.323C106.746 159.555 105.769 157.439 103.815 155.974C101.861 154.476 98.3447 152.913 93.2651 151.285C88.1855 149.624 84.1641 147.996 81.201 146.4C73.1257 142.037 69.088 136.16 69.088 128.768C69.088 124.926 70.1626 121.507 72.3116 118.511C74.4933 115.483 77.6029 113.122 81.6406 111.429C85.7108 109.736 90.2694 108.889 95.3165 108.889C100.396 108.889 104.922 109.817 108.895 111.673C112.867 113.497 115.944 116.085 118.126 119.439C120.34 122.793 121.447 126.603 121.447 130.868H106.794C106.794 127.612 105.769 125.089 103.717 123.298C101.666 121.474 98.7843 120.563 95.0723 120.563C91.4905 120.563 88.7065 121.328 86.7202 122.858C84.7339 124.356 83.7408 126.342 83.7408 128.817C83.7408 131.129 84.8967 133.066 87.2086 134.629C89.5531 136.192 92.9883 137.658 97.5144 139.025C105.85 141.532 111.923 144.642 115.733 148.354C119.542 152.066 121.447 156.69 121.447 162.225C121.447 168.38 119.119 173.215 114.463 176.732C109.806 180.216 103.538 181.958 95.6584 181.958C90.188 181.958 85.2061 180.965 80.7126 178.978C76.219 176.96 72.7838 174.208 70.4068 170.724C68.0623 167.24 66.8901 163.202 66.8901 158.611H81.5917C81.5917 166.458 86.2806 170.382 95.6584 170.382C99.1425 170.382 101.861 169.682 103.815 168.282C105.769 166.849 106.746 164.863 106.746 162.323ZM184.058 155.046C184.058 163.186 182.202 169.715 178.49 174.631C174.81 179.516 169.828 181.958 163.544 181.958C158.204 181.958 153.889 180.102 150.6 176.39V201.299H136.485V128.133H149.575L150.063 133.311C153.482 129.208 157.943 127.156 163.446 127.156C169.958 127.156 175.022 129.566 178.636 134.385C182.25 139.204 184.058 145.847 184.058 154.313V155.046ZM169.942 154.02C169.942 149.103 169.063 145.31 167.305 142.64C165.579 139.969 163.055 138.634 159.734 138.634C155.306 138.634 152.261 140.328 150.6 143.714V165.351C152.326 168.835 155.403 170.577 159.832 170.577C166.572 170.577 169.942 165.058 169.942 154.02ZM228.547 141.37C226.626 141.109 224.933 140.979 223.468 140.979C218.128 140.979 214.627 142.786 212.967 146.4V180.981H198.851V128.133H212.185L212.576 134.434C215.409 129.582 219.332 127.156 224.347 127.156C225.91 127.156 227.375 127.368 228.743 127.791L228.547 141.37ZM256.284 180.981H242.12V128.133H256.284V180.981ZM241.289 114.457C241.289 112.341 241.989 110.599 243.39 109.231C244.822 107.864 246.76 107.18 249.202 107.18C251.611 107.18 253.533 107.864 254.965 109.231C256.398 110.599 257.114 112.341 257.114 114.457C257.114 116.606 256.382 118.365 254.917 119.732C253.484 121.1 251.579 121.784 249.202 121.784C246.825 121.784 244.904 121.1 243.438 119.732C242.006 118.365 241.289 116.606 241.289 114.457ZM286.951 128.133L287.391 134.239C291.168 129.517 296.231 127.156 302.581 127.156C308.182 127.156 312.35 128.801 315.085 132.09C317.82 135.378 319.22 140.295 319.285 146.84V180.981H305.17V147.182C305.17 144.186 304.518 142.021 303.216 140.686C301.913 139.318 299.748 138.634 296.72 138.634C292.747 138.634 289.768 140.328 287.782 143.714V180.981H273.666V128.133H286.951ZM333.981 154.166C333.981 146.059 335.902 139.53 339.744 134.58C343.619 129.631 348.829 127.156 355.374 127.156C361.17 127.156 365.68 129.143 368.903 133.115L369.49 128.133H382.286V179.223C382.286 183.846 381.228 187.868 379.112 191.287C377.028 194.706 374.081 197.311 370.271 199.102C366.461 200.892 362 201.788 356.888 201.788C353.013 201.788 349.236 201.006 345.557 199.443C341.877 197.913 339.093 195.927 337.205 193.485L343.456 184.888C346.973 188.828 351.239 190.798 356.253 190.798C359.998 190.798 362.912 189.789 364.996 187.77C367.08 185.784 368.122 182.951 368.122 179.271V176.439C364.866 180.118 360.584 181.958 355.276 181.958C348.927 181.958 343.782 179.483 339.842 174.534C335.935 169.552 333.981 162.958 333.981 154.752V154.166ZM348.096 155.192C348.096 159.979 349.057 163.74 350.978 166.475C352.899 169.177 355.537 170.529 358.891 170.529C363.189 170.529 366.266 168.917 368.122 165.693V143.47C366.233 140.246 363.189 138.634 358.988 138.634C355.602 138.634 352.932 140.018 350.978 142.786C349.057 145.554 348.096 149.689 348.096 155.192Z" fill="#6DB33F"/>
<path d="M431.019 180.981V109.866H455.929C464.558 109.866 471.103 111.527 475.564 114.848C480.025 118.137 482.255 122.972 482.255 129.354C482.255 132.838 481.36 135.916 479.569 138.586C477.778 141.223 475.287 143.161 472.096 144.398C475.743 145.31 478.608 147.149 480.692 149.917C482.809 152.685 483.867 156.071 483.867 160.076C483.867 166.914 481.686 172.092 477.322 175.608C472.959 179.125 466.74 180.916 458.664 180.981H431.019ZM445.672 150.015V169.21H458.225C461.676 169.21 464.363 168.396 466.284 166.768C468.238 165.107 469.214 162.828 469.214 159.93C469.214 153.417 465.844 150.112 459.104 150.015H445.672ZM445.672 139.66H456.515C463.907 139.53 467.603 136.583 467.603 130.82C467.603 127.596 466.658 125.284 464.77 123.884C462.914 122.451 459.967 121.735 455.929 121.735H445.672V139.66ZM497.781 154.069C497.781 148.826 498.791 144.154 500.81 140.051C502.828 135.948 505.726 132.773 509.504 130.527C513.313 128.28 517.725 127.156 522.74 127.156C529.871 127.156 535.683 129.338 540.177 133.701C544.703 138.065 547.226 143.991 547.747 151.48L547.845 155.094C547.845 163.202 545.582 169.715 541.056 174.631C536.53 179.516 530.457 181.958 522.838 181.958C515.218 181.958 509.129 179.516 504.571 174.631C500.044 169.747 497.781 163.105 497.781 154.704V154.069ZM511.897 155.094C511.897 160.109 512.841 163.951 514.73 166.621C516.618 169.259 519.321 170.577 522.838 170.577C526.257 170.577 528.927 169.275 530.848 166.67C532.769 164.033 533.73 159.832 533.73 154.069C533.73 149.152 532.769 145.342 530.848 142.64C528.927 139.937 526.224 138.586 522.74 138.586C519.288 138.586 516.618 139.937 514.73 142.64C512.841 145.31 511.897 149.461 511.897 155.094ZM560.343 154.069C560.343 148.826 561.352 144.154 563.371 140.051C565.39 135.948 568.288 132.773 572.065 130.527C575.875 128.28 580.287 127.156 585.301 127.156C592.432 127.156 598.245 129.338 602.738 133.701C607.264 138.065 609.788 143.991 610.309 151.48L610.407 155.094C610.407 163.202 608.143 169.715 603.617 174.631C599.091 179.516 593.019 181.958 585.399 181.958C577.78 181.958 571.691 179.516 567.132 174.631C562.606 169.747 560.343 163.105 560.343 154.704V154.069ZM574.458 155.094C574.458 160.109 575.403 163.951 577.291 166.621C579.18 169.259 581.882 170.577 585.399 170.577C588.818 170.577 591.488 169.275 593.409 166.67C595.33 164.033 596.291 159.832 596.291 154.069C596.291 149.152 595.33 145.342 593.409 142.64C591.488 139.937 588.786 138.586 585.301 138.586C581.85 138.586 579.18 139.937 577.291 142.64C575.403 145.31 574.458 149.461 574.458 155.094ZM642.002 115.141V128.133H651.038V138.488H642.002V164.863C642.002 166.817 642.376 168.217 643.125 169.063C643.874 169.91 645.307 170.333 647.423 170.333C648.986 170.333 650.37 170.219 651.575 169.991V180.688C648.807 181.535 645.958 181.958 643.028 181.958C633.129 181.958 628.082 176.96 627.886 166.963V138.488H620.169V128.133H627.886V115.141H642.002Z" fill="#020202"/>
</g>
</g>
<g id="Frame 5">
<path id="REST API ANNOTATIONS" d="M200.784 256.612H196.574V266H191.29V240.354H200.819C203.849 240.354 206.186 241.029 207.83 242.379C209.474 243.73 210.296 245.638 210.296 248.104C210.296 249.854 209.914 251.316 209.151 252.49C208.399 253.652 207.254 254.58 205.716 255.273L211.264 265.753V266H205.593L200.784 256.612ZM196.574 252.331H200.837C202.164 252.331 203.191 251.997 203.919 251.327C204.647 250.646 205.011 249.713 205.011 248.527C205.011 247.317 204.665 246.366 203.972 245.673C203.291 244.98 202.24 244.634 200.819 244.634H196.574V252.331ZM236.433 254.885H226.287V261.755H238.195V266H221.003V240.354H238.159V244.634H226.287V250.746H236.433V254.885ZM261.267 259.271C261.267 258.273 260.915 257.51 260.21 256.981C259.506 256.441 258.238 255.878 256.406 255.291C254.574 254.692 253.124 254.104 252.055 253.529C249.143 251.956 247.687 249.836 247.687 247.17C247.687 245.785 248.074 244.552 248.849 243.471C249.636 242.379 250.757 241.528 252.213 240.917C253.681 240.307 255.325 240.001 257.145 240.001C258.977 240.001 260.61 240.336 262.042 241.005C263.475 241.663 264.585 242.596 265.371 243.806C266.17 245.016 266.569 246.389 266.569 247.928H261.285C261.285 246.753 260.915 245.843 260.175 245.198C259.435 244.54 258.396 244.211 257.057 244.211C255.766 244.211 254.762 244.487 254.045 245.039C253.329 245.579 252.971 246.295 252.971 247.188C252.971 248.022 253.388 248.72 254.222 249.284C255.067 249.848 256.306 250.376 257.938 250.869C260.944 251.774 263.134 252.895 264.508 254.234C265.882 255.572 266.569 257.24 266.569 259.236C266.569 261.456 265.73 263.199 264.05 264.468C262.371 265.724 260.111 266.352 257.269 266.352C255.296 266.352 253.499 265.994 251.879 265.278C250.258 264.55 249.019 263.557 248.162 262.301C247.317 261.045 246.894 259.588 246.894 257.933H252.196C252.196 260.763 253.887 262.178 257.269 262.178C258.525 262.178 259.506 261.925 260.21 261.42C260.915 260.904 261.267 260.187 261.267 259.271ZM296.141 244.634H288.285V266H283.001V244.634H275.251V240.354H296.141V244.634ZM334.924 260.716H325.659L323.897 266H318.278L327.825 240.354H332.722L342.322 266H336.703L334.924 260.716ZM327.085 256.435H333.497L330.274 246.836L327.085 256.435ZM356.675 256.964V266H351.391V240.354H361.396C363.322 240.354 365.013 240.706 366.469 241.41C367.937 242.115 369.064 243.119 369.851 244.422C370.638 245.714 371.031 247.188 371.031 248.844C371.031 251.357 370.168 253.341 368.442 254.797C366.727 256.242 364.349 256.964 361.308 256.964H356.675ZM356.675 252.684H361.396C362.793 252.684 363.856 252.355 364.584 251.697C365.324 251.04 365.694 250.1 365.694 248.879C365.694 247.622 365.324 246.607 364.584 245.832C363.844 245.057 362.823 244.657 361.519 244.634H356.675V252.684ZM386.97 266H381.686V240.354H386.97V266ZM205.769 305.716H196.504L194.742 311H189.123L198.67 285.354H203.567L213.167 311H207.548L205.769 305.716ZM197.93 301.435H204.342L201.119 291.836L197.93 301.435ZM243.091 311H237.807L227.52 294.126V311H222.236V285.354H227.52L237.825 302.263V285.354H243.091V311ZM275.235 311H269.951L259.664 294.126V311H254.38V285.354H259.664L269.969 302.263V285.354H275.235V311ZM307.591 298.758C307.591 301.283 307.144 303.496 306.252 305.399C305.36 307.301 304.08 308.769 302.412 309.802C300.756 310.836 298.854 311.352 296.705 311.352C294.58 311.352 292.683 310.841 291.016 309.82C289.348 308.798 288.056 307.342 287.141 305.451C286.225 303.549 285.761 301.365 285.749 298.899V297.631C285.749 295.106 286.201 292.887 287.105 290.973C288.021 289.047 289.307 287.573 290.963 286.551C292.63 285.518 294.533 285.001 296.67 285.001C298.807 285.001 300.704 285.518 302.359 286.551C304.027 287.573 305.313 289.047 306.217 290.973C307.133 292.887 307.591 295.1 307.591 297.613V298.758ZM302.236 297.596C302.236 294.906 301.754 292.863 300.792 291.466C299.829 290.068 298.455 289.37 296.67 289.37C294.897 289.37 293.529 290.062 292.566 291.448C291.603 292.822 291.115 294.842 291.104 297.507V298.758C291.104 301.377 291.585 303.408 292.548 304.853C293.511 306.297 294.897 307.019 296.705 307.019C298.478 307.019 299.84 306.326 300.792 304.941C301.743 303.543 302.224 301.512 302.236 298.846V297.596ZM335.895 289.634H328.039V311H322.754V289.634H315.004V285.354H335.895V289.634ZM357.963 305.716H348.698L346.937 311H341.318L350.865 285.354H355.762L365.361 311H359.742L357.963 305.716ZM350.125 301.435H356.537L353.313 291.836L350.125 301.435ZM391.622 289.634H383.766V311H378.482V289.634H370.732V285.354H391.622V289.634ZM406.944 311H401.66V285.354H406.944V311ZM439.599 298.758C439.599 301.283 439.153 303.496 438.261 305.399C437.368 307.301 436.088 308.769 434.421 309.802C432.765 310.836 430.863 311.352 428.714 311.352C426.588 311.352 424.692 310.841 423.024 309.82C421.357 308.798 420.065 307.342 419.149 305.451C418.233 303.549 417.769 301.365 417.758 298.899V297.631C417.758 295.106 418.21 292.887 419.114 290.973C420.03 289.047 421.316 287.573 422.971 286.551C424.639 285.518 426.541 285.001 428.678 285.001C430.816 285.001 432.712 285.518 434.368 286.551C436.035 287.573 437.321 289.047 438.225 290.973C439.141 292.887 439.599 295.1 439.599 297.613V298.758ZM434.245 297.596C434.245 294.906 433.763 292.863 432.8 291.466C431.837 290.068 430.463 289.37 428.678 289.37C426.905 289.37 425.537 290.062 424.574 291.448C423.611 292.822 423.124 294.842 423.112 297.507V298.758C423.112 301.377 423.594 303.408 424.557 304.853C425.52 306.297 426.905 307.019 428.714 307.019C430.487 307.019 431.849 306.326 432.8 304.941C433.751 303.543 434.233 301.512 434.245 298.846V297.596ZM470.968 311H465.684L455.397 294.126V311H450.113V285.354H455.397L465.702 302.263V285.354H470.968V311ZM495.556 304.271C495.556 303.273 495.203 302.51 494.499 301.981C493.794 301.441 492.526 300.878 490.694 300.291C488.862 299.692 487.412 299.104 486.343 298.529C483.431 296.956 481.975 294.836 481.975 292.17C481.975 290.785 482.363 289.552 483.138 288.471C483.924 287.379 485.046 286.528 486.502 285.917C487.97 285.307 489.614 285.001 491.434 285.001C493.266 285.001 494.898 285.336 496.331 286.005C497.763 286.663 498.873 287.596 499.66 288.806C500.458 290.016 500.858 291.389 500.858 292.928H495.573C495.573 291.753 495.203 290.843 494.464 290.198C493.724 289.54 492.685 289.211 491.346 289.211C490.054 289.211 489.05 289.487 488.334 290.039C487.617 290.579 487.259 291.295 487.259 292.188C487.259 293.022 487.676 293.72 488.51 294.284C489.355 294.848 490.594 295.376 492.227 295.869C495.233 296.774 497.423 297.895 498.797 299.234C500.171 300.572 500.858 302.24 500.858 304.236C500.858 306.456 500.018 308.199 498.339 309.468C496.659 310.724 494.399 311.352 491.557 311.352C489.584 311.352 487.788 310.994 486.167 310.278C484.547 309.55 483.308 308.557 482.451 307.301C481.605 306.045 481.182 304.588 481.182 302.933H486.484C486.484 305.763 488.175 307.178 491.557 307.178C492.814 307.178 493.794 306.925 494.499 306.42C495.203 305.904 495.556 305.187 495.556 304.271Z" fill="white"/>
</g>
<g id="Group">
<path id="Vector" d="M155.523 266.949L137.66 235.924C136.122 233.254 132.277 231 129.201 231H93.475C90.3992 231 86.5545 233.195 85.0166 235.924L67.1534 266.949C65.6155 269.619 65.6155 274.068 67.1534 276.737L85.0166 307.763C86.5545 310.432 90.3992 312.686 93.475 312.686H129.201C132.277 312.686 136.122 310.492 137.66 307.763L155.523 276.737C157.12 274.008 157.12 269.619 155.523 266.949Z" fill="#6DB33F"/>
<g id="Group_2">
<path id="Vector_2" d="M86.4956 301.771C88.4883 301.771 90.1037 300.151 90.1037 298.153C90.1037 296.154 88.4883 294.534 86.4956 294.534C84.5029 294.534 82.8875 296.154 82.8875 298.153C82.8875 300.151 84.5029 301.771 86.4956 301.771Z" fill="white"/>
</g>
<g id="Group_3">
<path id="Vector_3" d="M147.005 287.593C136.536 301.593 114.177 296.847 99.8629 297.559C99.8629 297.559 97.3194 297.678 94.776 298.093C94.776 298.093 95.7224 297.678 96.9645 297.263C107.02 293.763 111.752 293.051 117.903 289.907C129.378 284.034 140.794 271.161 143.16 257.813C138.783 270.627 125.475 281.72 113.408 286.169C105.127 289.254 90.1623 292.22 90.1623 292.22L89.5708 291.924C79.2788 287 78.9831 264.813 97.4969 257.695C105.6 254.551 113.408 256.271 122.162 254.195C131.508 251.941 142.332 244.941 146.768 235.746C151.678 250.457 157.593 273.415 147.005 287.593Z" fill="white"/>
<path id="Vector_4" d="M146.768 235.746C151.678 250.458 157.652 273.415 147.005 287.593C140.439 296.373 129.201 297.797 118.199 297.797C112.994 297.797 107.848 297.5 103.294 297.5C102.111 297.5 100.987 297.5 99.922 297.559C99.922 297.559 97.3786 297.678 94.8351 298.093C94.8351 298.093 95.7815 297.678 97.0237 297.263C107.079 293.763 111.811 293.051 117.963 289.907C129.438 284.034 140.853 271.161 143.219 257.814C138.842 270.627 125.534 281.72 113.467 286.169C105.186 289.254 90.2215 292.22 90.2215 292.22L89.63 291.924C79.2788 287 78.9831 264.814 97.4969 257.695C105.6 254.551 113.408 256.271 122.162 254.195C131.508 252 142.332 244.941 146.768 235.746ZM147.064 231.059L145.171 234.975C140.735 244.229 129.911 250.517 121.748 252.475C118.081 253.364 114.473 253.542 111.042 253.72C106.488 253.958 101.756 254.195 96.9054 256.034C85.4895 260.424 81.1124 270.034 80.8167 277.568C80.521 284.746 83.5967 290.975 88.6244 293.525C88.9202 293.703 89.5708 294.059 90.1032 294.059H90.8721L90.9904 293.941C94.4211 293.229 106.665 290.619 114 287.949C119.086 286.051 124.824 282.847 130.029 278.576C126.184 282.669 121.689 286.11 117.134 288.424C113.408 290.322 110.214 291.331 105.778 292.695C103.175 293.466 100.159 294.415 96.4913 295.661C95.19 296.076 94.2436 296.551 94.1845 296.551L92.8832 299.22L95.19 299.932C97.6152 299.517 100.04 299.398 100.099 299.398C101.105 299.339 102.17 299.339 103.353 299.339C105.541 299.339 107.848 299.398 110.273 299.517C112.876 299.576 115.537 299.695 118.258 299.695C129.201 299.695 141.327 298.39 148.484 288.78C156.824 277.627 156.883 260.127 148.543 235.271L147.064 231.059Z" fill="#6CCA00"/>
</g>
</g>
</g>
</svg>
