<svg width="750" height="422" viewBox="0 0 750 422" fill="none" xmlns="http://www.w3.org/2000/svg">
<g id="spring boot">
<rect width="750" height="421.875" fill="#364F6B"/>
<path id="WHAT IS" d="M228.099 189.412L231.64 170.695H237.042L231.207 197H225.751L221.469 179.403L217.187 197H211.731L205.896 170.695H211.298L214.857 189.376L219.193 170.695H223.781L228.099 189.412ZM270.276 197H264.856V185.727H254.287V197H248.867V170.695H254.287V181.354H264.856V170.695H270.276V197ZM299.083 191.58H289.58L287.773 197H282.01L291.802 170.695H296.825L306.671 197H300.908L299.083 191.58ZM291.043 187.19H297.62L294.313 177.344L291.043 187.19ZM335.641 175.085H327.583V197H322.163V175.085H314.214V170.695H335.641V175.085ZM370.401 197H364.981V170.695H370.401V197ZM397.962 190.099C397.962 189.075 397.6 188.292 396.878 187.75C396.155 187.196 394.854 186.618 392.975 186.016C391.097 185.401 389.609 184.799 388.513 184.209C385.526 182.595 384.033 180.421 384.033 177.687C384.033 176.266 384.43 175.001 385.225 173.893C386.032 172.773 387.182 171.9 388.676 171.273C390.181 170.647 391.867 170.334 393.734 170.334C395.613 170.334 397.287 170.677 398.757 171.364C400.226 172.038 401.364 172.996 402.171 174.236C402.99 175.477 403.4 176.886 403.4 178.464H397.98C397.98 177.259 397.6 176.326 396.842 175.664C396.083 174.989 395.017 174.652 393.644 174.652C392.319 174.652 391.289 174.935 390.555 175.501C389.82 176.055 389.452 176.79 389.452 177.705C389.452 178.56 389.88 179.277 390.735 179.855C391.602 180.433 392.873 180.975 394.547 181.481C397.631 182.408 399.877 183.559 401.286 184.932C402.695 186.305 403.4 188.015 403.4 190.062C403.4 192.339 402.539 194.127 400.816 195.428C399.094 196.717 396.775 197.361 393.861 197.361C391.837 197.361 389.994 196.994 388.332 196.259C386.67 195.513 385.4 194.495 384.52 193.206C383.653 191.917 383.22 190.424 383.22 188.726H388.658C388.658 191.628 390.392 193.08 393.861 193.08C395.149 193.08 396.155 192.821 396.878 192.303C397.6 191.773 397.962 191.038 397.962 190.099Z" fill="white"/>
<path id="Spring Boot" d="M121.655 284.404C121.655 288.61 120.588 292.352 118.455 295.63C116.321 298.877 113.244 301.413 109.224 303.237C105.203 305.031 100.487 305.928 95.0757 305.928C90.5607 305.928 86.7725 305.618 83.7109 305C80.6494 304.351 77.4642 303.237 74.1553 301.66V285.332C77.6497 287.126 81.2834 288.533 85.0562 289.553C88.8289 290.543 92.2925 291.038 95.4468 291.038C98.1681 291.038 100.163 290.574 101.431 289.646C102.699 288.687 103.333 287.466 103.333 285.981C103.333 285.054 103.07 284.25 102.544 283.569C102.049 282.858 101.23 282.147 100.085 281.436C98.9722 280.724 95.9725 279.271 91.0864 277.075C86.6642 275.065 83.3398 273.117 81.1133 271.23C78.9176 269.344 77.2786 267.179 76.1963 264.736C75.1449 262.293 74.6191 259.402 74.6191 256.062C74.6191 249.815 76.8921 244.945 81.438 241.45C85.9839 237.956 92.2306 236.208 100.178 236.208C107.198 236.208 114.357 237.832 121.655 241.079L116.042 255.227C109.703 252.32 104.229 250.867 99.6216 250.867C97.2404 250.867 95.5086 251.284 94.4263 252.119C93.3439 252.954 92.8027 253.99 92.8027 255.227C92.8027 256.557 93.4831 257.747 94.8438 258.799C96.2354 259.85 99.9772 261.768 106.069 264.551C111.914 267.179 115.965 270.009 118.223 273.04C120.511 276.039 121.655 279.827 121.655 284.404ZM166.89 305.928C164.23 305.928 161.849 305.495 159.746 304.629C157.643 303.732 155.556 302.139 153.484 299.851H152.649C153.206 303.531 153.484 305.819 153.484 306.716V327.822H135.347V252.444H150.098L152.649 259.124H153.484C156.855 254.052 161.509 251.516 167.446 251.516C173.26 251.516 177.822 253.928 181.13 258.752C184.439 263.577 186.094 270.194 186.094 278.606C186.094 287.079 184.362 293.759 180.899 298.645C177.466 303.5 172.796 305.928 166.89 305.928ZM160.813 265.757C158.154 265.757 156.283 266.715 155.2 268.633C154.149 270.519 153.577 273.333 153.484 277.075V278.513C153.484 283.028 154.087 286.291 155.293 288.301C156.499 290.311 158.401 291.316 160.999 291.316C163.318 291.316 165.003 290.326 166.055 288.347C167.106 286.337 167.632 283.028 167.632 278.42C167.632 273.905 167.106 270.674 166.055 268.726C165.003 266.746 163.256 265.757 160.813 265.757ZM232.488 251.516C234.065 251.516 235.565 251.64 236.988 251.887L238.008 252.073L236.384 269.189C234.9 268.818 232.844 268.633 230.215 268.633C226.257 268.633 223.381 269.545 221.587 271.37C219.793 273.163 218.897 275.761 218.897 279.163V305H200.759V252.444H214.258L217.088 260.84H217.969C219.484 258.057 221.587 255.815 224.278 254.114C226.999 252.382 229.736 251.516 232.488 251.516ZM267.888 305H249.751V252.444H267.888V305ZM249.287 239.363C249.287 236.641 250.045 234.616 251.56 233.286C253.076 231.956 255.519 231.292 258.889 231.292C262.26 231.292 264.719 231.972 266.265 233.333C267.811 234.693 268.584 236.703 268.584 239.363C268.584 244.682 265.353 247.341 258.889 247.341C252.488 247.341 249.287 244.682 249.287 239.363ZM317.994 305V276.333C317.994 272.839 317.483 270.21 316.463 268.447C315.473 266.654 313.865 265.757 311.639 265.757C308.577 265.757 306.366 266.978 305.005 269.421C303.645 271.864 302.964 276.055 302.964 281.992V305H284.827V252.444H298.511L300.784 258.938H301.851C303.397 256.464 305.531 254.609 308.252 253.372C311.005 252.135 314.159 251.516 317.715 251.516C323.529 251.516 328.044 253.201 331.26 256.572C334.507 259.943 336.131 264.69 336.131 270.813V305H317.994ZM402.332 252.444V261.211L395.142 263.855C396.132 265.649 396.626 267.736 396.626 270.117C396.626 275.776 394.632 280.168 390.643 283.291C386.684 286.414 380.762 287.976 372.876 287.976C370.928 287.976 369.382 287.852 368.238 287.605C367.805 288.409 367.588 289.167 367.588 289.878C367.588 290.775 368.315 291.471 369.769 291.965C371.222 292.429 373.124 292.661 375.474 292.661H384.195C395.977 292.661 401.868 297.625 401.868 307.551C401.868 313.953 399.131 318.931 393.658 322.488C388.215 326.044 380.561 327.822 370.696 327.822C363.243 327.822 357.492 326.57 353.44 324.065C349.42 321.591 347.41 318.019 347.41 313.35C347.41 307.072 351.307 303.021 359.1 301.196C357.492 300.516 356.084 299.418 354.878 297.903C353.703 296.388 353.116 294.888 353.116 293.403C353.116 291.764 353.564 290.326 354.461 289.089C355.358 287.821 357.229 286.322 360.074 284.59C357.352 283.384 355.203 281.497 353.626 278.931C352.08 276.364 351.307 273.241 351.307 269.561C351.307 263.84 353.255 259.402 357.151 256.248C361.048 253.093 366.614 251.516 373.851 251.516C374.809 251.516 376.464 251.624 378.814 251.841C381.164 252.057 382.896 252.258 384.009 252.444H402.332ZM362.718 311.541C362.718 313.025 363.522 314.215 365.13 315.112C366.738 316.04 368.887 316.504 371.578 316.504C375.969 316.504 379.479 315.947 382.107 314.834C384.767 313.752 386.097 312.345 386.097 310.613C386.097 309.221 385.293 308.232 383.685 307.644C382.076 307.087 379.773 306.809 376.773 306.809H369.676C367.728 306.809 366.073 307.257 364.712 308.154C363.383 309.082 362.718 310.211 362.718 311.541ZM368.423 269.653C368.423 275.034 370.294 277.725 374.036 277.725C375.768 277.725 377.098 277.06 378.025 275.73C378.984 274.4 379.463 272.406 379.463 269.746C379.463 264.303 377.654 261.582 374.036 261.582C370.294 261.582 368.423 264.272 368.423 269.653ZM444.652 237.183H468.309C477.524 237.183 484.359 238.559 488.812 241.311C493.296 244.032 495.538 248.285 495.538 254.067C495.538 257.871 494.564 261.118 492.615 263.809C490.667 266.499 488.1 268.231 484.915 269.004V269.468C489.121 270.581 492.167 272.437 494.053 275.034C495.94 277.632 496.883 281.003 496.883 285.146C496.883 291.3 494.564 296.156 489.925 299.712C485.317 303.237 479.024 305 471.046 305H444.652V237.183ZM462.974 263.206H468.494C471.123 263.206 473.148 262.664 474.571 261.582C476.024 260.5 476.751 258.892 476.751 256.758C476.751 252.954 473.875 251.052 468.123 251.052H462.974V263.206ZM462.974 276.611V290.852H469.422C475.143 290.852 478.004 288.44 478.004 283.616C478.004 281.358 477.23 279.626 475.684 278.42C474.169 277.214 471.958 276.611 469.051 276.611H462.974ZM562.064 278.606C562.064 287.203 559.744 293.914 555.106 298.738C550.498 303.531 544.035 305.928 535.716 305.928C527.738 305.928 521.383 303.469 516.651 298.552C511.951 293.635 509.6 286.986 509.6 278.606C509.6 270.04 511.904 263.391 516.512 258.66C521.151 253.897 527.645 251.516 535.994 251.516C541.159 251.516 545.72 252.614 549.679 254.81C553.637 257.005 556.683 260.16 558.817 264.272C560.981 268.354 562.064 273.132 562.064 278.606ZM528.016 278.606C528.016 283.121 528.619 286.569 529.825 288.95C531.031 291.3 533.057 292.476 535.902 292.476C538.716 292.476 540.695 291.3 541.839 288.95C543.014 286.569 543.602 283.121 543.602 278.606C543.602 274.122 543.014 270.736 541.839 268.447C540.664 266.159 538.654 265.015 535.809 265.015C533.026 265.015 531.031 266.159 529.825 268.447C528.619 270.705 528.016 274.091 528.016 278.606ZM626.92 278.606C626.92 287.203 624.6 293.914 619.962 298.738C615.354 303.531 608.891 305.928 600.572 305.928C592.594 305.928 586.239 303.469 581.507 298.552C576.807 293.635 574.456 286.986 574.456 278.606C574.456 270.04 576.76 263.391 581.368 258.66C586.007 253.897 592.501 251.516 600.85 251.516C606.015 251.516 610.576 252.614 614.535 254.81C618.493 257.005 621.539 260.16 623.673 264.272C625.837 268.354 626.92 273.132 626.92 278.606ZM592.872 278.606C592.872 283.121 593.475 286.569 594.681 288.95C595.887 291.3 597.913 292.476 600.758 292.476C603.572 292.476 605.551 291.3 606.695 288.95C607.87 286.569 608.458 283.121 608.458 278.606C608.458 274.122 607.87 270.736 606.695 268.447C605.52 266.159 603.51 265.015 600.665 265.015C597.882 265.015 595.887 266.159 594.681 268.447C593.475 270.705 592.872 274.091 592.872 278.606ZM667.33 291.594C669.773 291.594 672.695 290.991 676.097 289.785V303.005C673.654 304.057 671.319 304.799 669.093 305.232C666.897 305.696 664.315 305.928 661.346 305.928C655.254 305.928 650.863 304.443 648.172 301.475C645.482 298.475 644.137 293.883 644.137 287.698V266.035H637.782V258.66L645.853 252.954L650.538 241.914H662.413V252.444H675.309V266.035H662.413V286.492C662.413 289.893 664.052 291.594 667.33 291.594Z" fill="#6DB33F"/>
<g id="Group">
<path id="Vector" d="M187.553 135.41L163.498 93.6304C161.427 90.0356 156.25 87 152.108 87H103.998C99.8563 87 94.6789 89.9557 92.608 93.6304L68.5532 135.41C66.4823 139.004 66.4823 144.996 68.5532 148.59L92.608 190.37C94.6789 193.964 99.8563 197 103.998 197H152.108C156.25 197 161.427 194.044 163.498 190.37L187.553 148.59C189.703 144.916 189.703 139.004 187.553 135.41Z" fill="#6DB33F"/>
<g id="Group_2">
<path id="Vector_2" d="M94.5996 182.301C97.2831 182.301 99.4584 180.12 99.4584 177.428C99.4584 174.737 97.2831 172.556 94.5996 172.556C91.9162 172.556 89.7409 174.737 89.7409 177.428C89.7409 180.12 91.9162 182.301 94.5996 182.301Z" fill="white"/>
</g>
<g id="Group_3">
<path id="Vector_3" d="M176.082 163.209C161.984 182.062 131.876 175.671 112.6 176.63C112.6 176.63 109.175 176.789 105.75 177.349C105.75 177.349 107.024 176.789 108.697 176.23C122.238 171.517 128.61 170.559 136.894 166.325C152.346 158.416 167.719 141.081 170.905 123.108C165.011 140.362 147.089 155.301 130.84 161.292C119.689 165.446 99.5372 169.44 99.5372 169.44L98.7406 169.041C84.8813 162.41 84.483 132.534 109.414 122.948C120.326 118.714 130.84 121.031 142.629 118.235C155.214 115.199 169.79 105.773 175.764 93.3907C182.375 113.202 190.34 144.117 176.082 163.209Z" fill="white"/>
<path id="Vector_4" d="M175.764 93.3908C182.375 113.202 190.42 144.117 176.082 163.209C167.241 175.032 152.107 176.949 137.292 176.949C130.283 176.949 123.353 176.55 117.22 176.55C115.627 176.55 114.113 176.55 112.68 176.63C112.68 176.63 109.255 176.79 105.83 177.349C105.83 177.349 107.104 176.79 108.777 176.23C122.318 171.517 128.69 170.559 136.973 166.325C152.426 158.416 167.799 141.081 170.985 123.108C165.09 140.363 147.169 155.301 130.92 161.292C119.769 165.446 99.6169 169.44 99.6169 169.44L98.8203 169.041C84.8813 162.41 84.4831 132.534 109.414 122.948C120.326 118.714 130.84 121.031 142.629 118.235C155.214 115.279 169.79 105.773 175.764 93.3908ZM176.162 87.08L173.613 92.3523C167.639 104.814 153.063 113.282 142.071 115.918C137.133 117.116 132.274 117.356 127.654 117.596C121.521 117.915 115.149 118.235 108.617 120.711C93.2447 126.623 87.3505 139.564 86.9523 149.709C86.554 159.375 90.6959 167.763 97.4663 171.198C97.8645 171.437 98.7407 171.917 99.4576 171.917H100.493L100.652 171.757C105.272 170.798 121.76 167.283 131.637 163.689C138.487 161.132 146.213 156.819 153.222 151.067C148.045 156.579 141.991 161.212 135.858 164.328C130.84 166.884 126.539 168.242 120.565 170.079C117.061 171.118 112.998 172.396 108.06 174.073C106.308 174.633 105.033 175.272 104.954 175.272L103.201 178.867L106.308 179.825C109.573 179.266 112.839 179.106 112.919 179.106C114.273 179.026 115.706 179.026 117.299 179.026C120.247 179.026 123.353 179.106 126.619 179.266C130.123 179.346 133.708 179.506 137.372 179.506C152.107 179.506 168.436 177.748 178.074 164.807C189.304 149.789 189.384 126.223 178.153 92.7518L176.162 87.08Z" fill="#6CCA00"/>
</g>
</g>
</g>
</svg>
