<svg width="48" height="48" viewBox="0 0 48 48" fill="none" xmlns="http://www.w3.org/2000/svg">
<path d="M24 0L44.7846 12V36L24 48L3.21539 36V12L24 0Z" fill="#0F0F0F"/>
<path d="M8.91154 15.2887L24 6.57735L39.0885 15.2887V32.7113L24 41.4226L8.91154 32.7113V15.2887Z" stroke="white"/>
<path d="M20.792 28.392C20.92 28.392 21.02 28.424 21.092 28.488C21.172 28.56 21.212 28.656 21.212 28.776C21.212 28.904 21.172 29 21.092 29.064C21.02 29.128 20.92 29.16 20.792 29.16H19.964C19.572 29.16 19.272 29.052 19.064 28.836C18.856 28.628 18.752 28.328 18.752 27.936V25.212C18.752 24.884 18.688 24.644 18.56 24.492C18.44 24.34 18.224 24.256 17.912 24.24C17.776 24.232 17.672 24.192 17.6 24.12C17.528 24.048 17.492 23.956 17.492 23.844C17.492 23.732 17.528 23.64 17.6 23.568C17.672 23.496 17.776 23.456 17.912 23.448C18.224 23.432 18.44 23.352 18.56 23.208C18.688 23.056 18.752 22.816 18.752 22.488V19.764C18.752 19.372 18.856 19.072 19.064 18.864C19.272 18.648 19.572 18.54 19.964 18.54H20.792C20.92 18.54 21.02 18.572 21.092 18.636C21.172 18.7 21.212 18.796 21.212 18.924C21.212 19.044 21.172 19.14 21.092 19.212C21.02 19.276 20.92 19.308 20.792 19.308H20.228C19.884 19.308 19.712 19.488 19.712 19.848V22.584C19.712 22.936 19.624 23.22 19.448 23.436C19.28 23.652 19.076 23.788 18.836 23.844C19.076 23.9 19.28 24.036 19.448 24.252C19.624 24.468 19.712 24.752 19.712 25.104V27.852C19.712 28.212 19.884 28.392 20.228 28.392H20.792ZM30.6945 23.448C30.8305 23.456 30.9345 23.496 31.0065 23.568C31.0785 23.64 31.1145 23.732 31.1145 23.844C31.1145 23.956 31.0785 24.048 31.0065 24.12C30.9345 24.192 30.8305 24.232 30.6945 24.24C30.3825 24.256 30.1665 24.34 30.0465 24.492C29.9265 24.636 29.8665 24.876 29.8665 25.212L29.8545 27.936C29.8545 28.328 29.7505 28.628 29.5425 28.836C29.3345 29.052 29.0345 29.16 28.6425 29.16H27.8145C27.6865 29.16 27.5825 29.128 27.5025 29.064C27.4305 29 27.3945 28.904 27.3945 28.776C27.3945 28.656 27.4305 28.56 27.5025 28.488C27.5825 28.424 27.6865 28.392 27.8145 28.392H28.3665C28.7185 28.392 28.8945 28.212 28.8945 27.852V25.104C28.8945 24.752 28.9785 24.468 29.1465 24.252C29.3225 24.036 29.5305 23.9 29.7705 23.844C29.5305 23.788 29.3225 23.652 29.1465 23.436C28.9785 23.22 28.8945 22.936 28.8945 22.584V19.848C28.8945 19.488 28.7185 19.308 28.3665 19.308H27.8145C27.6865 19.308 27.5825 19.276 27.5025 19.212C27.4305 19.14 27.3945 19.044 27.3945 18.924C27.3945 18.796 27.4305 18.7 27.5025 18.636C27.5825 18.572 27.6865 18.54 27.8145 18.54H28.6425C29.0345 18.54 29.3345 18.648 29.5425 18.864C29.7505 19.072 29.8545 19.372 29.8545 19.764V22.488C29.8545 22.816 29.9145 23.056 30.0345 23.208C30.1625 23.352 30.3825 23.432 30.6945 23.448Z" fill="white"/>
</svg>
