<svg width="48" height="48" viewBox="0 0 48 48" fill="none" xmlns="http://www.w3.org/2000/svg">
<path d="M24 0L44.7846 12V36L24 48L3.21539 36V12L24 0Z" fill="#0F0F0F"/>
<path d="M9.41154 15.5773L24 7.1547L38.5885 15.5773V32.4226L24 40.8453L9.41154 32.4226V15.5773Z" stroke="white" stroke-width="2"/>
<path d="M23.451 31.17C22.6917 31.17 21.989 31.0227 21.343 30.728C20.7083 30.422 20.187 29.997 19.779 29.453L21.037 27.94C21.6943 28.8467 22.482 29.3 23.4 29.3C24.6353 29.3 25.253 28.569 25.253 27.107V20.953H21.02V19.1H27.463V26.988C27.463 28.382 27.123 29.4303 26.443 30.133C25.763 30.8243 24.7657 31.17 23.451 31.17Z" fill="white"/>
<path d="M18.106 31.204C16.8933 31.204 15.794 30.9433 14.808 30.422C13.8333 29.8893 13.0627 29.1583 12.496 28.229C11.9407 27.2883 11.663 26.2287 11.663 25.05C11.663 23.8713 11.9407 22.8173 12.496 21.888C13.0627 20.9473 13.8333 20.2163 14.808 19.695C15.794 19.1623 16.899 18.896 18.123 18.896C19.1543 18.896 20.0837 19.0773 20.911 19.44C21.7497 19.8027 22.4523 20.324 23.019 21.004L21.251 22.636C20.4463 21.7067 19.449 21.242 18.259 21.242C17.5223 21.242 16.865 21.4063 16.287 21.735C15.709 22.0523 15.2557 22.5 14.927 23.078C14.6097 23.656 14.451 24.3133 14.451 25.05C14.451 25.7867 14.6097 26.444 14.927 27.022C15.2557 27.6 15.709 28.0533 16.287 28.382C16.865 28.6993 17.5223 28.858 18.259 28.858C19.449 28.858 20.4463 28.3877 21.251 27.447L23.019 29.079C22.4523 29.7703 21.7497 30.2973 20.911 30.66C20.0723 31.0227 19.1373 31.204 18.106 31.204ZM35.7928 19.1V31H33.0388V26.121H27.6328V31H24.8788V19.1H27.6328V23.792H33.0388V19.1H35.7928Z" fill="white" fill-opacity="0.17"/>
</svg>
