<?xml version="1.0" standalone="no"?>
<!DOCTYPE svg PUBLIC "-//W3C//DTD SVG 20010904//EN"
 "http://www.w3.org/TR/2001/REC-SVG-20010904/DTD/svg10.dtd">
<svg version="1.0" xmlns="http://www.w3.org/2000/svg"
 width="514.000000pt" height="514.000000pt" viewBox="0 0 514.000000 514.000000"
 preserveAspectRatio="xMidYMid meet">
<metadata>
Created by potrace 1.11, written by Peter Selinger 2001-2013
</metadata>
<g transform="translate(0.000000,514.000000) scale(0.100000,-0.100000)"
fill="#000000" stroke="none">
<path d="M2379 4816 c-2 -2 -33 -6 -69 -9 -76 -7 -201 -24 -221 -31 -8 -3 -30
-7 -49 -10 -153 -23 -569 -176 -672 -248 -14 -10 -29 -18 -32 -18 -12 0 -186
-111 -268 -172 -313 -231 -555 -520 -732 -876 -104 -210 -167 -406 -211 -657
-41 -239 -38 -545 9 -800 18 -98 53 -238 66 -270 5 -11 19 -49 31 -85 54 -158
147 -346 247 -500 131 -200 307 -394 513 -565 85 -71 266 -191 369 -244 36
-19 68 -38 71 -44 3 -5 8 -8 10 -7 6 2 45 -14 132 -54 42 -20 83 -36 90 -36 7
0 24 -8 37 -17 14 -10 26 -16 28 -14 5 6 132 -34 132 -42 0 -4 4 -6 8 -3 4 3
42 -4 83 -16 40 -11 92 -22 114 -25 22 -2 47 -7 55 -10 8 -3 33 -7 55 -10 22
-2 47 -6 55 -9 8 -3 56 -8 105 -11 50 -2 96 -10 104 -16 11 -9 13 -9 8 0 -8
13 39 13 61 0 6 -5 12 -4 12 2 0 10 19 9 38 -2 6 -5 12 -4 12 1 0 12 43 10 52
-3 5 -7 8 -7 8 0 0 6 16 10 35 11 22 0 32 -3 28 -10 -5 -7 -2 -7 8 0 8 7 37
11 66 10 28 0 49 3 46 7 -2 4 11 7 29 5 19 -1 39 2 46 6 7 4 12 2 12 -6 0 -9
2 -10 8 -1 4 6 27 13 52 15 25 2 51 7 58 12 7 4 12 2 12 -6 0 -10 2 -10 8 -1
4 7 25 15 47 18 57 8 67 10 95 20 14 5 32 10 40 10 8 1 22 5 30 8 8 4 24 8 35
10 11 1 26 6 33 10 6 5 16 5 22 2 6 -3 10 -2 10 3 0 9 53 26 78 25 6 0 12 3
12 9 0 5 5 6 10 3 6 -3 10 -1 10 5 0 6 4 9 9 5 5 -3 13 0 16 6 4 5 13 8 21 5
8 -3 14 -2 14 2 0 7 64 36 83 37 4 0 11 6 16 13 5 8 10 13 12 12 2 -1 18 4 34
11 17 7 33 12 38 11 4 -1 7 3 7 9 0 5 4 8 9 4 5 -3 15 1 23 8 15 15 98 59 98
52 0 -2 12 7 26 20 14 13 29 24 33 23 18 -2 32 3 27 11 -6 8 30 25 47 22 5 -1
6 3 3 8 -3 5 7 14 23 21 16 6 32 18 35 26 3 8 12 14 21 14 8 0 15 5 15 10 0 6
5 10 11 10 7 0 22 11 35 26 13 14 24 22 24 18 0 -4 6 0 13 11 8 10 19 15 25
11 8 -5 10 -2 6 8 -4 9 -1 16 6 16 7 0 28 16 47 35 18 19 37 36 41 37 4 2 6 6
5 11 -2 4 1 7 7 7 5 0 22 13 36 30 15 16 31 27 37 23 6 -3 7 -1 3 6 -4 6 0 14
8 17 9 3 13 10 10 15 -3 5 0 9 6 9 6 0 18 7 26 15 9 8 13 15 10 15 -3 0 13 20
37 44 23 25 50 56 60 71 10 14 22 23 28 20 5 -3 6 0 3 8 -3 8 3 21 14 28 11 8
19 16 18 19 -2 12 31 49 38 42 4 -4 6 -2 5 3 -4 14 20 56 44 77 11 10 15 18 8
18 -8 0 -7 5 3 16 9 8 16 20 16 25 0 6 5 7 10 4 6 -4 10 -3 9 2 -2 16 13 53
23 53 5 0 6 5 3 10 -3 6 1 13 9 16 9 3 16 11 16 18 0 6 18 47 40 91 22 44 40
86 40 93 0 6 8 12 18 12 10 0 13 3 6 8 -8 5 -8 15 1 35 6 15 15 24 19 20 4 -4
4 1 0 11 -5 13 -4 17 3 13 7 -5 9 0 6 13 -3 11 -1 20 5 20 5 0 9 6 9 13 -1 23
16 77 24 77 5 0 6 7 3 15 -4 8 -1 15 5 15 6 0 8 7 5 15 -4 8 -2 15 4 15 6 0 8
9 5 20 -3 12 0 20 6 20 7 0 10 4 7 8 -3 5 -1 24 4 43 11 42 20 84 26 129 3 19
8 42 11 50 3 8 7 40 10 70 2 30 10 58 16 62 9 6 9 8 0 8 -9 0 -10 7 -3 26 7
16 7 23 0 19 -6 -4 -7 2 -2 17 11 28 10 374 -1 384 -4 4 -1 14 6 22 9 13 9 14
0 8 -13 -7 -14 -1 -17 111 0 28 -4 49 -7 47 -4 -2 -9 13 -12 34 -12 79 -36
179 -59 245 -11 32 -17 65 -14 73 3 8 2 13 -3 10 -5 -4 -17 19 -27 49 -9 31
-21 58 -25 61 -5 3 -9 13 -9 22 0 20 -152 325 -170 342 -3 3 -20 28 -37 55
-113 178 -290 376 -478 534 -332 280 -760 476 -1185 545 -52 8 -111 18 -130
22 -38 6 -485 16 -491 10z"/>
</g>
</svg>
