<svg width="750" height="422" viewBox="0 0 750 422" fill="none" xmlns="http://www.w3.org/2000/svg">
<g id="spring-boot-course">
<rect width="750" height="421.875" fill="#364F6B"/>
<g id="Frame 17" clip-path="url(#clip0_13_22)">
<path id="Spring Boot" d="M114.818 120.677C114.818 118.256 113.964 116.404 112.255 115.122C110.545 113.812 107.469 112.445 103.025 111.02C98.5811 109.568 95.0631 108.143 92.4708 106.748C85.4062 102.93 81.8739 97.7886 81.8739 91.3222C81.8739 87.9608 82.814 84.9697 84.6941 82.349C86.6026 79.6997 89.3231 77.6345 92.8554 76.1532C96.4162 74.6719 100.404 73.9313 104.82 73.9313C109.264 73.9313 113.223 74.7431 116.698 76.3668C120.174 77.9621 122.866 80.2267 124.774 83.1608C126.711 86.0949 127.68 89.4278 127.68 93.1595H114.861C114.861 90.3109 113.964 88.1032 112.169 86.5365C110.374 84.9412 107.853 84.1436 104.606 84.1436C101.473 84.1436 99.0369 84.813 97.2993 86.1519C95.5616 87.4623 94.6928 89.1999 94.6928 91.3649C94.6928 93.3874 95.704 95.0824 97.7266 96.4497C99.7776 97.8171 102.783 99.0989 106.742 100.295C114.035 102.489 119.348 105.209 122.681 108.457C126.013 111.704 127.68 115.749 127.68 120.592C127.68 125.976 125.643 130.206 121.57 133.283C117.496 136.331 112.012 137.855 105.119 137.855C100.333 137.855 95.9746 136.986 92.0435 135.248C88.1124 133.482 85.1071 131.075 83.0276 128.027C80.9766 124.979 79.9511 121.446 79.9511 117.43H92.8127C92.8127 124.295 96.9147 127.728 105.119 127.728C108.167 127.728 110.545 127.115 112.255 125.89C113.964 124.637 114.818 122.899 114.818 120.677ZM181.141 114.311C181.141 121.432 179.518 127.144 176.27 131.445C173.051 135.718 168.693 137.855 163.195 137.855C158.523 137.855 154.749 136.231 151.872 132.983V154.775H139.523V90.7667H150.974L151.402 95.296C154.393 91.7067 158.295 89.9121 163.11 89.9121C168.807 89.9121 173.236 92.0201 176.398 96.2361C179.56 100.452 181.141 106.263 181.141 113.67V114.311ZM168.793 113.413C168.793 109.112 168.023 105.793 166.485 103.457C164.975 101.121 162.768 99.9535 159.862 99.9535C155.988 99.9535 153.324 101.435 151.872 104.397V123.327C153.381 126.375 156.073 127.899 159.948 127.899C165.844 127.899 168.793 123.07 168.793 113.413ZM218.75 102.346C217.069 102.118 215.588 102.005 214.306 102.005C209.635 102.005 206.572 103.586 205.119 106.748V137H192.771V90.7667H204.436L204.778 96.2788C207.256 92.0343 210.689 89.9121 215.075 89.9121C216.443 89.9121 217.725 90.0973 218.921 90.4676L218.75 102.346ZM241.703 137H229.311V90.7667H241.703V137ZM228.585 78.8024C228.585 76.9508 229.197 75.4268 230.422 74.2304C231.676 73.0339 233.37 72.4357 235.507 72.4357C237.615 72.4357 239.296 73.0339 240.549 74.2304C241.802 75.4268 242.429 76.9508 242.429 78.8024C242.429 80.6825 241.788 82.2208 240.506 83.4172C239.253 84.6136 237.586 85.2119 235.507 85.2119C233.427 85.2119 231.747 84.6136 230.465 83.4172C229.211 82.2208 228.585 80.6825 228.585 78.8024ZM267.219 90.7667L267.604 96.1079C270.908 91.9774 275.338 89.9121 280.893 89.9121C285.792 89.9121 289.438 91.3507 291.831 94.2278C294.224 97.1049 295.449 101.406 295.506 107.132V137H283.157V107.431C283.157 104.81 282.587 102.916 281.448 101.748C280.309 100.552 278.414 99.9535 275.765 99.9535C272.29 99.9535 269.683 101.435 267.945 104.397V137H255.597V90.7667H267.219ZM307.05 113.542C307.05 106.448 308.73 100.737 312.092 96.407C315.482 92.0771 320.04 89.9121 325.765 89.9121C330.836 89.9121 334.781 91.6498 337.601 95.1251L338.114 90.7667H349.309V135.462C349.309 139.507 348.383 143.025 346.532 146.016C344.709 149.007 342.131 151.286 338.798 152.853C335.465 154.419 331.562 155.203 327.09 155.203C323.7 155.203 320.396 154.519 317.177 153.152C313.958 151.813 311.522 150.075 309.87 147.939L315.339 140.418C318.416 143.865 322.148 145.589 326.534 145.589C329.81 145.589 332.36 144.706 334.183 142.939C336.006 141.202 336.918 138.723 336.918 135.504V133.026C334.069 136.245 330.323 137.855 325.68 137.855C320.125 137.855 315.624 135.69 312.177 131.36C308.759 127.001 307.05 121.233 307.05 114.054V113.542ZM319.399 114.439C319.399 118.626 320.239 121.916 321.92 124.309C323.6 126.674 325.908 127.856 328.842 127.856C332.602 127.856 335.294 126.446 336.918 123.626V104.184C335.265 101.364 332.602 99.9535 328.927 99.9535C325.965 99.9535 323.629 101.164 321.92 103.586C320.239 106.007 319.399 109.625 319.399 114.439ZM389.318 137V74.7859H411.11C418.659 74.7859 424.384 76.2387 428.287 79.1443C432.19 82.0214 434.141 86.2516 434.141 91.8349C434.141 94.883 433.358 97.5749 431.791 99.9108C430.224 102.218 428.045 103.913 425.253 104.996C428.444 105.793 430.951 107.403 432.774 109.824C434.625 112.245 435.551 115.208 435.551 118.712C435.551 124.694 433.642 129.223 429.825 132.3C426.008 135.376 420.567 136.943 413.503 137H389.318ZM402.137 109.91V126.702H413.118C416.138 126.702 418.488 125.99 420.168 124.566C421.878 123.113 422.732 121.119 422.732 118.584C422.732 112.886 419.784 109.995 413.887 109.91H402.137ZM402.137 100.851H411.623C418.089 100.737 421.322 98.1589 421.322 93.1168C421.322 90.2967 420.496 88.2741 418.844 87.0492C417.22 85.7958 414.642 85.1691 411.11 85.1691H402.137V100.851ZM446.411 113.456C446.411 108.87 447.294 104.782 449.06 101.193C450.827 97.6034 453.362 94.826 456.666 92.8604C459.999 90.8949 463.859 89.9121 468.246 89.9121C474.484 89.9121 479.569 91.8207 483.5 95.6379C487.46 99.455 489.668 104.64 490.123 111.191L490.209 114.353C490.209 121.446 488.229 127.144 484.27 131.445C480.31 135.718 474.997 137.855 468.331 137.855C461.666 137.855 456.339 135.718 452.351 131.445C448.391 127.172 446.411 121.361 446.411 114.012V113.456ZM458.76 114.353C458.76 118.74 459.586 122.102 461.238 124.438C462.891 126.745 465.255 127.899 468.331 127.899C471.322 127.899 473.658 126.759 475.339 124.48C477.02 122.173 477.86 118.498 477.86 113.456C477.86 109.155 477.02 105.822 475.339 103.457C473.658 101.093 471.294 99.9108 468.246 99.9108C465.226 99.9108 462.891 101.093 461.238 103.457C459.586 105.793 458.76 109.425 458.76 114.353ZM499.83 113.456C499.83 108.87 500.713 104.782 502.479 101.193C504.245 97.6034 506.781 94.826 510.085 92.8604C513.418 90.8949 517.278 89.9121 521.665 89.9121C527.903 89.9121 532.988 91.8207 536.919 95.6379C540.879 99.455 543.086 104.64 543.542 111.191L543.628 114.353C543.628 121.446 541.648 127.144 537.688 131.445C533.729 135.718 528.416 137.855 521.75 137.855C515.084 137.855 509.757 135.718 505.769 131.445C501.81 127.172 499.83 121.361 499.83 114.012V113.456ZM512.179 114.353C512.179 118.74 513.005 122.102 514.657 124.438C516.309 126.745 518.674 127.899 521.75 127.899C524.741 127.899 527.077 126.759 528.758 124.48C530.438 122.173 531.279 118.498 531.279 113.456C531.279 109.155 530.438 105.822 528.758 103.457C527.077 101.093 524.713 99.9108 521.665 99.9108C518.645 99.9108 516.309 101.093 514.657 103.457C513.005 105.793 512.179 109.425 512.179 114.353ZM569.956 79.4006V90.7667H577.861V99.8253H569.956V122.899C569.956 124.608 570.283 125.833 570.939 126.574C571.594 127.315 572.847 127.685 574.699 127.685C576.066 127.685 577.277 127.585 578.331 127.386V136.744C575.909 137.484 573.417 137.855 570.853 137.855C562.193 137.855 557.778 133.482 557.607 124.737V99.8253H550.856V90.7667H557.607V79.4006H569.956Z" fill="#6DB33F"/>
<path id="REST API" d="M100.426 206.112H92.4392V222H85.2742V180.766H99.7742C104.532 180.766 108.204 181.832 110.791 183.966C113.377 186.099 114.671 189.186 114.671 193.227C114.671 195.983 114 198.296 112.66 200.165C111.338 202.015 109.488 203.441 107.109 204.441L116.37 221.632V222H108.695L100.426 206.112ZM92.4392 200.363H99.8025C102.219 200.363 104.107 199.759 105.467 198.551C106.826 197.324 107.506 195.653 107.506 193.538C107.506 191.329 106.873 189.62 105.608 188.412C104.362 187.204 102.493 186.581 100.001 186.543H92.4392V200.363ZM162.678 203.592H145.743V216.279H165.538V222H138.578V180.766H165.34V186.543H145.743V197.928H162.678V203.592ZM210.034 211.38C210.034 209.567 209.392 208.17 208.108 207.188C206.843 206.207 204.55 205.215 201.227 204.215C197.904 203.214 195.26 202.1 193.297 200.873C189.54 198.513 187.661 195.436 187.661 191.641C187.661 188.318 189.011 185.58 191.711 183.428C194.43 181.275 197.951 180.199 202.274 180.199C205.144 180.199 207.703 180.728 209.949 181.785C212.196 182.842 213.961 184.353 215.245 186.316C216.529 188.261 217.171 190.423 217.171 192.802H210.034C210.034 190.649 209.355 188.969 207.995 187.761C206.655 186.534 204.729 185.92 202.218 185.92C199.877 185.92 198.055 186.42 196.752 187.421C195.468 188.422 194.826 189.819 194.826 191.612C194.826 193.123 195.525 194.388 196.922 195.407C198.319 196.408 200.622 197.39 203.832 198.353C207.042 199.297 209.619 200.382 211.564 201.609C213.508 202.818 214.934 204.215 215.84 205.801C216.746 207.368 217.199 209.209 217.199 211.323C217.199 214.759 215.878 217.497 213.234 219.536C210.61 221.556 207.042 222.566 202.529 222.566C199.546 222.566 196.799 222.019 194.288 220.924C191.796 219.81 189.851 218.281 188.454 216.336C187.076 214.391 186.387 212.126 186.387 209.539H193.552C193.552 211.88 194.326 213.693 195.874 214.977C197.422 216.26 199.641 216.902 202.529 216.902C205.022 216.902 206.891 216.402 208.137 215.401C209.402 214.382 210.034 213.041 210.034 211.38ZM270.389 186.543H257.532V222H250.424V186.543H237.679V180.766H270.389V186.543ZM345.872 212.399H329.899L326.558 222H319.109L334.686 180.766H341.114L356.719 222H349.242L345.872 212.399ZM331.91 206.622H343.861L337.886 189.517L331.91 206.622ZM385.695 206.679V222H378.53V180.766H394.304C398.911 180.766 402.564 181.965 405.264 184.362C407.983 186.76 409.342 189.932 409.342 193.878C409.342 197.918 408.011 201.062 405.349 203.309C402.706 205.555 398.996 206.679 394.219 206.679H385.695ZM385.695 200.93H394.304C396.853 200.93 398.798 200.335 400.138 199.146C401.479 197.937 402.149 196.2 402.149 193.935C402.149 191.707 401.469 189.932 400.11 188.61C398.751 187.27 396.881 186.581 394.503 186.543H385.695V200.93ZM440.301 222H433.164V180.766H440.301V222Z" fill="white"/>
</g>
<g id="Group">
<path id="Vector" d="M657.553 250.41L633.498 208.63C631.427 205.036 626.25 202 622.108 202H573.998C569.856 202 564.679 204.956 562.608 208.63L538.553 250.41C536.482 254.004 536.482 259.996 538.553 263.59L562.608 305.37C564.679 308.964 569.856 312 573.998 312H622.108C626.25 312 631.427 309.044 633.498 305.37L657.553 263.59C659.703 259.916 659.703 254.004 657.553 250.41Z" fill="#6DB33F"/>
<g id="Group_2">
<path id="Vector_2" d="M564.6 297.301C567.283 297.301 569.458 295.12 569.458 292.428C569.458 289.737 567.283 287.556 564.6 287.556C561.916 287.556 559.741 289.737 559.741 292.428C559.741 295.12 561.916 297.301 564.6 297.301Z" fill="white"/>
</g>
<g id="Group_3">
<path id="Vector_3" d="M646.082 278.209C631.984 297.062 601.876 290.671 582.6 291.63C582.6 291.63 579.175 291.789 575.75 292.349C575.75 292.349 577.024 291.789 578.697 291.23C592.238 286.517 598.61 285.559 606.894 281.325C622.346 273.416 637.719 256.081 640.905 238.108C635.011 255.362 617.089 270.301 600.84 276.292C589.689 280.446 569.537 284.44 569.537 284.44L568.741 284.041C554.881 277.41 554.483 247.534 579.414 237.948C590.326 233.714 600.84 236.031 612.629 233.235C625.214 230.199 639.79 220.773 645.764 208.391C652.375 228.202 660.34 259.117 646.082 278.209Z" fill="white"/>
<path id="Vector_4" d="M645.764 208.391C652.375 228.202 660.42 259.117 646.082 278.209C637.241 290.032 622.107 291.949 607.292 291.949C600.283 291.949 593.353 291.55 587.22 291.55C585.627 291.55 584.113 291.55 582.68 291.63C582.68 291.63 579.255 291.79 575.83 292.349C575.83 292.349 577.104 291.79 578.777 291.23C592.318 286.517 598.69 285.559 606.973 281.325C622.426 273.416 637.799 256.081 640.985 238.108C635.09 255.363 617.169 270.301 600.92 276.292C589.769 280.446 569.617 284.44 569.617 284.44L568.82 284.041C554.881 277.41 554.483 247.534 579.414 237.948C590.326 233.714 600.84 236.031 612.629 233.235C625.214 230.279 639.79 220.773 645.764 208.391ZM646.162 202.08L643.613 207.352C637.639 219.814 623.063 228.282 612.071 230.918C607.133 232.116 602.274 232.356 597.654 232.596C591.521 232.915 585.149 233.235 578.617 235.711C563.245 241.623 557.351 254.564 556.952 264.709C556.554 274.375 560.696 282.763 567.466 286.198C567.865 286.437 568.741 286.917 569.458 286.917H570.493L570.652 286.757C575.272 285.798 591.76 282.283 601.637 278.689C608.487 276.132 616.213 271.819 623.222 266.067C618.045 271.579 611.991 276.212 605.858 279.328C600.84 281.884 596.539 283.242 590.565 285.079C587.061 286.118 582.998 287.396 578.06 289.073C576.308 289.633 575.033 290.272 574.954 290.272L573.201 293.867L576.308 294.825C579.573 294.266 582.839 294.106 582.919 294.106C584.273 294.026 585.706 294.026 587.299 294.026C590.247 294.026 593.353 294.106 596.619 294.266C600.123 294.346 603.708 294.506 607.372 294.506C622.107 294.506 638.436 292.748 648.074 279.807C659.304 264.789 659.384 241.223 648.153 207.752L646.162 202.08Z" fill="#6CCA00"/>
</g>
</g>
<g id="Frame 18">
<rect width="372" height="63" transform="translate(81 249)" fill="#F0F0F0"/>
<path id="Full Tutorial in 2hrs" d="M99.5986 290H96.127V268.584H108.212V271.543H99.5986V278.237H107.67V281.211H99.5986V290ZM126.453 290L125.97 287.876H125.794C125.316 288.628 124.632 289.219 123.743 289.648C122.864 290.078 121.859 290.293 120.726 290.293C118.763 290.293 117.298 289.805 116.331 288.828C115.364 287.852 114.881 286.372 114.881 284.39V273.799H118.353V283.789C118.353 285.029 118.607 285.962 119.114 286.587C119.622 287.202 120.418 287.51 121.502 287.51C122.947 287.51 124.007 287.08 124.681 286.221C125.364 285.352 125.706 283.901 125.706 281.87V273.799H129.163V290H126.453ZM140.813 290H137.371V267.207H140.813V290ZM152.492 290H149.049V267.207H152.492V290ZM179.585 290H176.084V271.587H169.785V268.584H185.884V271.587H179.585V290ZM203.539 290L203.056 287.876H202.88C202.402 288.628 201.718 289.219 200.829 289.648C199.95 290.078 198.945 290.293 197.812 290.293C195.849 290.293 194.384 289.805 193.417 288.828C192.45 287.852 191.967 286.372 191.967 284.39V273.799H195.439V283.789C195.439 285.029 195.693 285.962 196.2 286.587C196.708 287.202 197.504 287.51 198.588 287.51C200.033 287.51 201.093 287.08 201.767 286.221C202.45 285.352 202.792 283.901 202.792 281.87V273.799H206.249V290H203.539ZM220.492 287.51C221.331 287.51 222.171 287.378 223.011 287.114V289.707C222.63 289.873 222.137 290.01 221.532 290.117C220.936 290.234 220.316 290.293 219.671 290.293C216.41 290.293 214.779 288.574 214.779 285.137V276.406H212.567V274.883L214.94 273.623L216.112 270.195H218.236V273.799H222.85V276.406H218.236V285.078C218.236 285.908 218.441 286.523 218.851 286.924C219.271 287.314 219.818 287.51 220.492 287.51ZM243.933 281.87C243.933 284.517 243.254 286.582 241.897 288.066C240.54 289.551 238.65 290.293 236.228 290.293C234.714 290.293 233.377 289.951 232.214 289.268C231.052 288.584 230.159 287.603 229.534 286.323C228.909 285.044 228.596 283.56 228.596 281.87C228.596 279.243 229.27 277.192 230.618 275.718C231.965 274.243 233.865 273.506 236.316 273.506C238.66 273.506 240.515 274.263 241.882 275.776C243.25 277.28 243.933 279.312 243.933 281.87ZM232.141 281.87C232.141 285.61 233.523 287.48 236.287 287.48C239.021 287.48 240.388 285.61 240.388 281.87C240.388 278.169 239.011 276.318 236.257 276.318C234.812 276.318 233.762 276.797 233.108 277.754C232.463 278.711 232.141 280.083 232.141 281.87ZM259.421 273.506C260.114 273.506 260.685 273.555 261.135 273.652L260.798 276.86C260.309 276.743 259.802 276.685 259.274 276.685C257.897 276.685 256.779 277.134 255.92 278.032C255.07 278.931 254.645 280.098 254.645 281.533V290H251.203V273.799H253.898L254.352 276.655H254.528C255.065 275.688 255.763 274.922 256.623 274.355C257.492 273.789 258.425 273.506 259.421 273.506ZM270.895 290H267.452V273.799H270.895V290ZM267.247 269.507C267.247 268.892 267.413 268.418 267.745 268.086C268.087 267.754 268.57 267.588 269.195 267.588C269.801 267.588 270.27 267.754 270.602 268.086C270.943 268.418 271.114 268.892 271.114 269.507C271.114 270.093 270.943 270.557 270.602 270.898C270.27 271.23 269.801 271.396 269.195 271.396C268.57 271.396 268.087 271.23 267.745 270.898C267.413 270.557 267.247 270.093 267.247 269.507ZM289.268 290L288.579 287.744H288.462C287.681 288.73 286.895 289.404 286.104 289.766C285.313 290.117 284.297 290.293 283.057 290.293C281.465 290.293 280.22 289.863 279.321 289.004C278.433 288.145 277.988 286.929 277.988 285.356C277.988 283.687 278.609 282.427 279.849 281.577C281.089 280.728 282.979 280.264 285.518 280.186L288.316 280.098V279.233C288.316 278.198 288.071 277.427 287.583 276.919C287.105 276.401 286.358 276.143 285.342 276.143C284.512 276.143 283.716 276.265 282.954 276.509C282.193 276.753 281.46 277.041 280.757 277.373L279.644 274.912C280.523 274.453 281.485 274.106 282.529 273.872C283.574 273.628 284.561 273.506 285.488 273.506C287.549 273.506 289.102 273.955 290.147 274.854C291.201 275.752 291.729 277.163 291.729 279.087V290H289.268ZM284.141 287.656C285.391 287.656 286.392 287.31 287.144 286.616C287.905 285.913 288.286 284.932 288.286 283.672V282.266L286.206 282.354C284.585 282.412 283.404 282.686 282.661 283.174C281.929 283.652 281.563 284.39 281.563 285.386C281.563 286.108 281.778 286.67 282.207 287.07C282.637 287.461 283.281 287.656 284.141 287.656ZM303.276 290H299.833V267.207H303.276V290ZM322.971 290V268.584H326.472V290H322.971ZM349.328 290H345.871V280.039C345.871 278.789 345.617 277.856 345.109 277.241C344.611 276.626 343.815 276.318 342.722 276.318C341.267 276.318 340.202 276.748 339.528 277.607C338.854 278.467 338.518 279.907 338.518 281.929V290H335.075V273.799H337.771L338.254 275.923H338.43C338.918 275.151 339.611 274.556 340.51 274.136C341.408 273.716 342.404 273.506 343.498 273.506C347.385 273.506 349.328 275.483 349.328 279.438V290ZM381.885 290H367.369V287.393L372.891 281.841C374.522 280.171 375.601 278.989 376.128 278.296C376.665 277.593 377.056 276.934 377.3 276.318C377.544 275.703 377.666 275.044 377.666 274.341C377.666 273.374 377.373 272.612 376.788 272.056C376.211 271.499 375.411 271.221 374.385 271.221C373.565 271.221 372.769 271.372 371.997 271.675C371.236 271.978 370.352 272.524 369.346 273.315L367.486 271.045C368.677 270.039 369.834 269.326 370.957 268.906C372.08 268.486 373.277 268.276 374.546 268.276C376.538 268.276 378.135 268.799 379.336 269.844C380.538 270.879 381.138 272.275 381.138 274.033C381.138 275 380.962 275.918 380.611 276.787C380.269 277.656 379.737 278.555 379.014 279.482C378.301 280.4 377.11 281.646 375.44 283.218L371.719 286.821V286.968H381.885V290ZM403.203 290H399.746V280.039C399.746 278.789 399.492 277.856 398.984 277.241C398.486 276.626 397.69 276.318 396.596 276.318C395.151 276.318 394.087 276.753 393.403 277.622C392.729 278.481 392.392 279.927 392.392 281.958V290H388.95V267.207H392.392V272.993C392.392 273.921 392.334 274.912 392.216 275.967H392.436C392.905 275.186 393.554 274.58 394.384 274.15C395.224 273.721 396.201 273.506 397.314 273.506C401.24 273.506 403.203 275.483 403.203 279.438V290ZM419.511 273.506C420.204 273.506 420.775 273.555 421.224 273.652L420.888 276.86C420.399 276.743 419.891 276.685 419.364 276.685C417.987 276.685 416.869 277.134 416.01 278.032C415.16 278.931 414.735 280.098 414.735 281.533V290H411.293V273.799H413.988L414.442 276.655H414.618C415.155 275.688 415.853 274.922 416.713 274.355C417.582 273.789 418.514 273.506 419.511 273.506ZM438.426 285.386C438.426 286.968 437.85 288.184 436.697 289.033C435.545 289.873 433.895 290.293 431.746 290.293C429.588 290.293 427.854 289.966 426.546 289.312V286.338C428.45 287.217 430.223 287.656 431.863 287.656C433.982 287.656 435.042 287.017 435.042 285.737C435.042 285.327 434.925 284.985 434.69 284.712C434.456 284.438 434.07 284.155 433.533 283.862C432.996 283.569 432.249 283.237 431.292 282.866C429.427 282.144 428.162 281.421 427.498 280.698C426.844 279.976 426.517 279.038 426.517 277.886C426.517 276.499 427.073 275.425 428.187 274.663C429.31 273.892 430.833 273.506 432.757 273.506C434.661 273.506 436.463 273.892 438.162 274.663L437.049 277.256C435.301 276.533 433.831 276.172 432.64 276.172C430.823 276.172 429.915 276.689 429.915 277.725C429.915 278.232 430.149 278.662 430.618 279.014C431.097 279.365 432.132 279.849 433.724 280.464C435.062 280.981 436.033 281.455 436.639 281.885C437.244 282.314 437.693 282.812 437.986 283.379C438.279 283.936 438.426 284.604 438.426 285.386Z" fill="black"/>
</g>
</g>
<defs>
<clipPath id="clip0_13_22">
<rect width="580" height="181" fill="white" transform="translate(18 68)"/>
</clipPath>
</defs>
</svg>
