<svg width="750" height="422" viewBox="0 0 750 422" fill="none" xmlns="http://www.w3.org/2000/svg">
<g id="spring-boot-course">
<rect width="750" height="421.875" fill="#364F6B"/>
<g id="Frame 17" clip-path="url(#clip0_13_22)">
<path id="Spring Boot" d="M118.814 119.677C118.814 117.256 117.96 115.404 116.251 114.122C114.541 112.812 111.465 111.445 107.021 110.02C102.577 108.568 99.0591 107.143 96.4668 105.748C89.4022 101.93 85.8699 96.7886 85.8699 90.3222C85.8699 86.9608 86.81 83.9697 88.6901 81.349C90.5986 78.6997 93.3191 76.6345 96.8514 75.1532C100.412 73.6719 104.4 72.9313 108.816 72.9313C113.26 72.9313 117.219 73.7431 120.694 75.3668C124.17 76.9621 126.862 79.2267 128.77 82.1608C130.707 85.0949 131.676 88.4278 131.676 92.1595H118.857C118.857 89.3109 117.96 87.1032 116.165 85.5365C114.37 83.9412 111.849 83.1436 108.602 83.1436C105.469 83.1436 103.033 83.813 101.295 85.1519C99.5576 86.4623 98.6888 88.1999 98.6888 90.3649C98.6888 92.3874 99.7 94.0824 101.723 95.4497C103.774 96.8171 106.779 98.0989 110.738 99.2954C118.031 101.489 123.344 104.209 126.677 107.457C130.009 110.704 131.676 114.749 131.676 119.592C131.676 124.976 129.639 129.206 125.566 132.283C121.492 135.331 116.008 136.855 109.115 136.855C104.329 136.855 99.9706 135.986 96.0395 134.248C92.1084 132.482 89.1031 130.075 87.0236 127.027C84.9726 123.979 83.9471 120.446 83.9471 116.43H96.8087C96.8087 123.295 100.911 126.728 109.115 126.728C112.163 126.728 114.541 126.115 116.251 124.89C117.96 123.637 118.814 121.899 118.814 119.677ZM192.138 113.311C192.138 120.432 190.514 126.144 187.267 130.445C184.048 134.718 179.69 136.855 174.192 136.855C169.52 136.855 165.746 135.231 162.868 131.983V153.775H150.52V89.7667H161.971L162.398 94.296C165.389 90.7067 169.292 88.9121 174.106 88.9121C179.804 88.9121 184.233 91.0201 187.395 95.2361C190.557 99.452 192.138 105.263 192.138 112.67V113.311ZM179.789 112.413C179.789 108.112 179.02 104.793 177.482 102.457C175.972 100.121 173.764 98.9535 170.859 98.9535C166.985 98.9535 164.321 100.435 162.868 103.397V122.327C164.378 125.375 167.07 126.899 170.944 126.899C176.841 126.899 179.789 122.07 179.789 112.413ZM236.748 101.346C235.067 101.118 233.586 101.005 232.304 101.005C227.632 101.005 224.57 102.586 223.117 105.748V136H210.768V89.7667H222.433L222.775 95.2788C225.254 91.0343 228.686 88.9121 233.073 88.9121C234.44 88.9121 235.722 89.0973 236.919 89.4676L236.748 101.346ZM266.701 136H254.31V89.7667H266.701V136ZM253.583 77.8024C253.583 75.9508 254.196 74.4268 255.421 73.2304C256.674 72.0339 258.369 71.4357 260.505 71.4357C262.613 71.4357 264.294 72.0339 265.547 73.2304C266.801 74.4268 267.428 75.9508 267.428 77.8024C267.428 79.6825 266.787 81.2208 265.505 82.4172C264.251 83.6136 262.585 84.2119 260.505 84.2119C258.426 84.2119 256.745 83.6136 255.463 82.4172C254.21 81.2208 253.583 79.6825 253.583 77.8024ZM299.218 89.7667L299.603 95.1079C302.907 90.9774 307.337 88.9121 312.892 88.9121C317.791 88.9121 321.438 90.3507 323.83 93.2278C326.223 96.1049 327.448 100.406 327.505 106.132V136H315.156V106.431C315.156 103.81 314.587 101.916 313.447 100.748C312.308 99.5517 310.413 98.9535 307.764 98.9535C304.289 98.9535 301.682 100.435 299.945 103.397V136H287.596V89.7667H299.218ZM346.05 112.542C346.05 105.448 347.73 99.7369 351.092 95.407C354.482 91.0771 359.04 88.9121 364.765 88.9121C369.836 88.9121 373.781 90.6498 376.601 94.1251L377.114 89.7667H388.309V134.462C388.309 138.507 387.383 142.025 385.532 145.016C383.709 148.007 381.131 150.286 377.798 151.853C374.465 153.419 370.562 154.203 366.09 154.203C362.7 154.203 359.396 153.519 356.177 152.152C352.958 150.813 350.522 149.075 348.87 146.939L354.339 139.418C357.416 142.865 361.148 144.589 365.534 144.589C368.81 144.589 371.36 143.706 373.183 141.939C375.006 140.202 375.918 137.723 375.918 134.504V132.026C373.069 135.245 369.323 136.855 364.68 136.855C359.125 136.855 354.624 134.69 351.177 130.36C347.759 126.001 346.05 120.233 346.05 113.054V112.542ZM358.399 113.439C358.399 117.626 359.239 120.916 360.92 123.309C362.6 125.674 364.908 126.856 367.842 126.856C371.602 126.856 374.294 125.446 375.918 122.626V103.184C374.266 100.364 371.602 98.9535 367.927 98.9535C364.965 98.9535 362.629 100.164 360.92 102.586C359.239 105.007 358.399 108.625 358.399 113.439ZM442.319 136V73.7859H464.111C471.66 73.7859 477.386 75.2387 481.289 78.1443C485.191 81.0214 487.143 85.2516 487.143 90.8349C487.143 93.883 486.359 96.5749 484.792 98.9108C483.226 101.218 481.046 102.913 478.255 103.996C481.445 104.793 483.952 106.403 485.775 108.824C487.627 111.245 488.553 114.208 488.553 117.712C488.553 123.694 486.644 128.223 482.827 131.3C479.01 134.376 473.569 135.943 466.504 136H442.319ZM455.138 108.91V125.702H466.12C469.139 125.702 471.489 124.99 473.17 123.566C474.879 122.113 475.734 120.119 475.734 117.584C475.734 111.886 472.785 108.995 466.889 108.91H455.138ZM455.138 99.8508H464.624C471.091 99.7369 474.324 97.1589 474.324 92.1168C474.324 89.2967 473.498 87.2741 471.845 86.0492C470.222 84.7958 467.644 84.1691 464.111 84.1691H455.138V99.8508ZM506.414 112.456C506.414 107.87 507.297 103.782 509.063 100.193C510.829 96.6034 513.364 93.826 516.669 91.8604C520.002 89.8949 523.861 88.9121 528.248 88.9121C534.487 88.9121 539.572 90.8207 543.503 94.6379C547.462 98.455 549.67 103.64 550.126 110.191L550.211 113.353C550.211 120.446 548.232 126.144 544.272 130.445C540.312 134.718 535 136.855 528.334 136.855C521.668 136.855 516.341 134.718 512.353 130.445C508.393 126.172 506.414 120.361 506.414 113.012V112.456ZM518.762 113.353C518.762 117.74 519.589 121.102 521.241 123.438C522.893 125.745 525.257 126.899 528.334 126.899C531.325 126.899 533.661 125.759 535.341 123.48C537.022 121.173 537.862 117.498 537.862 112.456C537.862 108.155 537.022 104.822 535.341 102.457C533.661 100.093 531.296 98.9108 528.248 98.9108C525.229 98.9108 522.893 100.093 521.241 102.457C519.589 104.793 518.762 108.425 518.762 113.353ZM566.833 112.456C566.833 107.87 567.716 103.782 569.482 100.193C571.248 96.6034 573.784 93.826 577.088 91.8604C580.421 89.8949 584.281 88.9121 588.668 88.9121C594.906 88.9121 599.991 90.8207 603.922 94.6379C607.882 98.455 610.09 103.64 610.545 110.191L610.631 113.353C610.631 120.446 608.651 126.144 604.691 130.445C600.732 134.718 595.419 136.855 588.753 136.855C582.088 136.855 576.761 134.718 572.772 130.445C568.813 126.172 566.833 120.361 566.833 113.012V112.456ZM579.182 113.353C579.182 117.74 580.008 121.102 581.66 123.438C583.312 125.745 585.677 126.899 588.753 126.899C591.744 126.899 594.08 125.759 595.761 123.48C597.442 121.173 598.282 117.498 598.282 112.456C598.282 108.155 597.442 104.822 595.761 102.457C594.08 100.093 591.716 98.9108 588.668 98.9108C585.648 98.9108 583.312 100.093 581.66 102.457C580.008 104.793 579.182 108.425 579.182 113.353ZM643.96 78.4006V89.7667H651.865V98.8253H643.96V121.899C643.96 123.608 644.287 124.833 644.943 125.574C645.598 126.315 646.851 126.685 648.703 126.685C650.07 126.685 651.281 126.585 652.335 126.386V135.744C649.914 136.484 647.421 136.855 644.857 136.855C636.197 136.855 631.782 132.482 631.611 123.737V98.8253H624.86V89.7667H631.611V78.4006H643.96Z" fill="#6DB33F"/>
<path id="REST API" d="M100.426 206.112H92.4392V222H85.2742V180.766H99.7742C104.532 180.766 108.204 181.832 110.791 183.966C113.377 186.099 114.671 189.186 114.671 193.227C114.671 195.983 114 198.296 112.66 200.165C111.338 202.015 109.488 203.441 107.109 204.441L116.37 221.632V222H108.695L100.426 206.112ZM92.4392 200.363H99.8025C102.219 200.363 104.107 199.759 105.467 198.551C106.826 197.324 107.506 195.653 107.506 193.538C107.506 191.329 106.873 189.62 105.608 188.412C104.362 187.204 102.493 186.581 100.001 186.543H92.4392V200.363ZM162.678 203.592H145.743V216.279H165.538V222H138.578V180.766H165.34V186.543H145.743V197.928H162.678V203.592ZM210.034 211.38C210.034 209.567 209.392 208.17 208.108 207.188C206.843 206.207 204.55 205.215 201.227 204.215C197.904 203.214 195.26 202.1 193.297 200.873C189.54 198.513 187.661 195.436 187.661 191.641C187.661 188.318 189.011 185.58 191.711 183.428C194.43 181.275 197.951 180.199 202.274 180.199C205.144 180.199 207.703 180.728 209.949 181.785C212.196 182.842 213.961 184.353 215.245 186.316C216.529 188.261 217.171 190.423 217.171 192.802H210.034C210.034 190.649 209.355 188.969 207.995 187.761C206.655 186.534 204.729 185.92 202.218 185.92C199.877 185.92 198.055 186.42 196.752 187.421C195.468 188.422 194.826 189.819 194.826 191.612C194.826 193.123 195.525 194.388 196.922 195.407C198.319 196.408 200.622 197.39 203.832 198.353C207.042 199.297 209.619 200.382 211.564 201.609C213.508 202.818 214.934 204.215 215.84 205.801C216.746 207.368 217.199 209.209 217.199 211.323C217.199 214.759 215.878 217.497 213.234 219.536C210.61 221.556 207.042 222.566 202.529 222.566C199.546 222.566 196.799 222.019 194.288 220.924C191.796 219.81 189.851 218.281 188.454 216.336C187.076 214.391 186.387 212.126 186.387 209.539H193.552C193.552 211.88 194.326 213.693 195.874 214.977C197.422 216.26 199.641 216.902 202.529 216.902C205.022 216.902 206.891 216.402 208.137 215.401C209.402 214.382 210.034 213.041 210.034 211.38ZM270.389 186.543H257.532V222H250.424V186.543H237.679V180.766H270.389V186.543ZM345.872 212.399H329.899L326.558 222H319.109L334.686 180.766H341.114L356.719 222H349.242L345.872 212.399ZM331.91 206.622H343.861L337.886 189.517L331.91 206.622ZM385.695 206.679V222H378.53V180.766H394.304C398.911 180.766 402.564 181.965 405.264 184.362C407.983 186.76 409.342 189.932 409.342 193.878C409.342 197.918 408.011 201.062 405.349 203.309C402.706 205.555 398.996 206.679 394.219 206.679H385.695ZM385.695 200.93H394.304C396.853 200.93 398.798 200.335 400.138 199.146C401.479 197.937 402.149 196.2 402.149 193.935C402.149 191.707 401.469 189.932 400.11 188.61C398.751 187.27 396.881 186.581 394.503 186.543H385.695V200.93ZM440.301 222H433.164V180.766H440.301V222Z" fill="white"/>
</g>
<g id="Group">
<path id="Vector" d="M638.553 242.41L614.498 200.63C612.427 197.036 607.25 194 603.108 194H554.998C550.856 194 545.679 196.956 543.608 200.63L519.553 242.41C517.482 246.004 517.482 251.996 519.553 255.59L543.608 297.37C545.679 300.964 550.856 304 554.998 304H603.108C607.25 304 612.427 301.044 614.498 297.37L638.553 255.59C640.703 251.916 640.703 246.004 638.553 242.41Z" fill="#6DB33F"/>
<g id="Group_2">
<path id="Vector_2" d="M545.6 289.301C548.283 289.301 550.458 287.12 550.458 284.428C550.458 281.737 548.283 279.556 545.6 279.556C542.916 279.556 540.741 281.737 540.741 284.428C540.741 287.12 542.916 289.301 545.6 289.301Z" fill="white"/>
</g>
<g id="Group_3">
<path id="Vector_3" d="M627.082 270.209C612.984 289.062 582.876 282.671 563.6 283.63C563.6 283.63 560.175 283.789 556.75 284.349C556.75 284.349 558.024 283.789 559.697 283.23C573.238 278.517 579.61 277.559 587.894 273.325C603.346 265.416 618.719 248.081 621.905 230.108C616.011 247.362 598.089 262.301 581.84 268.292C570.689 272.446 550.537 276.44 550.537 276.44L549.741 276.041C535.881 269.41 535.483 239.534 560.414 229.948C571.326 225.714 581.84 228.031 593.629 225.235C606.214 222.199 620.79 212.773 626.764 200.391C633.375 220.202 641.34 251.117 627.082 270.209Z" fill="white"/>
<path id="Vector_4" d="M626.764 200.391C633.375 220.202 641.42 251.117 627.082 270.209C618.241 282.032 603.107 283.949 588.292 283.949C581.283 283.949 574.353 283.55 568.22 283.55C566.627 283.55 565.113 283.55 563.68 283.63C563.68 283.63 560.255 283.79 556.83 284.349C556.83 284.349 558.104 283.79 559.777 283.23C573.318 278.517 579.69 277.559 587.973 273.325C603.426 265.416 618.799 248.081 621.985 230.108C616.09 247.363 598.169 262.301 581.92 268.292C570.769 272.446 550.617 276.44 550.617 276.44L549.82 276.041C535.881 269.41 535.483 239.534 560.414 229.948C571.326 225.714 581.84 228.031 593.629 225.235C606.214 222.279 620.79 212.773 626.764 200.391ZM627.162 194.08L624.613 199.352C618.639 211.814 604.063 220.282 593.071 222.918C588.133 224.116 583.274 224.356 578.654 224.596C572.521 224.915 566.149 225.235 559.617 227.711C544.245 233.623 538.351 246.564 537.952 256.709C537.554 266.375 541.696 274.763 548.466 278.198C548.865 278.437 549.741 278.917 550.458 278.917H551.493L551.652 278.757C556.272 277.798 572.76 274.283 582.637 270.689C589.487 268.132 597.213 263.819 604.222 258.067C599.045 263.579 592.991 268.212 586.858 271.328C581.84 273.884 577.539 275.242 571.565 277.079C568.061 278.118 563.998 279.396 559.06 281.073C557.308 281.633 556.033 282.272 555.954 282.272L554.201 285.867L557.308 286.825C560.573 286.266 563.839 286.106 563.919 286.106C565.273 286.026 566.706 286.026 568.299 286.026C571.247 286.026 574.353 286.106 577.619 286.266C581.123 286.346 584.708 286.506 588.372 286.506C603.107 286.506 619.436 284.748 629.074 271.807C640.304 256.789 640.384 233.223 629.153 199.752L627.162 194.08Z" fill="#6CCA00"/>
</g>
</g>
<g id="Frame 18">
<rect width="372" height="63" transform="translate(81 249)" fill="#F0F0F0" fill-opacity="0.15"/>
<path id="Full Tutorial in 2hrs" d="M99.5986 290H96.127V268.584H108.212V271.543H99.5986V278.237H107.67V281.211H99.5986V290ZM126.453 290L125.97 287.876H125.794C125.316 288.628 124.632 289.219 123.743 289.648C122.864 290.078 121.859 290.293 120.726 290.293C118.763 290.293 117.298 289.805 116.331 288.828C115.364 287.852 114.881 286.372 114.881 284.39V273.799H118.353V283.789C118.353 285.029 118.607 285.962 119.114 286.587C119.622 287.202 120.418 287.51 121.502 287.51C122.947 287.51 124.007 287.08 124.681 286.221C125.364 285.352 125.706 283.901 125.706 281.87V273.799H129.163V290H126.453ZM140.813 290H137.371V267.207H140.813V290ZM152.492 290H149.049V267.207H152.492V290ZM179.585 290H176.084V271.587H169.785V268.584H185.884V271.587H179.585V290ZM203.539 290L203.056 287.876H202.88C202.402 288.628 201.718 289.219 200.829 289.648C199.95 290.078 198.945 290.293 197.812 290.293C195.849 290.293 194.384 289.805 193.417 288.828C192.45 287.852 191.967 286.372 191.967 284.39V273.799H195.439V283.789C195.439 285.029 195.693 285.962 196.2 286.587C196.708 287.202 197.504 287.51 198.588 287.51C200.033 287.51 201.093 287.08 201.767 286.221C202.45 285.352 202.792 283.901 202.792 281.87V273.799H206.249V290H203.539ZM220.492 287.51C221.331 287.51 222.171 287.378 223.011 287.114V289.707C222.63 289.873 222.137 290.01 221.532 290.117C220.936 290.234 220.316 290.293 219.671 290.293C216.41 290.293 214.779 288.574 214.779 285.137V276.406H212.567V274.883L214.94 273.623L216.112 270.195H218.236V273.799H222.85V276.406H218.236V285.078C218.236 285.908 218.441 286.523 218.851 286.924C219.271 287.314 219.818 287.51 220.492 287.51ZM243.933 281.87C243.933 284.517 243.254 286.582 241.897 288.066C240.54 289.551 238.65 290.293 236.228 290.293C234.714 290.293 233.377 289.951 232.214 289.268C231.052 288.584 230.159 287.603 229.534 286.323C228.909 285.044 228.596 283.56 228.596 281.87C228.596 279.243 229.27 277.192 230.618 275.718C231.965 274.243 233.865 273.506 236.316 273.506C238.66 273.506 240.515 274.263 241.882 275.776C243.25 277.28 243.933 279.312 243.933 281.87ZM232.141 281.87C232.141 285.61 233.523 287.48 236.287 287.48C239.021 287.48 240.388 285.61 240.388 281.87C240.388 278.169 239.011 276.318 236.257 276.318C234.812 276.318 233.762 276.797 233.108 277.754C232.463 278.711 232.141 280.083 232.141 281.87ZM259.421 273.506C260.114 273.506 260.685 273.555 261.135 273.652L260.798 276.86C260.309 276.743 259.802 276.685 259.274 276.685C257.897 276.685 256.779 277.134 255.92 278.032C255.07 278.931 254.645 280.098 254.645 281.533V290H251.203V273.799H253.898L254.352 276.655H254.528C255.065 275.688 255.763 274.922 256.623 274.355C257.492 273.789 258.425 273.506 259.421 273.506ZM270.895 290H267.452V273.799H270.895V290ZM267.247 269.507C267.247 268.892 267.413 268.418 267.745 268.086C268.087 267.754 268.57 267.588 269.195 267.588C269.801 267.588 270.27 267.754 270.602 268.086C270.943 268.418 271.114 268.892 271.114 269.507C271.114 270.093 270.943 270.557 270.602 270.898C270.27 271.23 269.801 271.396 269.195 271.396C268.57 271.396 268.087 271.23 267.745 270.898C267.413 270.557 267.247 270.093 267.247 269.507ZM289.268 290L288.579 287.744H288.462C287.681 288.73 286.895 289.404 286.104 289.766C285.313 290.117 284.297 290.293 283.057 290.293C281.465 290.293 280.22 289.863 279.321 289.004C278.433 288.145 277.988 286.929 277.988 285.356C277.988 283.687 278.609 282.427 279.849 281.577C281.089 280.728 282.979 280.264 285.518 280.186L288.316 280.098V279.233C288.316 278.198 288.071 277.427 287.583 276.919C287.105 276.401 286.358 276.143 285.342 276.143C284.512 276.143 283.716 276.265 282.954 276.509C282.193 276.753 281.46 277.041 280.757 277.373L279.644 274.912C280.523 274.453 281.485 274.106 282.529 273.872C283.574 273.628 284.561 273.506 285.488 273.506C287.549 273.506 289.102 273.955 290.147 274.854C291.201 275.752 291.729 277.163 291.729 279.087V290H289.268ZM284.141 287.656C285.391 287.656 286.392 287.31 287.144 286.616C287.905 285.913 288.286 284.932 288.286 283.672V282.266L286.206 282.354C284.585 282.412 283.404 282.686 282.661 283.174C281.929 283.652 281.563 284.39 281.563 285.386C281.563 286.108 281.778 286.67 282.207 287.07C282.637 287.461 283.281 287.656 284.141 287.656ZM303.276 290H299.833V267.207H303.276V290ZM322.971 290V268.584H326.472V290H322.971ZM349.328 290H345.871V280.039C345.871 278.789 345.617 277.856 345.109 277.241C344.611 276.626 343.815 276.318 342.722 276.318C341.267 276.318 340.202 276.748 339.528 277.607C338.854 278.467 338.518 279.907 338.518 281.929V290H335.075V273.799H337.771L338.254 275.923H338.43C338.918 275.151 339.611 274.556 340.51 274.136C341.408 273.716 342.404 273.506 343.498 273.506C347.385 273.506 349.328 275.483 349.328 279.438V290ZM381.885 290H367.369V287.393L372.891 281.841C374.522 280.171 375.601 278.989 376.128 278.296C376.665 277.593 377.056 276.934 377.3 276.318C377.544 275.703 377.666 275.044 377.666 274.341C377.666 273.374 377.373 272.612 376.788 272.056C376.211 271.499 375.411 271.221 374.385 271.221C373.565 271.221 372.769 271.372 371.997 271.675C371.236 271.978 370.352 272.524 369.346 273.315L367.486 271.045C368.677 270.039 369.834 269.326 370.957 268.906C372.08 268.486 373.277 268.276 374.546 268.276C376.538 268.276 378.135 268.799 379.336 269.844C380.538 270.879 381.138 272.275 381.138 274.033C381.138 275 380.962 275.918 380.611 276.787C380.269 277.656 379.737 278.555 379.014 279.482C378.301 280.4 377.11 281.646 375.44 283.218L371.719 286.821V286.968H381.885V290ZM403.203 290H399.746V280.039C399.746 278.789 399.492 277.856 398.984 277.241C398.486 276.626 397.69 276.318 396.596 276.318C395.151 276.318 394.087 276.753 393.403 277.622C392.729 278.481 392.392 279.927 392.392 281.958V290H388.95V267.207H392.392V272.993C392.392 273.921 392.334 274.912 392.216 275.967H392.436C392.905 275.186 393.554 274.58 394.384 274.15C395.224 273.721 396.201 273.506 397.314 273.506C401.24 273.506 403.203 275.483 403.203 279.438V290ZM419.511 273.506C420.204 273.506 420.775 273.555 421.224 273.652L420.888 276.86C420.399 276.743 419.891 276.685 419.364 276.685C417.987 276.685 416.869 277.134 416.01 278.032C415.16 278.931 414.735 280.098 414.735 281.533V290H411.293V273.799H413.988L414.442 276.655H414.618C415.155 275.688 415.853 274.922 416.713 274.355C417.582 273.789 418.514 273.506 419.511 273.506ZM438.426 285.386C438.426 286.968 437.85 288.184 436.697 289.033C435.545 289.873 433.895 290.293 431.746 290.293C429.588 290.293 427.854 289.966 426.546 289.312V286.338C428.45 287.217 430.223 287.656 431.863 287.656C433.982 287.656 435.042 287.017 435.042 285.737C435.042 285.327 434.925 284.985 434.69 284.712C434.456 284.438 434.07 284.155 433.533 283.862C432.996 283.569 432.249 283.237 431.292 282.866C429.427 282.144 428.162 281.421 427.498 280.698C426.844 279.976 426.517 279.038 426.517 277.886C426.517 276.499 427.073 275.425 428.187 274.663C429.31 273.892 430.833 273.506 432.757 273.506C434.661 273.506 436.463 273.892 438.162 274.663L437.049 277.256C435.301 276.533 433.831 276.172 432.64 276.172C430.823 276.172 429.915 276.689 429.915 277.725C429.915 278.232 430.149 278.662 430.618 279.014C431.097 279.365 432.132 279.849 433.724 280.464C435.062 280.981 436.033 281.455 436.639 281.885C437.244 282.314 437.693 282.812 437.986 283.379C438.279 283.936 438.426 284.604 438.426 285.386Z" fill="white"/>
</g>
</g>
<defs>
<clipPath id="clip0_13_22">
<rect width="732" height="181" fill="white" transform="translate(18 68)"/>
</clipPath>
</defs>
</svg>
